{
.appVersion = "1342";
copyright = "Copyright 2020 Google LLC. All Rights Reserved.";
customParameters = (
{
name = description;
value = "This font is designed based on Nüshu Duben, with the design by Liu Zhao, the engineering by Eiso Chan, the quality assurance by Kushim Jiang, and Kwat Ulan as the design assistant, copywriting by Zhu Kui.";
},
{
name = trademark;
value = "Noto is a trademark of Google LLC.";
},
{
name = licenseURL;
value = "http://scripts.sil.org/OFL";
},
{
name = sampleText;
value = "   ";
},
{
name = license;
value = "This Font Software is licensed under the SIL Open Font License, Version 1.1. This Font Software is distributed on an \"AS IS\" BASIS, WITHOUT WARRANTIES OR CONDITIONS OF ANY KIND, either express or implied. See the SIL Open Font License for the specific language, permissions and limitations governing your use of this Font Software.";
},
{
name = vendorID;
value = GOOG;
},
{
name = panose;
value = (
2,
0,
6,
9,
0,
0,
0,
0,
0,
0
);
},
{
name = unicodeRanges;
value = (
0,
57,
59
);
},
{
name = fsType;
value = (
);
},
{
name = blueShift;
value = 15;
},
{
name = glyphOrder;
value = (
.notdef,
space,
comma,
hyphen,
period,
zero,
one,
two,
three,
four,
five,
six,
seven,
eight,
nine,
A,
B,
C,
D,
E,
F,
G,
H,
I,
J,
K,
L,
M,
N,
O,
P,
Q,
R,
S,
T,
U,
V,
W,
X,
Y,
Z,
a,
b,
c,
d,
e,
f,
g,
h,
i,
j,
k,
l,
m,
n,
o,
p,
q,
r,
s,
t,
u,
v,
w,
x,
y,
z,
ensp,
emsp,
uni3000,
uni4E00,
uni4E66,
uni4F20,
uni4F53,
uni5973,
uni7EDF,
u16FE1,
u1B170,
u1B171,
u1B172,
u1B173,
u1B174,
u1B175,
u1B176,
u1B177,
u1B178,
u1B179,
u1B17A,
u1B17B,
u1B17C,
u1B17D,
u1B17E,
u1B17F,
u1B180,
u1B181,
u1B182,
u1B183,
u1B184,
u1B185,
u1B186,
u1B187,
u1B188,
u1B189,
u1B18A,
u1B18B,
u1B18C,
u1B18D,
u1B18E,
u1B18F,
u1B190,
u1B191,
u1B192,
u1B193,
u1B194,
u1B195,
u1B196,
u1B197,
u1B198,
u1B199,
u1B19A,
u1B19B,
u1B19C,
u1B19D,
u1B19E,
u1B19F,
u1B1A0,
u1B1A1,
u1B1A2,
u1B1A3,
u1B1A4,
u1B1A5,
u1B1A6,
u1B1A7,
u1B1A8,
u1B1A9,
u1B1AA,
u1B1AB,
u1B1AC,
u1B1AD,
u1B1AE,
u1B1AF,
u1B1B0,
u1B1B1,

glyphs = (
{
glyphname = .notdef;
layers = (
{
hints = (
{
horizontal = 1;
place = "{0, 34}";
type = Stem;
},
{
horizontal = 1;
place = "{648, 34}";
type = Stem;
},
{
place = "{364, 34}";
type = Stem;
},
{
place = "{602, 34}";
type = Stem;
}
);
layerId = "077E5A87-ACC6-4633-A27C-E6914C382A59";
paths = (
{
closed = 1;
nodes = (
"364 0 LINE",
"636 0 LINE",
"636 682 LINE",
"364 682 LINE"
);
},
{
closed = 1;
nodes = (
"398 34 LINE",
"398 648 LINE",
"602 648 LINE",
"602 34 LINE"
);
}
);
vertWidth = 1200;
width = 1000;
}
);
note = .notdef;
},
{
glyphname = comma;
layers = (
{
hints = (
{
horizontal = 1;
place = "{-1, 128}";
type = Stem;
},
{
place = "{153, 68}";
type = Stem;
}
);
layerId = "077E5A87-ACC6-4633-A27C-E6914C382A59";
paths = (
{
closed = 1;
nodes = (
"75 -190 LINE",
"120.33 -170.67 OFFCURVE",
"156 -142.83 OFFCURVE",
"182 -106.5 CURVE SMOOTH",
"208 -70.17 OFFCURVE",
"221 -28.33 OFFCURVE",
"221 19 CURVE SMOOTH",
"221 52.33 OFFCURVE",
"214.17 78.67 OFFCURVE",
"200.5 98 CURVE SMOOTH",
"186.83 117.33 OFFCURVE",
"168 127 OFFCURVE",
"144 127 CURVE SMOOTH",
"124.67 127 OFFCURVE",
"108.33 121 OFFCURVE",
"95 109 CURVE SMOOTH",
"81.67 97 OFFCURVE",
"75 81.67 OFFCURVE",
"75 63 CURVE SMOOTH",
"75 43 OFFCURVE",
"81.5 27.33 OFFCURVE",
"94.5 16 CURVE SMOOTH",
"107.5 4.67 OFFCURVE",
"123.33 -1 OFFCURVE",
"142 -1 CURVE SMOOTH",
"146.67 -1 OFFCURVE",
"150.33 -0.67 OFFCURVE",
"153 0 CURVE",
"151.67 -62 OFFCURVE",
"118.33 -107.33 OFFCURVE",
"53 -136 CURVE"
);
}
);
vertWidth = 1000;
width = 278;
}
);
note = comma;
unicode = 002C;
},
{
glyphname = hyphen;
layers = (
{
hints = (
{
horizontal = 1;
place = "{245, 70}";
type = Stem;
},
{
place = "{46, 256}";
type = Stem;
}
);
layerId = "077E5A87-ACC6-4633-A27C-E6914C382A59";
paths = (
{
closed = 1;
nodes = (
"46 245 LINE",
"302 245 LINE",
"302 315 LINE",
"46 315 LINE"
);
}
);
vertWidth = 1000;
width = 347;
}
);
note = hyphen;
unicode = 002D;
},
{
glyphname = period;
layers = (
{
hints = (
{
horizontal = 1;
place = "{-13, 21}";
target = up;
type = BottomGhost;
},
{
place = "{73, 132}";
type = Stem;
},
{
horizontal = 1;
place = "{-13, 140}";
type = Stem;
}
);
layerId = "077E5A87-ACC6-4633-A27C-E6914C382A59";
paths = (
{
closed = 1;
nodes = (
"157.67 -13 OFFCURVE",
"173.33 -6.5 OFFCURVE",
"186 6.5 CURVE SMOOTH",
"198.67 19.5 OFFCURVE",
"205 36 OFFCURVE",
"205 56 CURVE SMOOTH",
"205 76 OFFCURVE",
"198.5 92.83 OFFCURVE",
"185.5 106.5 CURVE SMOOTH",
"172.5 120.17 OFFCURVE",
"157 127 OFFCURVE",
"139 127 CURVE SMOOTH",
"121 127 OFFCURVE",
"105.5 120.17 OFFCURVE",
"92.5 106.5 CURVE SMOOTH",
"79.5 92.83 OFFCURVE",
"73 76 OFFCURVE",
"73 56 CURVE SMOOTH",
"73 36 OFFCURVE",
"79.33 19.5 OFFCURVE",
"92 6.5 CURVE SMOOTH",
"104.67 -6.5 OFFCURVE",
"120.33 -13 OFFCURVE",
"139 -13 CURVE SMOOTH"
);
}
);
vertWidth = 1000;
width = 278;
}
);
note = period;
unicode = 002E;
},
{
glyphname = zero;
layers = (
{
hints = (
{
horizontal = 1;
place = "{-13, 73}";
type = Stem;
},
{
horizontal = 1;
place = "{673, 74}";
type = Stem;
},
{
place = "{49, 89}";
type = Stem;
},
{
place = "{417, 89}";
type = Stem;
}
);
layerId = "077E5A87-ACC6-4633-A27C-E6914C382A59";
paths = (
{
closed = 1;
nodes = (
"349.33 -13 OFFCURVE",
"405.17 19.5 OFFCURVE",
"445.5 84.5 CURVE SMOOTH",
"485.83 149.5 OFFCURVE",
"506 244.33 OFFCURVE",
"506 369 CURVE SMOOTH",
"506 493 OFFCURVE",
"485.83 587 OFFCURVE",
"445.5 651 CURVE SMOOTH",
"405.17 715 OFFCURVE",
"349.33 747 OFFCURVE",
"278 747 CURVE SMOOTH",
"206 747 OFFCURVE",
"149.83 715.17 OFFCURVE",
"109.5 651.5 CURVE SMOOTH",
"69.17 587.83 OFFCURVE",
"49 493.67 OFFCURVE",
"49 369 CURVE SMOOTH",
"49 244.33 OFFCURVE",
"69.33 149.5 OFFCURVE",
"110 84.5 CURVE SMOOTH",
"150.67 19.5 OFFCURVE",
"206.67 -13 OFFCURVE",
"278 -13 CURVE SMOOTH"
);
},
{
closed = 1;
nodes = (
"234 60 OFFCURVE",
"199.67 85.33 OFFCURVE",
"175 136 CURVE SMOOTH",
"150.33 186.67 OFFCURVE",
"138 264.33 OFFCURVE",
"138 369 CURVE SMOOTH",
"138 472.33 OFFCURVE",
"150.33 548.83 OFFCURVE",
"175 598.5 CURVE SMOOTH",
"199.67 648.17 OFFCURVE",
"234 673 OFFCURVE",
"278 673 CURVE SMOOTH",
"321.33 673 OFFCURVE",
"355.33 648.17 OFFCURVE",
"380 598.5 CURVE SMOOTH",
"404.67 548.83 OFFCURVE",
"417 472.33 OFFCURVE",
"417 369 CURVE SMOOTH",
"417 265 OFFCURVE",
"404.67 187.5 OFFCURVE",
"380 136.5 CURVE SMOOTH",
"355.33 85.5 OFFCURVE",
"321.33 60 OFFCURVE",
"278 60 CURVE SMOOTH"
);
}
);
vertWidth = 1000;
width = 555;
}
);
note = zero;
unicode = 0030;
},
{
glyphname = one;
layers = (
{
hints = (
{
horizontal = 1;
place = "{0, 76}";
type = Stem;
},
{
horizontal = 1;
place = "{623, 110}";
type = Stem;
},
{
place = "{251, 92}";
type = Stem;
}
);
layerId = "077E5A87-ACC6-4633-A27C-E6914C382A59";
paths = (
{
closed = 1;
nodes = (
"88 76 LINE",
"88 0 LINE",
"490 0 LINE",
"490 76 LINE",
"343 76 LINE",
"343 733 LINE",
"273 733 LINE",
"232.33 709.67 OFFCURVE",
"181.67 692.33 OFFCURVE",
"121 681 CURVE",
"121 623 LINE",
"251 623 LINE",
"251 76 LINE"
);
}
);
vertWidth = 1000;
width = 555;
}
);
note = one;
unicode = 0031;
},
{
glyphname = two;
layers = (
{
hints = (
{
horizontal = 1;
place = "{0, 79}";
type = Stem;
},
{
horizontal = 1;
place = "{672, 75}";
type = Stem;
},
{
place = "{380, 89}";
type = Stem;
}
);
layerId = "077E5A87-ACC6-4633-A27C-E6914C382A59";
paths = (
{
closed = 1;
nodes = (
"44 0 LINE",
"505 0 LINE",
"505 79 LINE",
"302 79 LINE SMOOTH",
"281.33 79 OFFCURVE",
"241.33 76.67 OFFCURVE",
"182 72 CURVE",
"275.33 160.67 OFFCURVE",
"346.5 242 OFFCURVE",
"395.5 316 CURVE SMOOTH",
"444.5 390 OFFCURVE",
"469 461.33 OFFCURVE",
"469 530 CURVE SMOOTH",
"469 596 OFFCURVE",
"449.83 648.67 OFFCURVE",
"411.5 688 CURVE SMOOTH",
"373.17 727.33 OFFCURVE",
"321.33 747 OFFCURVE",
"256 747 CURVE SMOOTH",
"212 747 OFFCURVE",
"173.17 737.83 OFFCURVE",
"139.5 719.5 CURVE SMOOTH",
"105.83 701.17 OFFCURVE",
"72.67 674.33 OFFCURVE",
"40 639 CURVE",
"93 587 LINE",
"140.33 643.67 OFFCURVE",
"191 672 OFFCURVE",
"245 672 CURVE SMOOTH",
"289 672 OFFCURVE",
"322.5 658.83 OFFCURVE",
"345.5 632.5 CURVE SMOOTH",
"368.5 606.17 OFFCURVE",
"380 571 OFFCURVE",
"380 527 CURVE SMOOTH",
"380 464.33 OFFCURVE",
"353 395.17 OFFCURVE",
"299 319.5 CURVE SMOOTH",
"245 243.83 OFFCURVE",
"160 155.33 OFFCURVE",
"44 54 CURVE"
);
}
);
vertWidth = 1000;
width = 555;
}
);
note = two;
unicode = 0032;
},
{
glyphname = three;
layers = (
{
hints = (
{
horizontal = 1;
place = "{-13, 76}";
type = Stem;
},
{
horizontal = 1;
place = "{346, 70}";
type = Stem;
},
{
horizontal = 1;
place = "{674, 73}";
type = Stem;
},
{
place = "{178, 165}";
type = Stem;
},
{
place = "{406, 93}";
type = Stem;
},
{
place = "{381, 93}";
type = Stem;
}
);
layerId = "077E5A87-ACC6-4633-A27C-E6914C382A59";
paths = (
{
closed = 1;
nodes = (
"331.33 -13 OFFCURVE",
"387.33 5.83 OFFCURVE",
"432 43.5 CURVE SMOOTH",
"476.67 81.17 OFFCURVE",
"499 132 OFFCURVE",
"499 196 CURVE SMOOTH",
"499 244 OFFCURVE",
"484.33 284.33 OFFCURVE",
"455 317 CURVE SMOOTH",
"425.67 349.67 OFFCURVE",
"388.33 371.33 OFFCURVE",
"343 382 CURVE",
"343 386 LINE",
"430.33 418.67 OFFCURVE",
"474 477.67 OFFCURVE",
"474 563 CURVE SMOOTH",
"474 620.33 OFFCURVE",
"454.33 665.33 OFFCURVE",
"415 698 CURVE SMOOTH",
"375.67 730.67 OFFCURVE",
"324.33 747 OFFCURVE",
"261 747 CURVE SMOOTH",
"187.67 747 OFFCURVE",
"119.33 717.67 OFFCURVE",
"56 659 CURVE",
"105 601 LINE",
"151.67 647.67 OFFCURVE",
"202.33 672 OFFCURVE",
"257 674 CURVE",
"295 672.67 OFFCURVE",
"325.17 661.5 OFFCURVE",
"347.5 640.5 CURVE SMOOTH",
"369.83 619.5 OFFCURVE",
"381 591.33 OFFCURVE",
"381 556 CURVE SMOOTH",
"381 462.67 OFFCURVE",
"313.33 416 OFFCURVE",
"178 416 CURVE",
"178 346 LINE",
"330 346 OFFCURVE",
"406 297 OFFCURVE",
"406 199 CURVE SMOOTH",
"406 157.67 OFFCURVE",
"392.17 124.67 OFFCURVE",
"364.5 100 CURVE SMOOTH",
"336.83 75.33 OFFCURVE",
"301 63 OFFCURVE",
"257 63 CURVE SMOOTH",
"189 63 OFFCURVE",
"128.33 91 OFFCURVE",
"75 147 CURVE",
"29 87 LINE",
"90.33 20.33 OFFCURVE",
"168.67 -13 OFFCURVE",
"264 -13 CURVE SMOOTH"
);
}
);
vertWidth = 1000;
width = 555;
}
);
note = three;
unicode = 0033;
},
{
glyphname = four;
layers = (
{
hints = (
{
horizontal = 1;
place = "{0, 21}";
target = up;
type = BottomGhost;
},
{
horizontal = 1;
place = "{202, 73}";
type = Stem;
},
{
horizontal = 1;
place = "{633, 100}";
type = Stem;
},
{
place = "{339, 87}";
type = Stem;
}
);
layerId = "077E5A87-ACC6-4633-A27C-E6914C382A59";
paths = (
{
closed = 1;
nodes = (
"339 275 LINE",
"115 275 LINE",
"282 525 LINE",
"305.33 565 OFFCURVE",
"325 601 OFFCURVE",
"341 633 CURVE",
"345 633 LINE",
"341 557 OFFCURVE",
"339 512.67 OFFCURVE",
"339 500 CURVE SMOOTH"
);
},
{
closed = 1;
nodes = (
"523 202 LINE",
"523 275 LINE",
"426 275 LINE",
"426 733 LINE",
"325 733 LINE",
"20 262 LINE",
"20 202 LINE",
"339 202 LINE",
"339 0 LINE",
"426 0 LINE",
"426 202 LINE"
);
}
);
vertWidth = 1000;
width = 555;
}
);
note = four;
unicode = 0034;
},
{
glyphname = five;
layers = (
{
hints = (
{
horizontal = 1;
place = "{-13, 76}";
type = Stem;
},
{
horizontal = 1;
place = "{403, 69}";
type = Stem;
},
{
horizontal = 1;
place = "{655, 78}";
type = Stem;
},
{
place = "{409, 92}";
type = Stem;
}
);
layerId = "077E5A87-ACC6-4633-A27C-E6914C382A59";
paths = (
{
closed = 1;
nodes = (
"326.33 -13 OFFCURVE",
"382.67 9.67 OFFCURVE",
"430 55 CURVE SMOOTH",
"477.33 100.33 OFFCURVE",
"501 161.67 OFFCURVE",
"501 239 CURVE SMOOTH",
"501 315.67 OFFCURVE",
"480.33 373.67 OFFCURVE",
"439 413 CURVE SMOOTH",
"397.67 452.33 OFFCURVE",
"344.67 472 OFFCURVE",
"280 472 CURVE SMOOTH",
"242 472 OFFCURVE",
"205.67 462.33 OFFCURVE",
"171 443 CURVE",
"189 655 LINE",
"466 655 LINE",
"466 733 LINE",
"109 733 LINE",
"86 390 LINE",
"135 360 LINE",
"178.33 388.67 OFFCURVE",
"219 403 OFFCURVE",
"257 403 CURVE SMOOTH",
"303.67 403 OFFCURVE",
"340.67 388.17 OFFCURVE",
"368 358.5 CURVE SMOOTH",
"395.33 328.83 OFFCURVE",
"409 288 OFFCURVE",
"409 236 CURVE SMOOTH",
"409 184 OFFCURVE",
"394 142.17 OFFCURVE",
"364 110.5 CURVE SMOOTH",
"334 78.83 OFFCURVE",
"297 63 OFFCURVE",
"253 63 CURVE SMOOTH",
"187 63 OFFCURVE",
"127 90 OFFCURVE",
"73 144 CURVE",
"28 84 LINE",
"92.67 19.33 OFFCURVE",
"170.33 -13 OFFCURVE",
"261 -13 CURVE SMOOTH"
);
}
);
vertWidth = 1000;
width = 555;
}
);
note = five;
unicode = 0035;
},
{
glyphname = six;
layers = (
{
hints = (
{
horizontal = 1;
place = "{-13, 71}";
type = Stem;
},
{
horizontal = 1;
place = "{387, 68}";
type = Stem;
},
{
horizontal = 1;
place = "{671, 76}";
type = Stem;
},
{
place = "{56, 85}";
type = Stem;
},
{
place = "{425, 86}";
type = Stem;
}
);
layerId = "077E5A87-ACC6-4633-A27C-E6914C382A59";
paths = (
{
closed = 1;
nodes = (
"255 58 OFFCURVE",
"218.5 78.17 OFFCURVE",
"191.5 118.5 CURVE SMOOTH",
"164.5 158.83 OFFCURVE",
"148.33 217 OFFCURVE",
"143 293 CURVE",
"187 355.67 OFFCURVE",
"237 387 OFFCURVE",
"293 387 CURVE SMOOTH",
"336.33 387 OFFCURVE",
"369.17 372.67 OFFCURVE",
"391.5 344 CURVE SMOOTH",
"413.83 315.33 OFFCURVE",
"425 275.67 OFFCURVE",
"425 225 CURVE SMOOTH",
"425 175.67 OFFCURVE",
"413.17 135.5 OFFCURVE",
"389.5 104.5 CURVE SMOOTH",
"365.83 73.5 OFFCURVE",
"336.33 58 OFFCURVE",
"301 58 CURVE SMOOTH"
);
},
{
closed = 1;
nodes = (
"498 672 LINE",
"451.33 722 OFFCURVE",
"394.33 747 OFFCURVE",
"327 747 CURVE SMOOTH",
"249 747 OFFCURVE",
"184.33 714.5 OFFCURVE",
"133 649.5 CURVE SMOOTH",
"81.67 584.5 OFFCURVE",
"56 484.67 OFFCURVE",
"56 350 CURVE SMOOTH",
"56 232.67 OFFCURVE",
"78.5 142.83 OFFCURVE",
"123.5 80.5 CURVE SMOOTH",
"168.5 18.17 OFFCURVE",
"227.67 -13 OFFCURVE",
"301 -13 CURVE SMOOTH",
"359.67 -13 OFFCURVE",
"409.33 9.33 OFFCURVE",
"450 54 CURVE SMOOTH",
"490.67 98.67 OFFCURVE",
"511 155.67 OFFCURVE",
"511 225 CURVE SMOOTH",
"511 299.67 OFFCURVE",
"493 356.67 OFFCURVE",
"457 396 CURVE SMOOTH",
"421 435.33 OFFCURVE",
"371.33 455 OFFCURVE",
"308 455 CURVE SMOOTH",
"278.67 455 OFFCURVE",
"249.17 447 OFFCURVE",
"219.5 431 CURVE SMOOTH",
"189.83 415 OFFCURVE",
"163.67 393.33 OFFCURVE",
"141 366 CURVE",
"143 472.67 OFFCURVE",
"161.33 550.17 OFFCURVE",
"196 598.5 CURVE SMOOTH",
"230.67 646.83 OFFCURVE",
"275.33 671 OFFCURVE",
"330 671 CURVE SMOOTH",
"378 671 OFFCURVE",
"417.33 652.33 OFFCURVE",
"448 615 CURVE"
);
}
);
vertWidth = 1000;
width = 555;
}
);
note = six;
unicode = 0036;
},
{
glyphname = seven;
layers = (
{
hints = (
{
horizontal = 1;
place = "{0, 21}";
target = up;
type = BottomGhost;
},
{
horizontal = 1;
place = "{655, 78}";
type = Stem;
},
{
place = "{198, 95}";
type = Stem;
}
);
layerId = "077E5A87-ACC6-4633-A27C-E6914C382A59";
paths = (
{
closed = 1;
nodes = (
"293 0 LINE",
"299 155.33 OFFCURVE",
"316 281 OFFCURVE",
"344 377 CURVE SMOOTH",
"372 473 OFFCURVE",
"426.67 573.33 OFFCURVE",
"508 678 CURVE",
"508 733 LINE",
"49 733 LINE",
"49 655 LINE",
"404 655 LINE",
"333.33 556.33 OFFCURVE",
"282.83 457.83 OFFCURVE",
"252.5 359.5 CURVE SMOOTH",
"222.17 261.17 OFFCURVE",
"204 141.33 OFFCURVE",
"198 0 CURVE"
);
}
);
vertWidth = 1000;
width = 555;
}
);
note = seven;
unicode = 0037;
},
{
glyphname = eight;
layers = (
{
hints = (
{
horizontal = 1;
place = "{-13, 68}";
type = Stem;
},
{
horizontal = 1;
place = "{677, 67}";
type = Stem;
},
{
place = "{422, 87}";
type = Stem;
},
{
place = "{81, 83}";
type = Stem;
},
{
place = "{405, 78}";
type = Stem;
},
{
place = "{45, 83}";
type = Stem;
}
);
layerId = "077E5A87-ACC6-4633-A27C-E6914C382A59";
paths = (
{
closed = 1;
nodes = (
"347 -13 OFFCURVE",
"402.33 5.17 OFFCURVE",
"445 41.5 CURVE SMOOTH",
"487.67 77.83 OFFCURVE",
"509 123 OFFCURVE",
"509 177 CURVE SMOOTH",
"509 257 OFFCURVE",
"467.67 321 OFFCURVE",
"385 369 CURVE",
"385 374 LINE",
"411 394 OFFCURVE",
"433.83 419.67 OFFCURVE",
"453.5 451 CURVE SMOOTH",
"473.17 482.33 OFFCURVE",
"483 515.67 OFFCURVE",
"483 551 CURVE SMOOTH",
"483 608.33 OFFCURVE",
"464.83 654.83 OFFCURVE",
"428.5 690.5 CURVE SMOOTH",
"392.17 726.17 OFFCURVE",
"343.33 744 OFFCURVE",
"282 744 CURVE SMOOTH",
"224 744 OFFCURVE",
"176 726.83 OFFCURVE",
"138 692.5 CURVE SMOOTH",
"100 658.17 OFFCURVE",
"81 613.33 OFFCURVE",
"81 558 CURVE SMOOTH",
"81 490.67 OFFCURVE",
"114 434.33 OFFCURVE",
"180 389 CURVE",
"180 384 LINE",
"142 363.33 OFFCURVE",
"110 335.83 OFFCURVE",
"84 301.5 CURVE SMOOTH",
"58 267.17 OFFCURVE",
"45 227.33 OFFCURVE",
"45 182 CURVE SMOOTH",
"45 125.33 OFFCURVE",
"67.17 78.67 OFFCURVE",
"111.5 42 CURVE SMOOTH",
"155.83 5.33 OFFCURVE",
"211.67 -13 OFFCURVE",
"279 -13 CURVE SMOOTH"
);
},
{
closed = 1;
nodes = (
"275.67 419.33 OFFCURVE",
"234.83 441.5 OFFCURVE",
"206.5 464.5 CURVE SMOOTH",
"178.17 487.5 OFFCURVE",
"164 518.67 OFFCURVE",
"164 558 CURVE SMOOTH",
"164 593.33 OFFCURVE",
"174.83 622 OFFCURVE",
"196.5 644 CURVE SMOOTH",
"218.17 666 OFFCURVE",
"246 677 OFFCURVE",
"280 677 CURVE SMOOTH",
"318 677 OFFCURVE",
"348.33 664.5 OFFCURVE",
"371 639.5 CURVE SMOOTH",
"393.67 614.5 OFFCURVE",
"405 583.33 OFFCURVE",
"405 546 CURVE SMOOTH",
"405 492 OFFCURVE",
"379.67 442.67 OFFCURVE",
"329 398 CURVE"
);
},
{
closed = 1;
nodes = (
"237 55 OFFCURVE",
"200.5 67.83 OFFCURVE",
"171.5 93.5 CURVE SMOOTH",
"142.5 119.17 OFFCURVE",
"128 151.33 OFFCURVE",
"128 190 CURVE SMOOTH",
"128 258 OFFCURVE",
"161.33 313.33 OFFCURVE",
"228 356 CURVE",
"262 342.67 OFFCURVE",
"287.5 331.83 OFFCURVE",
"304.5 323.5 CURVE SMOOTH",
"321.5 315.17 OFFCURVE",
"340.67 303.83 OFFCURVE",
"362 289.5 CURVE SMOOTH",
"383.33 275.17 OFFCURVE",
"398.67 259 OFFCURVE",
"408 241 CURVE SMOOTH",
"417.33 223 OFFCURVE",
"422 202.33 OFFCURVE",
"422 179 CURVE SMOOTH",
"422 142.33 OFFCURVE",
"409 112.5 OFFCURVE",
"383 89.5 CURVE SMOOTH",
"357 66.5 OFFCURVE",
"323 55 OFFCURVE",
"281 55 CURVE SMOOTH"
);
}
);
vertWidth = 1000;
width = 555;
}
);
note = eight;
unicode = 0038;
},
{
glyphname = nine;
layers = (
{
hints = (
{
horizontal = 1;
place = "{-13, 76}";
type = Stem;
},
{
horizontal = 1;
place = "{278, 68}";
type = Stem;
},
{
horizontal = 1;
place = "{675, 72}";
type = Stem;
},
{
place = "{44, 86}";
type = Stem;
},
{
place = "{415, 85}";
type = Stem;
}
);
layerId = "077E5A87-ACC6-4633-A27C-E6914C382A59";
paths = (
{
closed = 1;
nodes = (
"218.33 346 OFFCURVE",
"185.83 360.5 OFFCURVE",
"163.5 389.5 CURVE SMOOTH",
"141.17 418.5 OFFCURVE",
"130 458.33 OFFCURVE",
"130 509 CURVE SMOOTH",
"130 558.33 OFFCURVE",
"141.83 598.33 OFFCURVE",
"165.5 629 CURVE SMOOTH",
"189.17 659.67 OFFCURVE",
"218.67 675 OFFCURVE",
"254 675 CURVE SMOOTH",
"301.33 675 OFFCURVE",
"338.67 655.33 OFFCURVE",
"366 616 CURVE SMOOTH",
"393.33 576.67 OFFCURVE",
"409.33 519.33 OFFCURVE",
"414 444 CURVE",
"368 378.67 OFFCURVE",
"317 346 OFFCURVE",
"261 346 CURVE SMOOTH"
);
},
{
closed = 1;
nodes = (
"58 62 LINE",
"106 12 OFFCURVE",
"164.67 -13 OFFCURVE",
"234 -13 CURVE SMOOTH",
"270 -13 OFFCURVE",
"303.33 -5.33 OFFCURVE",
"334 10 CURVE SMOOTH",
"364.67 25.33 OFFCURVE",
"392.67 48.83 OFFCURVE",
"418 80.5 CURVE SMOOTH",
"443.33 112.17 OFFCURVE",
"463.33 155.17 OFFCURVE",
"478 209.5 CURVE SMOOTH",
"492.67 263.83 OFFCURVE",
"500 326.67 OFFCURVE",
"500 398 CURVE SMOOTH",
"500 510.67 OFFCURVE",
"477.33 597 OFFCURVE",
"432 657 CURVE SMOOTH",
"386.67 717 OFFCURVE",
"327.33 747 OFFCURVE",
"254 747 CURVE SMOOTH",
"195.33 747 OFFCURVE",
"145.67 724.67 OFFCURVE",
"105 680 CURVE SMOOTH",
"64.33 635.33 OFFCURVE",
"44 578.33 OFFCURVE",
"44 509 CURVE SMOOTH",
"44 434.33 OFFCURVE",
"62 377.17 OFFCURVE",
"98 337.5 CURVE SMOOTH",
"134 297.83 OFFCURVE",
"183.33 278 OFFCURVE",
"246 278 CURVE SMOOTH",
"276.67 278 OFFCURVE",
"306.83 286.17 OFFCURVE",
"336.5 302.5 CURVE SMOOTH",
"366.17 318.83 OFFCURVE",
"392.33 341 OFFCURVE",
"415 369 CURVE",
"411.67 262.33 OFFCURVE",
"393.17 184.67 OFFCURVE",
"359.5 136 CURVE SMOOTH",
"325.83 87.33 OFFCURVE",
"283 63 OFFCURVE",
"231 63 CURVE SMOOTH",
"182.33 63 OFFCURVE",
"141.33 81.67 OFFCURVE",
"108 119 CURVE"
);
}
);
vertWidth = 1000;
width = 555;
}
);
note = nine;
unicode = 0039;
},
{
glyphname = A;
layers = (
{
hints = (
{
horizontal = 1;
place = "{0, 21}";
target = up;
type = BottomGhost;
},
{
horizontal = 1;
place = "{224, 74}";
type = Stem;
},
{
horizontal = 1;
place = "{658, 75}";
type = Stem;
},
{
place = "{3, 601}";
type = Stem;
}
);
layerId = "077E5A87-ACC6-4633-A27C-E6914C382A59";
paths = (
{
closed = 1;
nodes = (
"413 298 LINE",
"191 298 LINE",
"227 410 LINE SMOOTH",
"257.67 507.33 OFFCURVE",
"282 590 OFFCURVE",
"300 658 CURVE",
"304 658 LINE",
"333.33 554.67 OFFCURVE",
"358 472 OFFCURVE",
"378 410 CURVE SMOOTH"
);
},
{
closed = 1;
nodes = (
"436 224 LINE",
"506 0 LINE",
"604 0 LINE",
"355 733 LINE",
"252 733 LINE",
"3 0 LINE",
"97 0 LINE",
"168 224 LINE"
);
}
);
vertWidth = 1000;
width = 607;
}
);
note = A;
unicode = 0041;
},
{
glyphname = B;
layers = (
{
hints = (
{
horizontal = 1;
place = "{0, 74}";
type = Stem;
},
{
horizontal = 1;
place = "{350, 71}";
type = Stem;
},
{
horizontal = 1;
place = "{660, 73}";
type = Stem;
},
{
place = "{100, 93}";
type = Stem;
},
{
place = "{521, 91}";
type = Stem;
},
{
place = "{479, 91}";
type = Stem;
}
);
layerId = "077E5A87-ACC6-4633-A27C-E6914C382A59";
paths = (
{
closed = 1;
nodes = (
"100 733 LINE",
"100 0 LINE",
"334 0 LINE SMOOTH",
"418.67 0 OFFCURVE",
"486.17 18.33 OFFCURVE",
"536.5 55 CURVE SMOOTH",
"586.83 91.67 OFFCURVE",
"612 145 OFFCURVE",
"612 215 CURVE SMOOTH",
"612 263 OFFCURVE",
"598.5 302 OFFCURVE",
"571.5 332 CURVE SMOOTH",
"544.5 362 OFFCURVE",
"508 381.33 OFFCURVE",
"462 390 CURVE",
"462 395 LINE",
"496 405.67 OFFCURVE",
"522.5 425.5 OFFCURVE",
"541.5 454.5 CURVE SMOOTH",
"560.5 483.5 OFFCURVE",
"570 516.67 OFFCURVE",
"570 554 CURVE SMOOTH",
"570 673.33 OFFCURVE",
"486 733 OFFCURVE",
"318 733 CURVE SMOOTH"
);
},
{
closed = 1;
nodes = (
"193 421 LINE",
"193 660 LINE",
"306 660 LINE SMOOTH",
"364.67 660 OFFCURVE",
"408.17 650.83 OFFCURVE",
"436.5 632.5 CURVE SMOOTH",
"464.83 614.17 OFFCURVE",
"479 584 OFFCURVE",
"479 542 CURVE SMOOTH",
"479 461.33 OFFCURVE",
"420 421 OFFCURVE",
"302 421 CURVE SMOOTH"
);
},
{
closed = 1;
nodes = (
"193 74 LINE",
"193 350 LINE",
"321 350 LINE SMOOTH",
"454.33 350 OFFCURVE",
"521 306 OFFCURVE",
"521 218 CURVE SMOOTH",
"521 122 OFFCURVE",
"454.33 74 OFFCURVE",
"321 74 CURVE SMOOTH"
);
}
);
vertWidth = 1000;
width = 657;
}
);
note = B;
unicode = 0042;
},
{
glyphname = C;
layers = (
{
hints = (
{
horizontal = 1;
place = "{-13, 81}";
type = Stem;
},
{
horizontal = 1;
place = "{666, 81}";
type = Stem;
},
{
place = "{58, 95}";
type = Stem;
}
);
layerId = "077E5A87-ACC6-4633-A27C-E6914C382A59";
paths = (
{
closed = 1;
nodes = (
"466.33 -13 OFFCURVE",
"541.33 22 OFFCURVE",
"602 92 CURVE",
"551 150 LINE",
"500.33 95.33 OFFCURVE",
"443.67 68 OFFCURVE",
"381 68 CURVE SMOOTH",
"311 68 OFFCURVE",
"255.5 95 OFFCURVE",
"214.5 149 CURVE SMOOTH",
"173.5 203 OFFCURVE",
"153 276.33 OFFCURVE",
"153 369 CURVE SMOOTH",
"153 459.67 OFFCURVE",
"174 531.83 OFFCURVE",
"216 585.5 CURVE SMOOTH",
"258 639.17 OFFCURVE",
"314 666 OFFCURVE",
"384 666 CURVE SMOOTH",
"440.67 666 OFFCURVE",
"490.67 642.67 OFFCURVE",
"534 596 CURVE",
"584 656 LINE",
"530 716.67 OFFCURVE",
"463 747 OFFCURVE",
"383 747 CURVE SMOOTH",
"288.33 747 OFFCURVE",
"210.5 712.5 OFFCURVE",
"149.5 643.5 CURVE SMOOTH",
"88.5 574.5 OFFCURVE",
"58 482 OFFCURVE",
"58 366 CURVE SMOOTH",
"58 249.33 OFFCURVE",
"87.83 157 OFFCURVE",
"147.5 89 CURVE SMOOTH",
"207.17 21 OFFCURVE",
"283.67 -13 OFFCURVE",
"377 -13 CURVE SMOOTH"
);
}
);
vertWidth = 1000;
width = 638;
}
);
note = C;
unicode = 0043;
},
{
glyphname = D;
layers = (
{
hints = (
{
horizontal = 1;
place = "{0, 76}";
type = Stem;
},
{
horizontal = 1;
place = "{658, 75}";
type = Stem;
},
{
place = "{100, 93}";
type = Stem;
},
{
place = "{534, 96}";
type = Stem;
}
);
layerId = "077E5A87-ACC6-4633-A27C-E6914C382A59";
paths = (
{
closed = 1;
nodes = (
"100 733 LINE",
"100 0 LINE",
"288 0 LINE SMOOTH",
"398 0 OFFCURVE",
"482.5 32.33 OFFCURVE",
"541.5 97 CURVE SMOOTH",
"600.5 161.67 OFFCURVE",
"630 252.33 OFFCURVE",
"630 369 CURVE SMOOTH",
"630 485.67 OFFCURVE",
"600.33 575.5 OFFCURVE",
"541 638.5 CURVE SMOOTH",
"481.67 701.5 OFFCURVE",
"396 733 OFFCURVE",
"284 733 CURVE SMOOTH"
);
},
{
closed = 1;
nodes = (
"193 76 LINE",
"193 658 LINE",
"276 658 LINE SMOOTH",
"361.33 658 OFFCURVE",
"425.67 633.33 OFFCURVE",
"469 584 CURVE SMOOTH",
"512.33 534.67 OFFCURVE",
"534 463 OFFCURVE",
"534 369 CURVE SMOOTH",
"534 275 OFFCURVE",
"512.33 202.67 OFFCURVE",
"469 152 CURVE SMOOTH",
"425.67 101.33 OFFCURVE",
"361.33 76 OFFCURVE",
"276 76 CURVE SMOOTH"
);
}
);
vertWidth = 1000;
width = 687;
}
);
note = D;
unicode = 0044;
},
{
glyphname = E;
layers = (
{
hints = (
{
horizontal = 1;
place = "{0, 79}";
type = Stem;
},
{
horizontal = 1;
place = "{346, 79}";
type = Stem;
},
{
horizontal = 1;
place = "{655, 78}";
type = Stem;
},
{
place = "{100, 93}";
type = Stem;
}
);
layerId = "077E5A87-ACC6-4633-A27C-E6914C382A59";
paths = (
{
closed = 1;
nodes = (
"100 733 LINE",
"100 0 LINE",
"534 0 LINE",
"534 79 LINE",
"193 79 LINE",
"193 346 LINE",
"471 346 LINE",
"471 425 LINE",
"193 425 LINE",
"193 655 LINE",
"523 655 LINE",
"523 733 LINE"
);
}
);
vertWidth = 1000;
width = 588;
}
);
note = E;
unicode = 0045;
},
{
glyphname = F;
layers = (
{
hints = (
{
horizontal = 1;
place = "{0, 21}";
target = up;
type = BottomGhost;
},
{
horizontal = 1;
place = "{329, 78}";
type = Stem;
},
{
horizontal = 1;
place = "{655, 78}";
type = Stem;
},
{
place = "{100, 93}";
type = Stem;
}
);
layerId = "077E5A87-ACC6-4633-A27C-E6914C382A59";
paths = (
{
closed = 1;
nodes = (
"100 733 LINE",
"100 0 LINE",
"193 0 LINE",
"193 329 LINE",
"473 329 LINE",
"473 407 LINE",
"193 407 LINE",
"193 655 LINE",
"523 655 LINE",
"523 733 LINE"
);
}
);
vertWidth = 1000;
width = 552;
}
);
note = F;
unicode = 0046;
},
{
glyphname = G;
layers = (
{
hints = (
{
horizontal = 1;
place = "{-13, 81}";
type = Stem;
},
{
horizontal = 1;
place = "{303, 77}";
type = Stem;
},
{
horizontal = 1;
place = "{666, 81}";
type = Stem;
},
{
place = "{58, 95}";
type = Stem;
},
{
place = "{530, 85}";
type = Stem;
}
);
layerId = "077E5A87-ACC6-4633-A27C-E6914C382A59";
paths = (
{
closed = 1;
nodes = (
"484.67 -13 OFFCURVE",
"560.33 15.33 OFFCURVE",
"615 72 CURVE",
"615 380 LINE",
"375 380 LINE",
"375 303 LINE",
"530 303 LINE",
"530 111 LINE",
"499.33 82.33 OFFCURVE",
"455 68 OFFCURVE",
"397 68 CURVE SMOOTH",
"319.67 68 OFFCURVE",
"259.67 94.83 OFFCURVE",
"217 148.5 CURVE SMOOTH",
"174.33 202.17 OFFCURVE",
"153 275.67 OFFCURVE",
"153 369 CURVE SMOOTH",
"153 460.33 OFFCURVE",
"175 532.67 OFFCURVE",
"219 586 CURVE SMOOTH",
"263 639.33 OFFCURVE",
"322 666 OFFCURVE",
"396 666 CURVE SMOOTH",
"458 666 OFFCURVE",
"511 642.67 OFFCURVE",
"555 596 CURVE",
"605 656 LINE",
"548.33 716.67 OFFCURVE",
"478 747 OFFCURVE",
"394 747 CURVE SMOOTH",
"295.33 747 OFFCURVE",
"214.67 712.67 OFFCURVE",
"152 644 CURVE SMOOTH",
"89.33 575.33 OFFCURVE",
"58 482.67 OFFCURVE",
"58 366 CURVE SMOOTH",
"58 248.67 OFFCURVE",
"88.5 156.17 OFFCURVE",
"149.5 88.5 CURVE SMOOTH",
"210.5 20.83 OFFCURVE",
"290 -13 OFFCURVE",
"388 -13 CURVE SMOOTH"
);
}
);
vertWidth = 1000;
width = 689;
}
);
note = G;
unicode = 0047;
},
{
glyphname = H;
layers = (
{
hints = (
{
horizontal = 1;
place = "{0, 21}";
target = up;
type = BottomGhost;
},
{
horizontal = 1;
place = "{346, 80}";
type = Stem;
},
{
horizontal = 1;
place = "{733, -20}";
target = down;
type = TopGhost;
},
{
place = "{100, 93}";
type = Stem;
},
{
place = "{535, 92}";
type = Stem;
}
);
layerId = "077E5A87-ACC6-4633-A27C-E6914C382A59";
paths = (
{
closed = 1;
nodes = (
"100 733 LINE",
"100 0 LINE",
"193 0 LINE",
"193 346 LINE",
"535 346 LINE",
"535 0 LINE",
"627 0 LINE",
"627 733 LINE",
"535 733 LINE",
"535 426 LINE",
"193 426 LINE",
"193 733 LINE"
);
}
);
vertWidth = 1000;
width = 728;
}
);
note = H;
unicode = 0048;
},
{
glyphname = I;
layers = (
{
hints = (
{
horizontal = 1;
place = "{0, 21}";
target = up;
type = BottomGhost;
},
{
horizontal = 1;
place = "{733, -20}";
target = down;
type = TopGhost;
},
{
place = "{100, 93}";
type = Stem;
}
);
layerId = "077E5A87-ACC6-4633-A27C-E6914C382A59";
paths = (
{
closed = 1;
nodes = (
"100 733 LINE",
"100 0 LINE",
"193 0 LINE",
"193 733 LINE"
);
}
);
vertWidth = 1000;
width = 293;
}
);
note = I;
unicode = 0049;
},
{
glyphname = J;
layers = (
{
hints = (
{
horizontal = 1;
place = "{-13, 81}";
type = Stem;
},
{
horizontal = 1;
place = "{733, -20}";
target = down;
type = TopGhost;
},
{
place = "{346, 92}";
type = Stem;
}
);
layerId = "077E5A87-ACC6-4633-A27C-E6914C382A59";
paths = (
{
closed = 1;
nodes = (
"305 -13 OFFCURVE",
"355.5 8 OFFCURVE",
"388.5 50 CURVE SMOOTH",
"421.5 92 OFFCURVE",
"438 147 OFFCURVE",
"438 215 CURVE SMOOTH",
"438 733 LINE",
"346 733 LINE",
"346 224 LINE SMOOTH",
"346 169.33 OFFCURVE",
"336.33 129.67 OFFCURVE",
"317 105 CURVE SMOOTH",
"297.67 80.33 OFFCURVE",
"268 68 OFFCURVE",
"228 68 CURVE SMOOTH",
"174.67 68 OFFCURVE",
"132.33 95.33 OFFCURVE",
"101 150 CURVE",
"35 103 LINE",
"79 25.67 OFFCURVE",
"146.33 -13 OFFCURVE",
"237 -13 CURVE SMOOTH"
);
}
);
vertWidth = 1000;
width = 536;
}
);
note = J;
unicode = 004A;
},
{
glyphname = K;
layers = (
{
hints = (
{
horizontal = 1;
place = "{0, 21}";
target = up;
type = BottomGhost;
},
{
horizontal = 1;
place = "{733, -20}";
target = down;
type = TopGhost;
},
{
place = "{100, 93}";
type = Stem;
}
);
layerId = "077E5A87-ACC6-4633-A27C-E6914C382A59";
paths = (
{
closed = 1;
nodes = (
"100 733 LINE",
"100 0 LINE",
"193 0 LINE",
"193 232 LINE",
"319 382 LINE",
"538 0 LINE",
"642 0 LINE",
"377 454 LINE",
"606 733 LINE",
"502 733 LINE",
"196 365 LINE",
"193 365 LINE",
"193 733 LINE"
);
}
);
vertWidth = 1000;
width = 646;
}
);
note = K;
unicode = 004B;
},
{
glyphname = L;
layers = (
{
hints = (
{
horizontal = 1;
place = "{0, 79}";
type = Stem;
},
{
horizontal = 1;
place = "{733, -20}";
target = down;
type = TopGhost;
},
{
place = "{100, 93}";
type = Stem;
}
);
layerId = "077E5A87-ACC6-4633-A27C-E6914C382A59";
paths = (
{
closed = 1;
nodes = (
"100 733 LINE",
"100 0 LINE",
"513 0 LINE",
"513 79 LINE",
"193 79 LINE",
"193 733 LINE"
);
}
);
vertWidth = 1000;
width = 542;
}
);
note = L;
unicode = 004C;
},
{
glyphname = M;
layers = (
{
hints = (
{
horizontal = 1;
place = "{0, 21}";
target = up;
type = BottomGhost;
},
{
horizontal = 1;
place = "{74, 114}";
type = Stem;
},
{
horizontal = 1;
place = "{622, 111}";
type = Stem;
},
{
place = "{100, 84}";
type = Stem;
},
{
place = "{625, 87}";
type = Stem;
}
);
layerId = "077E5A87-ACC6-4633-A27C-E6914C382A59";
paths = (
{
closed = 1;
nodes = (
"100 733 LINE",
"100 0 LINE",
"184 0 LINE",
"184 406 LINE SMOOTH",
"184 432.67 OFFCURVE",
"180.33 504.67 OFFCURVE",
"173 622 CURVE",
"177 622 LINE",
"235 455 LINE",
"374 74 LINE",
"436 74 LINE",
"575 455 LINE",
"633 622 LINE",
"637 622 LINE",
"629 519.33 OFFCURVE",
"625 447.33 OFFCURVE",
"625 406 CURVE SMOOTH",
"625 0 LINE",
"712 0 LINE",
"712 733 LINE",
"600 733 LINE",
"460 341 LINE SMOOTH",
"454.67 324.33 OFFCURVE",
"446.33 299 OFFCURVE",
"435 265 CURVE SMOOTH",
"423.67 231 OFFCURVE",
"415.33 205.33 OFFCURVE",
"410 188 CURVE",
"405 188 LINE",
"393 222 OFFCURVE",
"375.67 273 OFFCURVE",
"353 341 CURVE SMOOTH",
"212 733 LINE"
);
}
);
vertWidth = 1000;
width = 812;
}
);
note = M;
unicode = 004D;
},
{
glyphname = N;
layers = (
{
hints = (
{
horizontal = 1;
place = "{0, 120}";
type = Stem;
},
{
horizontal = 1;
place = "{614, 119}";
type = Stem;
},
{
place = "{100, 88}";
type = Stem;
},
{
place = "{534, 88}";
type = Stem;
}
);
layerId = "077E5A87-ACC6-4633-A27C-E6914C382A59";
paths = (
{
closed = 1;
nodes = (
"100 733 LINE",
"100 0 LINE",
"188 0 LINE",
"188 385 LINE SMOOTH",
"188 401.67 OFFCURVE",
"184.33 478 OFFCURVE",
"177 614 CURVE",
"181 614 LINE",
"260 463 LINE",
"527 0 LINE",
"622 0 LINE",
"622 733 LINE",
"534 733 LINE",
"534 352 LINE SMOOTH",
"534 316 OFFCURVE",
"538 238.67 OFFCURVE",
"546 120 CURVE",
"541 120 LINE",
"463 271 LINE",
"196 733 LINE"
);
}
);
vertWidth = 1000;
width = 722;
}
);
note = N;
unicode = 004E;
},
{
glyphname = O;
layers = (
{
hints = (
{
horizontal = 1;
place = "{-13, 81}";
type = Stem;
},
{
horizontal = 1;
place = "{666, 81}";
type = Stem;
},
{
place = "{58, 95}";
type = Stem;
},
{
place = "{589, 95}";
type = Stem;
}
);
layerId = "077E5A87-ACC6-4633-A27C-E6914C382A59";
paths = (
{
closed = 1;
nodes = (
"464.33 -13 OFFCURVE",
"539.83 21.67 OFFCURVE",
"597.5 91 CURVE SMOOTH",
"655.17 160.33 OFFCURVE",
"684 253 OFFCURVE",
"684 369 CURVE SMOOTH",
"684 485 OFFCURVE",
"655.17 577 OFFCURVE",
"597.5 645 CURVE SMOOTH",
"539.83 713 OFFCURVE",
"464.33 747 OFFCURVE",
"371 747 CURVE SMOOTH",
"277.67 747 OFFCURVE",
"202.17 713 OFFCURVE",
"144.5 645 CURVE SMOOTH",
"86.83 577 OFFCURVE",
"58 485 OFFCURVE",
"58 369 CURVE SMOOTH",
"58 253 OFFCURVE",
"86.83 160.33 OFFCURVE",
"144.5 91 CURVE SMOOTH",
"202.17 21.67 OFFCURVE",
"277.67 -13 OFFCURVE",
"371 -13 CURVE SMOOTH"
);
},
{
closed = 1;
nodes = (
"305 68 OFFCURVE",
"252.17 95.33 OFFCURVE",
"212.5 150 CURVE SMOOTH",
"172.83 204.67 OFFCURVE",
"153 277.67 OFFCURVE",
"153 369 CURVE SMOOTH",
"153 460.33 OFFCURVE",
"172.67 532.67 OFFCURVE",
"212 586 CURVE SMOOTH",
"251.33 639.33 OFFCURVE",
"304.33 666 OFFCURVE",
"371 666 CURVE SMOOTH",
"437 666 OFFCURVE",
"489.83 639.33 OFFCURVE",
"529.5 586 CURVE SMOOTH",
"569.17 532.67 OFFCURVE",
"589 460.33 OFFCURVE",
"589 369 CURVE SMOOTH",
"589 277.67 OFFCURVE",
"569.17 204.67 OFFCURVE",
"529.5 150 CURVE SMOOTH",
"489.83 95.33 OFFCURVE",
"437 68 OFFCURVE",
"371 68 CURVE SMOOTH"
);
}
);
vertWidth = 1000;
width = 742;
}
);
note = O;
unicode = 004F;
},
{
glyphname = P;
layers = (
{
hints = (
{
horizontal = 1;
place = "{0, 21}";
target = up;
type = BottomGhost;
},
{
horizontal = 1;
place = "{291, 75}";
type = Stem;
},
{
horizontal = 1;
place = "{658, 75}";
type = Stem;
},
{
place = "{100, 93}";
type = Stem;
},
{
place = "{492, 92}";
type = Stem;
}
);
layerId = "077E5A87-ACC6-4633-A27C-E6914C382A59";
paths = (
{
closed = 1;
nodes = (
"100 733 LINE",
"100 0 LINE",
"193 0 LINE",
"193 291 LINE",
"314 291 LINE SMOOTH",
"397.33 291 OFFCURVE",
"463.17 310 OFFCURVE",
"511.5 348 CURVE SMOOTH",
"559.83 386 OFFCURVE",
"584 442.67 OFFCURVE",
"584 518 CURVE SMOOTH",
"584 661.33 OFFCURVE",
"492.33 733 OFFCURVE",
"309 733 CURVE SMOOTH"
);
},
{
closed = 1;
nodes = (
"193 366 LINE",
"193 658 LINE",
"298 658 LINE SMOOTH",
"364.67 658 OFFCURVE",
"413.67 647.5 OFFCURVE",
"445 626.5 CURVE SMOOTH",
"476.33 605.5 OFFCURVE",
"492 569.33 OFFCURVE",
"492 518 CURVE SMOOTH",
"492 466 OFFCURVE",
"476.5 427.67 OFFCURVE",
"445.5 403 CURVE SMOOTH",
"414.5 378.33 OFFCURVE",
"366.67 366 OFFCURVE",
"302 366 CURVE SMOOTH"
);
}
);
vertWidth = 1000;
width = 632;
}
);
note = P;
unicode = 0050;
},
{
glyphname = Q;
layers = (
{
hints = (
{
horizontal = 1;
place = "{-184, 77}";
type = Stem;
},
{
horizontal = 1;
place = "{-9, 72}";
type = Stem;
},
{
horizontal = 1;
place = "{666, 81}";
type = Stem;
},
{
place = "{58, 95}";
type = Stem;
},
{
place = "{589, 95}";
type = Stem;
}
);
layerId = "077E5A87-ACC6-4633-A27C-E6914C382A59";
paths = (
{
closed = 1;
nodes = (
"153 460.33 OFFCURVE",
"172.67 532.67 OFFCURVE",
"212 586 CURVE SMOOTH",
"251.33 639.33 OFFCURVE",
"304.33 666 OFFCURVE",
"371 666 CURVE SMOOTH",
"437 666 OFFCURVE",
"489.83 639.33 OFFCURVE",
"529.5 586 CURVE SMOOTH",
"569.17 532.67 OFFCURVE",
"589 460.33 OFFCURVE",
"589 369 CURVE SMOOTH",
"589 275.67 OFFCURVE",
"569.17 201.33 OFFCURVE",
"529.5 146 CURVE SMOOTH",
"489.83 90.67 OFFCURVE",
"437 63 OFFCURVE",
"371 63 CURVE SMOOTH",
"305 63 OFFCURVE",
"252.17 90.67 OFFCURVE",
"212.5 146 CURVE SMOOTH",
"172.83 201.33 OFFCURVE",
"153 275.67 OFFCURVE",
"153 369 CURVE SMOOTH"
);
},
{
closed = 1;
nodes = (
"682 -96 LINE",
"658.67 -103.33 OFFCURVE",
"633 -107 OFFCURVE",
"605 -107 CURVE SMOOTH",
"518.33 -107 OFFCURVE",
"458.33 -74.33 OFFCURVE",
"425 -9 CURVE",
"503.67 5 OFFCURVE",
"566.5 45.5 OFFCURVE",
"613.5 112.5 CURVE SMOOTH",
"660.5 179.5 OFFCURVE",
"684 265 OFFCURVE",
"684 369 CURVE SMOOTH",
"684 485 OFFCURVE",
"655.17 577 OFFCURVE",
"597.5 645 CURVE SMOOTH",
"539.83 713 OFFCURVE",
"464.33 747 OFFCURVE",
"371 747 CURVE SMOOTH",
"277.67 747 OFFCURVE",
"202.17 713 OFFCURVE",
"144.5 645 CURVE SMOOTH",
"86.83 577 OFFCURVE",
"58 485 OFFCURVE",
"58 369 CURVE SMOOTH",
"58 263 OFFCURVE",
"82.33 176.17 OFFCURVE",
"131 108.5 CURVE SMOOTH",
"179.67 40.83 OFFCURVE",
"244.67 1.33 OFFCURVE",
"326 -10 CURVE",
"347.33 -62.67 OFFCURVE",
"381.17 -104.83 OFFCURVE",
"427.5 -136.5 CURVE SMOOTH",
"473.83 -168.17 OFFCURVE",
"529.67 -184 OFFCURVE",
"595 -184 CURVE SMOOTH",
"635.67 -184 OFFCURVE",
"670.67 -178.67 OFFCURVE",
"700 -168 CURVE"
);
}
);
vertWidth = 1000;
width = 742;
}
);
note = Q;
unicode = 0051;
},
{
glyphname = R;
layers = (
{
hints = (
{
horizontal = 1;
place = "{0, 21}";
target = up;
type = BottomGhost;
},
{
horizontal = 1;
place = "{311, 75}";
type = Stem;
},
{
horizontal = 1;
place = "{658, 75}";
type = Stem;
},
{
place = "{100, 93}";
type = Stem;
},
{
place = "{494, 92}";
type = Stem;
}
);
layerId = "077E5A87-ACC6-4633-A27C-E6914C382A59";
paths = (
{
closed = 1;
nodes = (
"193 386 LINE",
"193 658 LINE",
"316 658 LINE SMOOTH",
"376 658 OFFCURVE",
"420.67 647.83 OFFCURVE",
"450 627.5 CURVE SMOOTH",
"479.33 607.17 OFFCURVE",
"494 573.67 OFFCURVE",
"494 527 CURVE SMOOTH",
"494 433 OFFCURVE",
"434.67 386 OFFCURVE",
"316 386 CURVE SMOOTH"
);
},
{
closed = 1;
nodes = (
"503 0 LINE",
"608 0 LINE",
"420 321 LINE",
"472 333.67 OFFCURVE",
"512.67 357.33 OFFCURVE",
"542 392 CURVE SMOOTH",
"571.33 426.67 OFFCURVE",
"586 471.67 OFFCURVE",
"586 527 CURVE SMOOTH",
"586 664.33 OFFCURVE",
"500.67 733 OFFCURVE",
"330 733 CURVE SMOOTH",
"100 733 LINE",
"100 0 LINE",
"193 0 LINE",
"193 311 LINE",
"325 311 LINE"
);
}
);
vertWidth = 1000;
width = 635;
}
);
note = R;
unicode = 0052;
},
{
glyphname = S;
layers = (
{
hints = (
{
horizontal = 1;
place = "{-13, 81}";
type = Stem;
},
{
horizontal = 1;
place = "{666, 81}";
type = Stem;
},
{
place = "{82, 94}";
type = Stem;
},
{
place = "{459, 94}";
type = Stem;
}
);
layerId = "077E5A87-ACC6-4633-A27C-E6914C382A59";
paths = (
{
closed = 1;
nodes = (
"378.67 -13 OFFCURVE",
"438.83 6.83 OFFCURVE",
"484.5 46.5 CURVE SMOOTH",
"530.17 86.17 OFFCURVE",
"553 135.67 OFFCURVE",
"553 195 CURVE SMOOTH",
"553 245.67 OFFCURVE",
"540 285.67 OFFCURVE",
"514 315 CURVE SMOOTH",
"488 344.33 OFFCURVE",
"450.67 369.67 OFFCURVE",
"402 391 CURVE SMOOTH",
"297 436 LINE SMOOTH",
"281.67 442.67 OFFCURVE",
"270 447.83 OFFCURVE",
"262 451.5 CURVE SMOOTH",
"254 455.17 OFFCURVE",
"243.5 460.83 OFFCURVE",
"230.5 468.5 CURVE SMOOTH",
"217.5 476.17 OFFCURVE",
"207.83 483.83 OFFCURVE",
"201.5 491.5 CURVE SMOOTH",
"195.17 499.17 OFFCURVE",
"189.33 508.83 OFFCURVE",
"184 520.5 CURVE SMOOTH",
"178.67 532.17 OFFCURVE",
"176 544.67 OFFCURVE",
"176 558 CURVE SMOOTH",
"176 590.67 OFFCURVE",
"188.5 616.83 OFFCURVE",
"213.5 636.5 CURVE SMOOTH",
"238.5 656.17 OFFCURVE",
"271.67 666 OFFCURVE",
"313 666 CURVE SMOOTH",
"375 666 OFFCURVE",
"430.67 643 OFFCURVE",
"480 597 CURVE",
"529 656 LINE",
"470.33 716.67 OFFCURVE",
"398.33 747 OFFCURVE",
"313 747 CURVE SMOOTH",
"246.33 747 OFFCURVE",
"191.17 728.67 OFFCURVE",
"147.5 692 CURVE SMOOTH",
"103.83 655.33 OFFCURVE",
"82 608.67 OFFCURVE",
"82 552 CURVE SMOOTH",
"82 469.33 OFFCURVE",
"131.67 406.67 OFFCURVE",
"231 364 CURVE SMOOTH",
"337 318 LINE SMOOTH",
"359 308 OFFCURVE",
"375.33 300.17 OFFCURVE",
"386 294.5 CURVE SMOOTH",
"396.67 288.83 OFFCURVE",
"408.83 280.83 OFFCURVE",
"422.5 270.5 CURVE SMOOTH",
"436.17 260.17 OFFCURVE",
"445.67 248.33 OFFCURVE",
"451 235 CURVE SMOOTH",
"456.33 221.67 OFFCURVE",
"459 206 OFFCURVE",
"459 188 CURVE SMOOTH",
"459 151.33 OFFCURVE",
"445.17 122.17 OFFCURVE",
"417.5 100.5 CURVE SMOOTH",
"389.83 78.83 OFFCURVE",
"352.33 68 OFFCURVE",
"305 68 CURVE SMOOTH",
"228.33 68 OFFCURVE",
"160.67 98.33 OFFCURVE",
"102 159 CURVE",
"47 96 LINE",
"116.33 23.33 OFFCURVE",
"202 -13 OFFCURVE",
"304 -13 CURVE SMOOTH"
);
}
);
vertWidth = 1000;
width = 597;
}
);
note = S;
unicode = 0053;
},
{
glyphname = T;
layers = (
{
hints = (
{
horizontal = 1;
place = "{0, 21}";
target = up;
type = BottomGhost;
},
{
horizontal = 1;
place = "{655, 78}";
type = Stem;
},
{
place = "{253, 93}";
type = Stem;
}
);
layerId = "077E5A87-ACC6-4633-A27C-E6914C382A59";
paths = (
{
closed = 1;
nodes = (
"253 655 LINE",
"253 0 LINE",
"346 0 LINE",
"346 655 LINE",
"568 655 LINE",
"568 733 LINE",
"31 733 LINE",
"31 655 LINE"
);
}
);
vertWidth = 1000;
width = 599;
}
);
note = T;
unicode = 0054;
},
{
glyphname = U;
layers = (
{
hints = (
{
horizontal = 1;
place = "{-13, 81}";
type = Stem;
},
{
horizontal = 1;
place = "{733, -20}";
target = down;
type = TopGhost;
},
{
place = "{97, 93}";
type = Stem;
},
{
place = "{535, 89}";
type = Stem;
}
);
layerId = "077E5A87-ACC6-4633-A27C-E6914C382A59";
paths = (
{
closed = 1;
nodes = (
"441.33 -13 OFFCURVE",
"505.67 11.83 OFFCURVE",
"553 61.5 CURVE SMOOTH",
"600.33 111.17 OFFCURVE",
"624 191.67 OFFCURVE",
"624 303 CURVE SMOOTH",
"624 733 LINE",
"535 733 LINE",
"535 300 LINE SMOOTH",
"535 145.33 OFFCURVE",
"476.67 68 OFFCURVE",
"360 68 CURVE SMOOTH",
"246.67 68 OFFCURVE",
"190 145.33 OFFCURVE",
"190 300 CURVE SMOOTH",
"190 733 LINE",
"97 733 LINE",
"97 303 LINE SMOOTH",
"97 191.67 OFFCURVE",
"120.67 111.17 OFFCURVE",
"168 61.5 CURVE SMOOTH",
"215.33 11.83 OFFCURVE",
"279.33 -13 OFFCURVE",
"360 -13 CURVE SMOOTH"
);
}
);
vertWidth = 1000;
width = 721;
}
);
note = U;
unicode = 0055;
},
{
glyphname = V;
layers = (
{
hints = (
{
horizontal = 1;
place = "{0, 94}";
type = Stem;
},
{
horizontal = 1;
place = "{733, -20}";
target = down;
type = TopGhost;
},
{
place = "{1, 574}";
type = Stem;
}
);
layerId = "077E5A87-ACC6-4633-A27C-E6914C382A59";
paths = (
{
closed = 1;
nodes = (
"1 733 LINE",
"235 0 LINE",
"342 0 LINE",
"575 733 LINE",
"481 733 LINE",
"363 336 LINE SMOOTH",
"355.67 312 OFFCURVE",
"344.5 273.5 OFFCURVE",
"329.5 220.5 CURVE SMOOTH",
"314.5 167.5 OFFCURVE",
"302 125.33 OFFCURVE",
"292 94 CURVE",
"288 94 LINE",
"277.33 126.67 OFFCURVE",
"264.33 170 OFFCURVE",
"249 224 CURVE SMOOTH",
"233.67 278 OFFCURVE",
"223 315.33 OFFCURVE",
"217 336 CURVE SMOOTH",
"98 733 LINE"
);
}
);
vertWidth = 1000;
width = 575;
}
);
note = V;
unicode = 0056;
},
{
glyphname = W;
layers = (
{
hints = (
{
horizontal = 1;
place = "{0, 97}";
type = Stem;
},
{
horizontal = 1;
place = "{609, 124}";
type = Stem;
},
{
place = "{25, 826}";
type = Stem;
}
);
layerId = "077E5A87-ACC6-4633-A27C-E6914C382A59";
paths = (
{
closed = 1;
nodes = (
"25 733 LINE",
"181 0 LINE",
"291 0 LINE",
"400 442 LINE SMOOTH",
"404.67 463.33 OFFCURVE",
"411.17 492.5 OFFCURVE",
"419.5 529.5 CURVE SMOOTH",
"427.83 566.5 OFFCURVE",
"433.67 593 OFFCURVE",
"437 609 CURVE",
"441 609 LINE",
"461.67 512.33 OFFCURVE",
"473.67 456.67 OFFCURVE",
"477 442 CURVE SMOOTH",
"588 0 LINE",
"699 0 LINE",
"851 733 LINE",
"762 733 LINE",
"685 334 LINE SMOOTH",
"671 256 OFFCURVE",
"657 177 OFFCURVE",
"643 97 CURVE",
"638 97 LINE",
"617.33 195 OFFCURVE",
"600 274 OFFCURVE",
"586 334 CURVE SMOOTH",
"483 733 LINE",
"399 733 LINE",
"298 334 LINE SMOOTH",
"274 228.67 OFFCURVE",
"256.33 149.67 OFFCURVE",
"245 97 CURVE",
"241 97 LINE",
"236.33 123 OFFCURVE",
"229.17 162.33 OFFCURVE",
"219.5 215 CURVE SMOOTH",
"209.83 267.67 OFFCURVE",
"202.67 307.33 OFFCURVE",
"198 334 CURVE SMOOTH",
"121 733 LINE"
);
}
);
vertWidth = 1000;
width = 878;
}
);
note = W;
unicode = 0057;
},
{
glyphname = X;
layers = (
{
hints = (
{
horizontal = 1;
place = "{0, 21}";
target = up;
type = BottomGhost;
},
{
horizontal = 1;
place = "{733, -20}";
target = down;
type = TopGhost;
},
{
place = "{17, 539}";
type = Stem;
}
);
layerId = "077E5A87-ACC6-4633-A27C-E6914C382A59";
paths = (
{
closed = 1;
nodes = (
"231 379 LINE",
"17 0 LINE",
"114 0 LINE",
"220 198 LINE SMOOTH",
"238.67 233.33 OFFCURVE",
"258.33 272.67 OFFCURVE",
"279 316 CURVE",
"283 316 LINE",
"297.67 288.67 OFFCURVE",
"318.67 249.33 OFFCURVE",
"346 198 CURVE SMOOTH",
"454 0 LINE",
"556 0 LINE",
"342 374 LINE",
"542 733 LINE",
"445 733 LINE",
"347 546 LINE SMOOTH",
"340.33 532.67 OFFCURVE",
"323 497 OFFCURVE",
"295 439 CURVE",
"291 439 LINE",
"282.33 454.33 OFFCURVE",
"271.83 473.67 OFFCURVE",
"259.5 497 CURVE SMOOTH",
"247.17 520.33 OFFCURVE",
"238.33 536.67 OFFCURVE",
"233 546 CURVE SMOOTH",
"133 733 LINE",
"31 733 LINE"
);
}
);
vertWidth = 1000;
width = 573;
}
);
note = X;
unicode = 0058;
},
{
glyphname = Y;
layers = (
{
hints = (
{
horizontal = 1;
place = "{0, 21}";
target = up;
type = BottomGhost;
},
{
horizontal = 1;
place = "{733, -20}";
target = down;
type = TopGhost;
},
{
place = "{219, 93}";
type = Stem;
}
);
layerId = "077E5A87-ACC6-4633-A27C-E6914C382A59";
paths = (
{
closed = 1;
nodes = (
"219 285 LINE",
"219 0 LINE",
"312 0 LINE",
"312 285 LINE",
"532 733 LINE",
"436 733 LINE",
"341 526 LINE SMOOTH",
"330.33 499.33 OFFCURVE",
"306 446 OFFCURVE",
"268 366 CURVE",
"264 366 LINE",
"254 386.67 OFFCURVE",
"230 440 OFFCURVE",
"192 526 CURVE SMOOTH",
"98 733 LINE",
"-1 733 LINE"
);
}
);
vertWidth = 1000;
width = 531;
}
);
note = Y;
unicode = 0059;
},
{
glyphname = Z;
layers = (
{
hints = (
{
horizontal = 1;
place = "{0, 79}";
type = Stem;
},
{
horizontal = 1;
place = "{655, 78}";
type = Stem;
},
{
place = "{50, 505}";
type = Stem;
}
);
layerId = "077E5A87-ACC6-4633-A27C-E6914C382A59";
paths = (
{
closed = 1;
nodes = (
"50 55 LINE",
"50 0 LINE",
"555 0 LINE",
"555 79 LINE",
"164 79 LINE",
"551 679 LINE",
"551 733 LINE",
"85 733 LINE",
"85 655 LINE",
"437 655 LINE"
);
}
);
vertWidth = 1000;
width = 603;
}
);
note = Z;
unicode = 005A;
},
{
glyphname = a;
layers = (
{
hints = (
{
horizontal = 1;
place = "{-13, 73}";
type = Stem;
},
{
horizontal = 1;
place = "{481, 76}";
type = Stem;
},
{
place = "{58, 89}";
type = Stem;
},
{
place = "{392, 91}";
type = Stem;
},
{
horizontal = 1;
place = "{0, 21}";
target = up;
type = BottomGhost;
}
);
layerId = "077E5A87-ACC6-4633-A27C-E6914C382A59";
paths = (
{
closed = 1;
nodes = (
"274.33 -13 OFFCURVE",
"334.33 13 OFFCURVE",
"397 65 CURVE",
"400 65 LINE",
"408 0 LINE",
"483 0 LINE",
"483 334 LINE SMOOTH",
"483 404 OFFCURVE",
"467.67 458.67 OFFCURVE",
"437 498 CURVE SMOOTH",
"406.33 537.33 OFFCURVE",
"359 557 OFFCURVE",
"295 557 CURVE SMOOTH",
"226.33 557 OFFCURVE",
"155 533.33 OFFCURVE",
"81 486 CURVE",
"117 423 LINE",
"174.33 461.67 OFFCURVE",
"228.67 481 OFFCURVE",
"280 481 CURVE SMOOTH",
"354.67 481 OFFCURVE",
"392 435.33 OFFCURVE",
"392 344 CURVE",
"275.33 330.67 OFFCURVE",
"190.5 308.17 OFFCURVE",
"137.5 276.5 CURVE SMOOTH",
"84.5 244.83 OFFCURVE",
"58 199.67 OFFCURVE",
"58 141 CURVE SMOOTH",
"58 93 OFFCURVE",
"72.83 55.33 OFFCURVE",
"102.5 28 CURVE SMOOTH",
"132.17 0.67 OFFCURVE",
"170.33 -13 OFFCURVE",
"217 -13 CURVE SMOOTH"
);
},
{
closed = 1;
nodes = (
"214.33 60 OFFCURVE",
"191.17 67.17 OFFCURVE",
"173.5 81.5 CURVE SMOOTH",
"155.83 95.83 OFFCURVE",
"147 117.67 OFFCURVE",
"147 147 CURVE SMOOTH",
"147 183.67 OFFCURVE",
"165.67 213 OFFCURVE",
"203 235 CURVE SMOOTH",
"240.33 257 OFFCURVE",
"303.33 273.33 OFFCURVE",
"392 284 CURVE",
"392 132 LINE",
"338 84 OFFCURVE",
"288.33 60 OFFCURVE",
"243 60 CURVE SMOOTH"
);
}
);
vertWidth = 1000;
width = 564;
}
);
note = a;
unicode = 0061;
},
{
glyphname = b;
layers = (
{
hints = (
{
horizontal = 1;
place = "{-13, 76}";
type = Stem;
},
{
horizontal = 1;
place = "{480, 77}";
type = Stem;
},
{
place = "{92, 91}";
type = Stem;
},
{
place = "{472, 95}";
type = Stem;
},
{
horizontal = 1;
place = "{0, 21}";
target = up;
type = BottomGhost;
}
);
layerId = "077E5A87-ACC6-4633-A27C-E6914C382A59";
paths = (
{
closed = 1;
nodes = (
"396.33 -13 OFFCURVE",
"452 13.5 OFFCURVE",
"498 66.5 CURVE SMOOTH",
"544 119.5 OFFCURVE",
"567 191 OFFCURVE",
"567 281 CURVE SMOOTH",
"567 365.67 OFFCURVE",
"548.17 432.83 OFFCURVE",
"510.5 482.5 CURVE SMOOTH",
"472.83 532.17 OFFCURVE",
"419.33 557 OFFCURVE",
"350 557 CURVE SMOOTH",
"295.33 557 OFFCURVE",
"238.67 531.33 OFFCURVE",
"180 480 CURVE",
"183 578 LINE",
"183 796 LINE",
"92 796 LINE",
"92 0 LINE",
"165 0 LINE",
"173 56 LINE",
"176 56 LINE",
"226 10 OFFCURVE",
"277.67 -13 OFFCURVE",
"331 -13 CURVE SMOOTH"
);
},
{
closed = 1;
nodes = (
"270.67 63 OFFCURVE",
"226.33 82 OFFCURVE",
"183 120 CURVE",
"183 405 LINE",
"236.33 455 OFFCURVE",
"285 480 OFFCURVE",
"329 480 CURVE SMOOTH",
"424.33 480 OFFCURVE",
"472 413 OFFCURVE",
"472 279 CURVE SMOOTH",
"472 213 OFFCURVE",
"457.5 160.5 OFFCURVE",
"428.5 121.5 CURVE SMOOTH",
"399.5 82.5 OFFCURVE",
"362 63 OFFCURVE",
"316 63 CURVE SMOOTH"
);
}
);
vertWidth = 1000;
width = 618;
}
);
note = b;
unicode = 0062;
},
{
glyphname = c;
layers = (
{
hints = (
{
horizontal = 1;
place = "{-13, 76}";
type = Stem;
},
{
horizontal = 1;
place = "{481, 76}";
type = Stem;
},
{
place = "{51, 95}";
type = Stem;
}
);
layerId = "077E5A87-ACC6-4633-A27C-E6914C382A59";
paths = (
{
closed = 1;
nodes = (
"372.67 -13 OFFCURVE",
"431 10 OFFCURVE",
"481 56 CURVE",
"442 117 LINE",
"402.67 81 OFFCURVE",
"360 63 OFFCURVE",
"314 63 CURVE SMOOTH",
"264 63 OFFCURVE",
"223.5 82 OFFCURVE",
"192.5 120 CURVE SMOOTH",
"161.5 158 OFFCURVE",
"146 208.33 OFFCURVE",
"146 271 CURVE SMOOTH",
"146 333 OFFCURVE",
"162 383.5 OFFCURVE",
"194 422.5 CURVE SMOOTH",
"226 461.5 OFFCURVE",
"266.67 481 OFFCURVE",
"316 481 CURVE SMOOTH",
"352.67 481 OFFCURVE",
"389 464.67 OFFCURVE",
"425 432 CURVE",
"472 493 LINE",
"423.33 535.67 OFFCURVE",
"370.33 557 OFFCURVE",
"313 557 CURVE SMOOTH",
"240.33 557 OFFCURVE",
"178.5 531.17 OFFCURVE",
"127.5 479.5 CURVE SMOOTH",
"76.5 427.83 OFFCURVE",
"51 358.33 OFFCURVE",
"51 271 CURVE SMOOTH",
"51 183 OFFCURVE",
"75 113.67 OFFCURVE",
"123 63 CURVE SMOOTH",
"171 12.33 OFFCURVE",
"232 -13 OFFCURVE",
"306 -13 CURVE SMOOTH"
);
}
);
vertWidth = 1000;
width = 509;
}
);
note = c;
unicode = 0063;
},
{
glyphname = d;
layers = (
{
hints = (
{
horizontal = 1;
place = "{-13, 76}";
type = Stem;
},
{
horizontal = 1;
place = "{480, 77}";
type = Stem;
},
{
place = "{53, 94}";
type = Stem;
},
{
place = "{436, 91}";
type = Stem;
},
{
horizontal = 1;
place = "{0, 21}";
target = up;
type = BottomGhost;
}
);
layerId = "077E5A87-ACC6-4633-A27C-E6914C382A59";
paths = (
{
closed = 1;
nodes = (
"334.33 -13 OFFCURVE",
"389.33 12.67 OFFCURVE",
"442 64 CURVE",
"444 64 LINE",
"453 0 LINE",
"527 0 LINE",
"527 796 LINE",
"436 796 LINE",
"436 587 LINE",
"441 493 LINE",
"414.33 515 OFFCURVE",
"389.67 531.17 OFFCURVE",
"367 541.5 CURVE SMOOTH",
"344.33 551.83 OFFCURVE",
"318 557 OFFCURVE",
"288 557 CURVE SMOOTH",
"223.33 557 OFFCURVE",
"168 530.67 OFFCURVE",
"122 478 CURVE SMOOTH",
"76 425.33 OFFCURVE",
"53 356.33 OFFCURVE",
"53 271 CURVE SMOOTH",
"53 181.67 OFFCURVE",
"73.17 112 OFFCURVE",
"113.5 62 CURVE SMOOTH",
"153.83 12 OFFCURVE",
"208.33 -13 OFFCURVE",
"277 -13 CURVE SMOOTH"
);
},
{
closed = 1;
nodes = (
"249 63 OFFCURVE",
"212 81.33 OFFCURVE",
"186 118 CURVE SMOOTH",
"160 154.67 OFFCURVE",
"147 206 OFFCURVE",
"147 272 CURVE SMOOTH",
"147 333.33 OFFCURVE",
"162 383.33 OFFCURVE",
"192 422 CURVE SMOOTH",
"222 460.67 OFFCURVE",
"259.33 480 OFFCURVE",
"304 480 CURVE SMOOTH",
"349.33 480 OFFCURVE",
"393.33 461 OFFCURVE",
"436 423 CURVE",
"436 138 LINE",
"390.67 88 OFFCURVE",
"344.33 63 OFFCURVE",
"297 63 CURVE SMOOTH"
);
}
);
vertWidth = 1000;
width = 620;
}
);
note = d;
unicode = 0064;
},
{
glyphname = e;
layers = (
{
hints = (
{
horizontal = 1;
place = "{-13, 73}";
type = Stem;
},
{
horizontal = 1;
place = "{250, 65}";
type = Stem;
},
{
horizontal = 1;
place = "{484, 73}";
type = Stem;
},
{
place = "{51, 90}";
type = Stem;
},
{
place = "{432, 80}";
type = Stem;
}
);
layerId = "077E5A87-ACC6-4633-A27C-E6914C382A59";
paths = (
{
closed = 1;
nodes = (
"373 -13 OFFCURVE",
"433 5.67 OFFCURVE",
"491 43 CURVE",
"458 103 LINE",
"415.33 74.33 OFFCURVE",
"370 60 OFFCURVE",
"322 60 CURVE SMOOTH",
"270.67 60 OFFCURVE",
"228.5 77.17 OFFCURVE",
"195.5 111.5 CURVE SMOOTH",
"162.5 145.83 OFFCURVE",
"144.67 192 OFFCURVE",
"142 250 CURVE",
"508 250 LINE",
"510.67 267.33 OFFCURVE",
"512 284.67 OFFCURVE",
"512 302 CURVE SMOOTH",
"512 380.67 OFFCURVE",
"493 442.83 OFFCURVE",
"455 488.5 CURVE SMOOTH",
"417 534.17 OFFCURVE",
"364 557 OFFCURVE",
"296 557 CURVE SMOOTH",
"230 557 OFFCURVE",
"172.67 530.5 OFFCURVE",
"124 477.5 CURVE SMOOTH",
"75.33 424.5 OFFCURVE",
"51 355.67 OFFCURVE",
"51 271 CURVE SMOOTH",
"51 184.33 OFFCURVE",
"75.67 115.33 OFFCURVE",
"125 64 CURVE SMOOTH",
"174.33 12.67 OFFCURVE",
"236.33 -13 OFFCURVE",
"311 -13 CURVE SMOOTH"
);
},
{
closed = 1;
nodes = (
"141 315 LINE",
"146.33 367 OFFCURVE",
"163.67 408.17 OFFCURVE",
"193 438.5 CURVE SMOOTH",
"222.33 468.83 OFFCURVE",
"257 484 OFFCURVE",
"297 484 CURVE SMOOTH",
"339.67 484 OFFCURVE",
"372.83 469.5 OFFCURVE",
"396.5 440.5 CURVE SMOOTH",
"420.17 411.5 OFFCURVE",
"432 369.67 OFFCURVE",
"432 315 CURVE"
);
}
);
vertWidth = 1000;
width = 554;
}
);
note = e;
unicode = 0065;
},
{
glyphname = f;
layers = (
{
hints = (
{
horizontal = 1;
place = "{0, 21}";
target = up;
type = BottomGhost;
},
{
horizontal = 1;
place = "{469, 74}";
type = Stem;
},
{
horizontal = 1;
place = "{736, 73}";
type = Stem;
},
{
place = "{107, 91}";
type = Stem;
}
);
layerId = "077E5A87-ACC6-4633-A27C-E6914C382A59";
paths = (
{
closed = 1;
nodes = (
"356 791 LINE",
"327.33 803 OFFCURVE",
"297 809 OFFCURVE",
"265 809 CURVE SMOOTH",
"212.33 809 OFFCURVE",
"172.83 793.33 OFFCURVE",
"146.5 762 CURVE SMOOTH",
"120.17 730.67 OFFCURVE",
"107 686.67 OFFCURVE",
"107 630 CURVE SMOOTH",
"107 543 LINE",
"33 538 LINE",
"33 469 LINE",
"107 469 LINE",
"107 0 LINE",
"198 0 LINE",
"198 469 LINE",
"313 469 LINE",
"313 543 LINE",
"198 543 LINE",
"198 629 LINE SMOOTH",
"198 700.33 OFFCURVE",
"223.67 736 OFFCURVE",
"275 736 CURVE SMOOTH",
"295 736 OFFCURVE",
"315.33 731.33 OFFCURVE",
"336 722 CURVE"
);
}
);
vertWidth = 1000;
width = 325;
}
);
note = f;
unicode = 0066;
},
{
glyphname = g;
layers = (
{
hints = (
{
horizontal = 1;
place = "{-250, 62}";
type = Stem;
},
{
horizontal = 1;
place = "{-9, 76}";
type = Stem;
},
{
horizontal = 1;
place = "{172, 62}";
type = Stem;
},
{
horizontal = 1;
place = "{473, 70}";
type = Stem;
},
{
place = "{390, 83}";
type = Stem;
},
{
place = "{81, 78}";
type = Stem;
},
{
place = "{461, 88}";
type = Stem;
},
{
place = "{71, 88}";
type = Stem;
},
{
horizontal = 1;
place = "{490, 67}";
type = Stem;
},
{
place = "{50, 80}";
type = Stem;
},
{
horizontal = 1;
place = "{0, 21}";
target = up;
type = BottomGhost;
}
);
layerId = "077E5A87-ACC6-4633-A27C-E6914C382A59";
paths = (
{
closed = 1;
nodes = (
"356.33 -250 OFFCURVE",
"422.33 -231.67 OFFCURVE",
"473 -195 CURVE SMOOTH",
"523.67 -158.33 OFFCURVE",
"549 -114 OFFCURVE",
"549 -62 CURVE SMOOTH",
"549 24 OFFCURVE",
"486 67 OFFCURVE",
"360 67 CURVE SMOOTH",
"254 67 LINE SMOOTH",
"190.67 67 OFFCURVE",
"159 86.67 OFFCURVE",
"159 126 CURVE SMOOTH",
"159 149.33 OFFCURVE",
"170.67 171 OFFCURVE",
"194 191 CURVE",
"219.33 178.33 OFFCURVE",
"246.33 172 OFFCURVE",
"275 172 CURVE SMOOTH",
"331.67 172 OFFCURVE",
"378.83 189.33 OFFCURVE",
"416.5 224 CURVE SMOOTH",
"454.17 258.67 OFFCURVE",
"473 304.33 OFFCURVE",
"473 361 CURVE SMOOTH",
"473 407.67 OFFCURVE",
"458.33 445 OFFCURVE",
"429 473 CURVE",
"540 473 LINE",
"540 543 LINE",
"351 543 LINE",
"325.67 552.33 OFFCURVE",
"300.33 557 OFFCURVE",
"275 557 CURVE SMOOTH",
"218.33 557 OFFCURVE",
"170.17 539.17 OFFCURVE",
"130.5 503.5 CURVE SMOOTH",
"90.83 467.83 OFFCURVE",
"71 421 OFFCURVE",
"71 363 CURVE SMOOTH",
"71 303.67 OFFCURVE",
"94.67 255 OFFCURVE",
"142 217 CURVE",
"142 213 LINE",
"101.33 183.67 OFFCURVE",
"81 150 OFFCURVE",
"81 112 CURVE SMOOTH",
"81 72 OFFCURVE",
"97.67 42.33 OFFCURVE",
"131 23 CURVE",
"131 19 LINE",
"77 -15.67 OFFCURVE",
"50 -56.67 OFFCURVE",
"50 -104 CURVE SMOOTH",
"50 -150 OFFCURVE",
"70.5 -185.83 OFFCURVE",
"111.5 -211.5 CURVE SMOOTH",
"152.5 -237.17 OFFCURVE",
"207 -250 OFFCURVE",
"275 -250 CURVE SMOOTH"
);
},
{
closed = 1;
nodes = (
"242.33 234 OFFCURVE",
"214.83 245.83 OFFCURVE",
"192.5 269.5 CURVE SMOOTH",
"170.17 293.17 OFFCURVE",
"159 324.33 OFFCURVE",
"159 363 CURVE SMOOTH",
"159 401.67 OFFCURVE",
"170 432.5 OFFCURVE",
"192 455.5 CURVE SMOOTH",
"214 478.5 OFFCURVE",
"241.67 490 OFFCURVE",
"275 490 CURVE SMOOTH",
"307.67 490 OFFCURVE",
"335 478.5 OFFCURVE",
"357 455.5 CURVE SMOOTH",
"379 432.5 OFFCURVE",
"390 401.67 OFFCURVE",
"390 363 CURVE SMOOTH",
"390 324.33 OFFCURVE",
"378.83 293.17 OFFCURVE",
"356.5 269.5 CURVE SMOOTH",
"334.17 245.83 OFFCURVE",
"307 234 OFFCURVE",
"275 234 CURVE SMOOTH"
);
},
{
closed = 1;
nodes = (
"238.67 -188 OFFCURVE",
"200 -179.33 OFFCURVE",
"172 -162 CURVE SMOOTH",
"144 -144.67 OFFCURVE",
"130 -121.33 OFFCURVE",
"130 -92 CURVE SMOOTH",
"130 -57.33 OFFCURVE",
"148.67 -26.67 OFFCURVE",
"186 0 CURVE",
"210 -6 OFFCURVE",
"233.33 -9 OFFCURVE",
"256 -9 CURVE SMOOTH",
"350 -9 LINE SMOOTH",
"387.33 -9 OFFCURVE",
"415.17 -14.17 OFFCURVE",
"433.5 -24.5 CURVE SMOOTH",
"451.83 -34.83 OFFCURVE",
"461 -52 OFFCURVE",
"461 -76 CURVE SMOOTH",
"461 -106 OFFCURVE",
"444.67 -132.17 OFFCURVE",
"412 -154.5 CURVE SMOOTH",
"379.33 -176.83 OFFCURVE",
"338 -188 OFFCURVE",
"288 -188 CURVE SMOOTH"
);
}
);
vertWidth = 1000;
width = 563;
}
);
note = g;
unicode = 0067;
},
{
glyphname = h;
layers = (
{
hints = (
{
horizontal = 1;
place = "{0, 21}";
target = up;
type = BottomGhost;
},
{
horizontal = 1;
place = "{477, 80}";
type = Stem;
},
{
place = "{92, 91}";
type = Stem;
},
{
place = "{435, 91}";
type = Stem;
}
);
layerId = "077E5A87-ACC6-4633-A27C-E6914C382A59";
paths = (
{
closed = 1;
nodes = (
"92 796 LINE",
"92 0 LINE",
"183 0 LINE",
"183 394 LINE",
"213 424 OFFCURVE",
"238.67 445.33 OFFCURVE",
"260 458 CURVE SMOOTH",
"281.33 470.67 OFFCURVE",
"305.33 477 OFFCURVE",
"332 477 CURVE SMOOTH",
"368 477 OFFCURVE",
"394.17 465.5 OFFCURVE",
"410.5 442.5 CURVE SMOOTH",
"426.83 419.5 OFFCURVE",
"435 382.67 OFFCURVE",
"435 332 CURVE SMOOTH",
"435 0 LINE",
"526 0 LINE",
"526 344 LINE SMOOTH",
"526 486 OFFCURVE",
"470.67 557 OFFCURVE",
"360 557 CURVE SMOOTH",
"300.67 557 OFFCURVE",
"240.67 526.67 OFFCURVE",
"180 466 CURVE",
"183 578 LINE",
"183 796 LINE"
);
}
);
vertWidth = 1000;
width = 607;
}
);
note = h;
unicode = 0068;
},
{
glyphname = i;
layers = (
{
hints = (
{
horizontal = 1;
place = "{0, 21}";
target = up;
type = BottomGhost;
},
{
horizontal = 1;
place = "{543, -20}";
target = down;
type = TopGhost;
},
{
horizontal = 1;
place = "{655, 118}";
type = Stem;
},
{
place = "{92, 91}";
type = Stem;
},
{
place = "{75, 126}";
type = Stem;
}
);
layerId = "077E5A87-ACC6-4633-A27C-E6914C382A59";
paths = (
{
closed = 1;
nodes = (
"92 543 LINE",
"92 0 LINE",
"183 0 LINE",
"183 543 LINE"
);
},
{
closed = 1;
nodes = (
"156 655 OFFCURVE",
"171 660.67 OFFCURVE",
"183 672 CURVE SMOOTH",
"195 683.33 OFFCURVE",
"201 697.33 OFFCURVE",
"201 714 CURVE SMOOTH",
"201 732 OFFCURVE",
"195.17 746.33 OFFCURVE",
"183.5 757 CURVE SMOOTH",
"171.83 767.67 OFFCURVE",
"156.67 773 OFFCURVE",
"138 773 CURVE SMOOTH",
"119.33 773 OFFCURVE",
"104.17 767.67 OFFCURVE",
"92.5 757 CURVE SMOOTH",
"80.83 746.33 OFFCURVE",
"75 732 OFFCURVE",
"75 714 CURVE SMOOTH",
"75 697.33 OFFCURVE",
"81 683.33 OFFCURVE",
"93 672 CURVE SMOOTH",
"105 660.67 OFFCURVE",
"120 655 OFFCURVE",
"138 655 CURVE SMOOTH"
);
}
);
vertWidth = 1000;
width = 275;
}
);
note = i;
unicode = 0069;
},
{
glyphname = j;
layers = (
{
hints = (
{
horizontal = 1;
place = "{-243, 74}";
type = Stem;
},
{
horizontal = 1;
place = "{543, -20}";
target = down;
type = TopGhost;
},
{
horizontal = 1;
place = "{655, 118}";
type = Stem;
},
{
place = "{93, 91}";
type = Stem;
},
{
horizontal = 1;
place = "{-229, 21}";
target = up;
type = BottomGhost;
},
{
place = "{76, 126}";
type = Stem;
}
);
layerId = "077E5A87-ACC6-4633-A27C-E6914C382A59";
paths = (
{
closed = 1;
nodes = (
"134.67 -243 OFFCURVE",
"184 -182.67 OFFCURVE",
"184 -62 CURVE SMOOTH",
"184 543 LINE",
"93 543 LINE",
"93 -62 LINE SMOOTH",
"93 -98 OFFCURVE",
"88.17 -124.83 OFFCURVE",
"78.5 -142.5 CURVE SMOOTH",
"68.83 -160.17 OFFCURVE",
"51 -169 OFFCURVE",
"25 -169 CURVE SMOOTH",
"9.67 -169 OFFCURVE",
"-7.33 -165.67 OFFCURVE",
"-26 -159 CURVE",
"-44 -229 LINE",
"-18.67 -238.33 OFFCURVE",
"8 -243 OFFCURVE",
"36 -243 CURVE SMOOTH"
);
},
{
closed = 1;
nodes = (
"156.33 655 OFFCURVE",
"171.17 660.67 OFFCURVE",
"183.5 672 CURVE SMOOTH",
"195.83 683.33 OFFCURVE",
"202 697.33 OFFCURVE",
"202 714 CURVE SMOOTH",
"202 732 OFFCURVE",
"196 746.33 OFFCURVE",
"184 757 CURVE SMOOTH",
"172 767.67 OFFCURVE",
"157 773 OFFCURVE",
"139 773 CURVE SMOOTH",
"120.33 773 OFFCURVE",
"105.17 767.67 OFFCURVE",
"93.5 757 CURVE SMOOTH",
"81.83 746.33 OFFCURVE",
"76 732 OFFCURVE",
"76 714 CURVE SMOOTH",
"76 697.33 OFFCURVE",
"82 683.33 OFFCURVE",
"94 672 CURVE SMOOTH",
"106 660.67 OFFCURVE",
"121 655 OFFCURVE",
"139 655 CURVE SMOOTH"
);
}
);
vertWidth = 1000;
width = 275;
}
);
note = j;
unicode = 006A;
},
{
glyphname = k;
layers = (
{
hints = (
{
horizontal = 1;
place = "{0, 21}";
target = up;
type = BottomGhost;
},
{
horizontal = 1;
place = "{543, -20}";
target = down;
type = TopGhost;
},
{
place = "{92, 90}";
type = Stem;
}
);
layerId = "077E5A87-ACC6-4633-A27C-E6914C382A59";
paths = (
{
closed = 1;
nodes = (
"92 796 LINE",
"92 0 LINE",
"182 0 LINE",
"182 143 LINE",
"284 262 LINE",
"443 0 LINE",
"542 0 LINE",
"336 325 LINE",
"518 543 LINE",
"417 543 LINE",
"184 256 LINE",
"182 256 LINE",
"182 796 LINE"
);
}
);
vertWidth = 1000;
width = 552;
}
);
note = k;
unicode = 006B;
},
{
glyphname = l;
layers = (
{
hints = (
{
horizontal = 1;
place = "{-13, 76}";
type = Stem;
},
{
place = "{92, 91}";
type = Stem;
}
);
layerId = "077E5A87-ACC6-4633-A27C-E6914C382A59";
paths = (
{
closed = 1;
nodes = (
"209.33 -13 OFFCURVE",
"227 -10.33 OFFCURVE",
"241 -5 CURVE",
"228 65 LINE",
"221.33 63.67 OFFCURVE",
"215 63 OFFCURVE",
"209 63 CURVE SMOOTH",
"191.67 63 OFFCURVE",
"183 76 OFFCURVE",
"183 102 CURVE SMOOTH",
"183 796 LINE",
"92 796 LINE",
"92 108 LINE SMOOTH",
"92 27.33 OFFCURVE",
"124 -13 OFFCURVE",
"188 -13 CURVE SMOOTH"
);
}
);
vertWidth = 1000;
width = 285;
}
);
note = l;
unicode = 006C;
},
{
glyphname = m;
layers = (
{
hints = (
{
horizontal = 1;
place = "{0, 21}";
target = up;
type = BottomGhost;
},
{
horizontal = 1;
place = "{543, -20}";
target = down;
type = TopGhost;
},
{
horizontal = 1;
place = "{477, 80}";
type = Stem;
}
);
layerId = "077E5A87-ACC6-4633-A27C-E6914C382A59";
paths = (
{
closed = 1;
nodes = (
"92 543 LINE",
"92 0 LINE",
"183 0 LINE",
"183 394 LINE",
"232.33 449.33 OFFCURVE",
"278 477 OFFCURVE",
"320 477 CURVE SMOOTH",
"354.67 477 OFFCURVE",
"380.17 465.5 OFFCURVE",
"396.5 442.5 CURVE SMOOTH",
"412.83 419.5 OFFCURVE",
"421 382.67 OFFCURVE",
"421 332 CURVE SMOOTH",
"421 0 LINE",
"512 0 LINE",
"512 394 LINE",
"562.67 449.33 OFFCURVE",
"608.33 477 OFFCURVE",
"649 477 CURVE SMOOTH",
"683.67 477 OFFCURVE",
"709.17 465.5 OFFCURVE",
"725.5 442.5 CURVE SMOOTH",
"741.83 419.5 OFFCURVE",
"750 382.67 OFFCURVE",
"750 332 CURVE SMOOTH",
"750 0 LINE",
"841 0 LINE",
"841 344 LINE SMOOTH",
"841 486 OFFCURVE",
"786 557 OFFCURVE",
"676 557 CURVE SMOOTH",
"620 557 OFFCURVE",
"560.33 522.33 OFFCURVE",
"497 453 CURVE",
"473 522.33 OFFCURVE",
"423 557 OFFCURVE",
"347 557 CURVE SMOOTH",
"290.33 557 OFFCURVE",
"234 526 OFFCURVE",
"178 464 CURVE",
"175 464 LINE",
"167 543 LINE"
);
}
);
vertWidth = 1000;
width = 926;
}
);
note = m;
unicode = 006D;
},
{
glyphname = n;
layers = (
{
hints = (
{
horizontal = 1;
place = "{0, 21}";
target = up;
type = BottomGhost;
},
{
horizontal = 1;
place = "{543, -20}";
target = down;
type = TopGhost;
},
{
place = "{92, 91}";
type = Stem;
},
{
place = "{435, 91}";
type = Stem;
},
{
horizontal = 1;
place = "{477, 80}";
type = Stem;
}
);
layerId = "077E5A87-ACC6-4633-A27C-E6914C382A59";
paths = (
{
closed = 1;
nodes = (
"92 543 LINE",
"92 0 LINE",
"183 0 LINE",
"183 394 LINE",
"213 424 OFFCURVE",
"238.67 445.33 OFFCURVE",
"260 458 CURVE SMOOTH",
"281.33 470.67 OFFCURVE",
"305.33 477 OFFCURVE",
"332 477 CURVE SMOOTH",
"368 477 OFFCURVE",
"394.17 465.5 OFFCURVE",
"410.5 442.5 CURVE SMOOTH",
"426.83 419.5 OFFCURVE",
"435 382.67 OFFCURVE",
"435 332 CURVE SMOOTH",
"435 0 LINE",
"526 0 LINE",
"526 344 LINE SMOOTH",
"526 486 OFFCURVE",
"470.67 557 OFFCURVE",
"360 557 CURVE SMOOTH",
"301.33 557 OFFCURVE",
"240.67 526.33 OFFCURVE",
"178 465 CURVE",
"175 465 LINE",
"167 543 LINE"
);
}
);
vertWidth = 1000;
width = 611;
}
);
note = n;
unicode = 006E;
},
{
glyphname = o;
layers = (
{
hints = (
{
horizontal = 1;
place = "{-13, 76}";
type = Stem;
},
{
horizontal = 1;
place = "{481, 76}";
type = Stem;
},
{
place = "{51, 95}";
type = Stem;
},
{
place = "{461, 94}";
type = Stem;
}
);
layerId = "077E5A87-ACC6-4633-A27C-E6914C382A59";
paths = (
{
closed = 1;
nodes = (
"373 -13 OFFCURVE",
"432.5 12.67 OFFCURVE",
"481.5 64 CURVE SMOOTH",
"530.5 115.33 OFFCURVE",
"555 184.33 OFFCURVE",
"555 271 CURVE SMOOTH",
"555 358.33 OFFCURVE",
"530.5 427.83 OFFCURVE",
"481.5 479.5 CURVE SMOOTH",
"432.5 531.17 OFFCURVE",
"373 557 OFFCURVE",
"303 557 CURVE SMOOTH",
"233 557 OFFCURVE",
"173.5 531.17 OFFCURVE",
"124.5 479.5 CURVE SMOOTH",
"75.5 427.83 OFFCURVE",
"51 358.33 OFFCURVE",
"51 271 CURVE SMOOTH",
"51 184.33 OFFCURVE",
"75.5 115.33 OFFCURVE",
"124.5 64 CURVE SMOOTH",
"173.5 12.67 OFFCURVE",
"233 -13 OFFCURVE",
"303 -13 CURVE SMOOTH"
);
},
{
closed = 1;
nodes = (
"255.67 63 OFFCURVE",
"217.67 82 OFFCURVE",
"189 120 CURVE SMOOTH",
"160.33 158 OFFCURVE",
"146 208.33 OFFCURVE",
"146 271 CURVE SMOOTH",
"146 333.67 OFFCURVE",
"160.5 384.33 OFFCURVE",
"189.5 423 CURVE SMOOTH",
"218.5 461.67 OFFCURVE",
"256.33 481 OFFCURVE",
"303 481 CURVE SMOOTH",
"350.33 481 OFFCURVE",
"388.5 461.67 OFFCURVE",
"417.5 423 CURVE SMOOTH",
"446.5 384.33 OFFCURVE",
"461 333.67 OFFCURVE",
"461 271 CURVE SMOOTH",
"461 208.33 OFFCURVE",
"446.5 158 OFFCURVE",
"417.5 120 CURVE SMOOTH",
"388.5 82 OFFCURVE",
"350.33 63 OFFCURVE",
"303 63 CURVE SMOOTH"
);
}
);
vertWidth = 1000;
width = 606;
}
);
note = o;
unicode = 006F;
},
{
glyphname = p;
layers = (
{
hints = (
{
horizontal = 1;
place = "{-229, 21}";
target = up;
type = BottomGhost;
},
{
horizontal = 1;
place = "{-13, 76}";
type = Stem;
},
{
horizontal = 1;
place = "{543, -20}";
target = down;
type = TopGhost;
},
{
place = "{92, 91}";
type = Stem;
},
{
place = "{472, 95}";
type = Stem;
},
{
horizontal = 1;
place = "{480, 77}";
type = Stem;
}
);
layerId = "077E5A87-ACC6-4633-A27C-E6914C382A59";
paths = (
{
closed = 1;
nodes = (
"92 543 LINE",
"92 -229 LINE",
"183 -229 LINE",
"183 -45 LINE",
"181 50 LINE",
"232.33 8 OFFCURVE",
"282.33 -13 OFFCURVE",
"331 -13 CURVE SMOOTH",
"396.33 -13 OFFCURVE",
"452 13.5 OFFCURVE",
"498 66.5 CURVE SMOOTH",
"544 119.5 OFFCURVE",
"567 190.67 OFFCURVE",
"567 280 CURVE SMOOTH",
"567 365.33 OFFCURVE",
"548.17 432.83 OFFCURVE",
"510.5 482.5 CURVE SMOOTH",
"472.83 532.17 OFFCURVE",
"419.67 557 OFFCURVE",
"351 557 CURVE SMOOTH",
"297.67 557 OFFCURVE",
"240 531.67 OFFCURVE",
"178 481 CURVE",
"175 481 LINE",
"167 543 LINE"
);
},
{
closed = 1;
nodes = (
"272 63 OFFCURVE",
"227.67 82 OFFCURVE",
"183 120 CURVE",
"183 405 LINE",
"237 455 OFFCURVE",
"285.67 480 OFFCURVE",
"329 480 CURVE SMOOTH",
"424.33 480 OFFCURVE",
"472 413 OFFCURVE",
"472 279 CURVE SMOOTH",
"472 213 OFFCURVE",
"457.5 160.5 OFFCURVE",
"428.5 121.5 CURVE SMOOTH",
"399.5 82.5 OFFCURVE",
"362 63 OFFCURVE",
"316 63 CURVE SMOOTH"
);
}
);
vertWidth = 1000;
width = 620;
}
);
note = p;
unicode = 0070;
},
{
glyphname = q;
layers = (
{
hints = (
{
horizontal = 1;
place = "{-229, 21}";
target = up;
type = BottomGhost;
},
{
horizontal = 1;
place = "{-13, 76}";
type = Stem;
},
{
horizontal = 1;
place = "{543, -20}";
target = down;
type = TopGhost;
},
{
place = "{53, 94}";
type = Stem;
},
{
place = "{436, 91}";
type = Stem;
},
{
horizontal = 1;
place = "{480, 77}";
type = Stem;
}
);
layerId = "077E5A87-ACC6-4633-A27C-E6914C382A59";
paths = (
{
closed = 1;
nodes = (
"436 -36 LINE",
"436 -229 LINE",
"527 -229 LINE",
"527 543 LINE",
"455 543 LINE",
"446 491 LINE",
"443 491 LINE",
"395 535 OFFCURVE",
"343.33 557 OFFCURVE",
"288 557 CURVE SMOOTH",
"223.33 557 OFFCURVE",
"168 530.67 OFFCURVE",
"122 478 CURVE SMOOTH",
"76 425.33 OFFCURVE",
"53 356.33 OFFCURVE",
"53 271 CURVE SMOOTH",
"53 181.67 OFFCURVE",
"73.17 112 OFFCURVE",
"113.5 62 CURVE SMOOTH",
"153.83 12 OFFCURVE",
"208.33 -13 OFFCURVE",
"277 -13 CURVE SMOOTH",
"334.33 -13 OFFCURVE",
"389 12.33 OFFCURVE",
"441 63 CURVE"
);
},
{
closed = 1;
nodes = (
"249 63 OFFCURVE",
"212 81.33 OFFCURVE",
"186 118 CURVE SMOOTH",
"160 154.67 OFFCURVE",
"147 206 OFFCURVE",
"147 272 CURVE SMOOTH",
"147 333.33 OFFCURVE",
"162 383.33 OFFCURVE",
"192 422 CURVE SMOOTH",
"222 460.67 OFFCURVE",
"259.33 480 OFFCURVE",
"304 480 CURVE SMOOTH",
"349.33 480 OFFCURVE",
"393.33 461 OFFCURVE",
"436 423 CURVE",
"436 138 LINE",
"390.67 88 OFFCURVE",
"344.33 63 OFFCURVE",
"297 63 CURVE SMOOTH"
);
}
);
vertWidth = 1000;
width = 620;
}
);
note = q;
unicode = 0071;
},
{
glyphname = r;
layers = (
{
hints = (
{
horizontal = 1;
place = "{0, 21}";
target = up;
type = BottomGhost;
},
{
horizontal = 1;
place = "{543, -20}";
target = down;
type = TopGhost;
},
{
place = "{92, 91}";
type = Stem;
},
{
horizontal = 1;
place = "{474, 83}";
type = Stem;
},
{
horizontal = 1;
place = "{545, -20}";
target = down;
type = TopGhost;
}
);
layerId = "077E5A87-ACC6-4633-A27C-E6914C382A59";
paths = (
{
closed = 1;
nodes = (
"92 543 LINE",
"92 0 LINE",
"183 0 LINE",
"183 349 LINE",
"199.67 392.33 OFFCURVE",
"220.33 424 OFFCURVE",
"245 444 CURVE SMOOTH",
"269.67 464 OFFCURVE",
"294.67 474 OFFCURVE",
"320 474 CURVE SMOOTH",
"340 474 OFFCURVE",
"357.67 471 OFFCURVE",
"373 465 CURVE",
"390 545 LINE",
"374.67 553 OFFCURVE",
"355.33 557 OFFCURVE",
"332 557 CURVE SMOOTH",
"302 557 OFFCURVE",
"273.67 547 OFFCURVE",
"247 527 CURVE SMOOTH",
"220.33 507 OFFCURVE",
"197.33 479.33 OFFCURVE",
"178 444 CURVE",
"175 444 LINE",
"167 543 LINE"
);
}
);
vertWidth = 1000;
width = 388;
}
);
note = r;
unicode = 0072;
},
{
glyphname = s;
layers = (
{
hints = (
{
horizontal = 1;
place = "{-13, 71}";
type = Stem;
},
{
horizontal = 1;
place = "{485, 72}";
type = Stem;
},
{
place = "{58, 88}";
type = Stem;
},
{
place = "{344, 88}";
type = Stem;
}
);
layerId = "077E5A87-ACC6-4633-A27C-E6914C382A59";
paths = (
{
closed = 1;
nodes = (
"296 -13 OFFCURVE",
"344.5 2.33 OFFCURVE",
"379.5 33 CURVE SMOOTH",
"414.5 63.67 OFFCURVE",
"432 102 OFFCURVE",
"432 148 CURVE SMOOTH",
"432 168 OFFCURVE",
"428.33 186.17 OFFCURVE",
"421 202.5 CURVE SMOOTH",
"413.67 218.83 OFFCURVE",
"405.67 232 OFFCURVE",
"397 242 CURVE SMOOTH",
"388.33 252 OFFCURVE",
"375.17 262 OFFCURVE",
"357.5 272 CURVE SMOOTH",
"339.83 282 OFFCURVE",
"325.67 289.33 OFFCURVE",
"315 294 CURVE SMOOTH",
"304.33 298.67 OFFCURVE",
"288 305 OFFCURVE",
"266 313 CURVE SMOOTH",
"264 313.67 OFFCURVE",
"260.61 314.94 OFFCURVE",
"255.83 316.82 CURVE SMOOTH",
"229.28 326.94 OFFCURVE",
"210.5 334.5 OFFCURVE",
"199.5 339.5 CURVE SMOOTH",
"188.5 344.5 OFFCURVE",
"176.83 353.17 OFFCURVE",
"164.5 365.5 CURVE SMOOTH",
"152.17 377.83 OFFCURVE",
"146 391.67 OFFCURVE",
"146 407 CURVE SMOOTH",
"146 429.67 OFFCURVE",
"154.5 448.33 OFFCURVE",
"171.5 463 CURVE SMOOTH",
"188.5 477.67 OFFCURVE",
"213 485 OFFCURVE",
"245 485 CURVE SMOOTH",
"285 485 OFFCURVE",
"326.67 469 OFFCURVE",
"370 437 CURVE",
"414 496 LINE",
"361.33 536.67 OFFCURVE",
"305 557 OFFCURVE",
"245 557 CURVE SMOOTH",
"187.67 557 OFFCURVE",
"142.17 542.5 OFFCURVE",
"108.5 513.5 CURVE SMOOTH",
"74.83 484.5 OFFCURVE",
"58 447.67 OFFCURVE",
"58 403 CURVE SMOOTH",
"58 381 OFFCURVE",
"62.5 361.33 OFFCURVE",
"71.5 344 CURVE SMOOTH",
"80.5 326.67 OFFCURVE",
"93.83 311.83 OFFCURVE",
"111.5 299.5 CURVE SMOOTH",
"129.17 287.17 OFFCURVE",
"145.83 277.33 OFFCURVE",
"161.5 270 CURVE SMOOTH",
"177.17 262.67 OFFCURVE",
"196.67 254.67 OFFCURVE",
"220 246 CURVE SMOOTH",
"246.67 236 OFFCURVE",
"267 227.67 OFFCURVE",
"281 221 CURVE SMOOTH",
"295 214.33 OFFCURVE",
"309 204 OFFCURVE",
"323 190 CURVE SMOOTH",
"337 176 OFFCURVE",
"344 160.33 OFFCURVE",
"344 143 CURVE SMOOTH",
"344 118.33 OFFCURVE",
"334.83 98 OFFCURVE",
"316.5 82 CURVE SMOOTH",
"298.17 66 OFFCURVE",
"271.67 58 OFFCURVE",
"237 58 CURVE SMOOTH",
"182.33 58 OFFCURVE",
"128.67 79.33 OFFCURVE",
"76 122 CURVE",
"31 62 LINE",
"91.67 12 OFFCURVE",
"159.33 -13 OFFCURVE",
"234 -13 CURVE SMOOTH"
);
}
);
vertWidth = 1000;
width = 468;
}
);
note = s;
unicode = 0073;
},
{
glyphname = t;
layers = (
{
hints = (
{
horizontal = 1;
place = "{-13, 74}";
type = Stem;
},
{
horizontal = 1;
place = "{469, 74}";
type = Stem;
},
{
place = "{108, 91}";
type = Stem;
}
);
layerId = "077E5A87-ACC6-4633-A27C-E6914C382A59";
paths = (
{
closed = 1;
nodes = (
"288.33 -13 OFFCURVE",
"321.67 -6.33 OFFCURVE",
"363 7 CURVE",
"345 75 LINE",
"321 65.67 OFFCURVE",
"300.33 61 OFFCURVE",
"283 61 CURVE SMOOTH",
"252.33 61 OFFCURVE",
"230.67 69.67 OFFCURVE",
"218 87 CURVE SMOOTH",
"205.33 104.33 OFFCURVE",
"199 130.67 OFFCURVE",
"199 166 CURVE SMOOTH",
"199 469 LINE",
"346 469 LINE",
"346 543 LINE",
"199 543 LINE",
"199 695 LINE",
"123 695 LINE",
"112 543 LINE",
"27 538 LINE",
"27 469 LINE",
"108 469 LINE",
"108 168 LINE SMOOTH",
"108 47.33 OFFCURVE",
"159.67 -13 OFFCURVE",
"263 -13 CURVE SMOOTH"
);
}
);
vertWidth = 1000;
width = 377;
}
);
note = t;
unicode = 0074;
},
{
glyphname = u;
layers = (
{
hints = (
{
horizontal = 1;
place = "{-13, 79}";
type = Stem;
},
{
horizontal = 1;
place = "{543, -20}";
target = down;
type = TopGhost;
},
{
place = "{85, 91}";
type = Stem;
},
{
place = "{425, 91}";
type = Stem;
},
{
horizontal = 1;
place = "{0, 21}";
target = up;
type = BottomGhost;
}
);
layerId = "077E5A87-ACC6-4633-A27C-E6914C382A59";
paths = (
{
closed = 1;
nodes = (
"313.33 -13 OFFCURVE",
"373.33 19.67 OFFCURVE",
"430 85 CURVE",
"433 85 LINE",
"440 0 LINE",
"516 0 LINE",
"516 543 LINE",
"425 543 LINE",
"425 158 LINE",
"398.33 124.67 OFFCURVE",
"374 101 OFFCURVE",
"352 87 CURVE SMOOTH",
"330 73 OFFCURVE",
"305.33 66 OFFCURVE",
"278 66 CURVE SMOOTH",
"242 66 OFFCURVE",
"216 77.33 OFFCURVE",
"200 100 CURVE SMOOTH",
"184 122.67 OFFCURVE",
"176 159.33 OFFCURVE",
"176 210 CURVE SMOOTH",
"176 543 LINE",
"85 543 LINE",
"85 199 LINE SMOOTH",
"85 57.67 OFFCURVE",
"140 -13 OFFCURVE",
"250 -13 CURVE SMOOTH"
);
}
);
vertWidth = 1000;
width = 607;
}
);
note = u;
unicode = 0075;
},
{
glyphname = v;
layers = (
{
hints = (
{
horizontal = 1;
place = "{0, 74}";
type = Stem;
},
{
horizontal = 1;
place = "{543, -20}";
target = down;
type = TopGhost;
},
{
place = "{13, 495}";
type = Stem;
}
);
layerId = "077E5A87-ACC6-4633-A27C-E6914C382A59";
paths = (
{
closed = 1;
nodes = (
"13 543 LINE",
"209 0 LINE",
"315 0 LINE",
"508 543 LINE",
"418 543 LINE",
"315 234 LINE SMOOTH",
"311.67 222.67 OFFCURVE",
"295 169.33 OFFCURVE",
"265 74 CURVE",
"261 74 LINE",
"254.33 94 OFFCURVE",
"244.83 123.5 OFFCURVE",
"232.5 162.5 CURVE SMOOTH",
"220.17 201.5 OFFCURVE",
"212.67 225.33 OFFCURVE",
"210 234 CURVE SMOOTH",
"108 543 LINE"
);
}
);
vertWidth = 1000;
width = 521;
}
);
note = v;
unicode = 0076;
},
{
glyphname = w;
layers = (
{
hints = (
{
horizontal = 1;
place = "{0, 77}";
type = Stem;
},
{
horizontal = 1;
place = "{449, 94}";
type = Stem;
},
{
place = "{27, 748}";
type = Stem;
}
);
layerId = "077E5A87-ACC6-4633-A27C-E6914C382A59";
paths = (
{
closed = 1;
nodes = (
"27 543 LINE",
"178 0 LINE",
"285 0 LINE",
"361 291 LINE SMOOTH",
"369.67 324.33 OFFCURVE",
"382 377 OFFCURVE",
"398 449 CURVE",
"403 449 LINE",
"427 347 OFFCURVE",
"439.33 295 OFFCURVE",
"440 293 CURVE SMOOTH",
"519 0 LINE",
"629 0 LINE",
"775 543 LINE",
"689 543 LINE",
"609 229 LINE SMOOTH",
"605.67 213 OFFCURVE",
"600.17 188.17 OFFCURVE",
"592.5 154.5 CURVE SMOOTH",
"584.83 120.83 OFFCURVE",
"579 95 OFFCURVE",
"575 77 CURVE",
"571 77 LINE",
"567 92.33 OFFCURVE",
"563 108.33 OFFCURVE",
"559 125 CURVE SMOOTH",
"555 141.67 OFFCURVE",
"550.33 160.33 OFFCURVE",
"545 181 CURVE SMOOTH",
"539.67 201.67 OFFCURVE",
"535.67 217.67 OFFCURVE",
"533 229 CURVE SMOOTH",
"448 543 LINE",
"359 543 LINE",
"275 229 LINE SMOOTH",
"269 208.33 OFFCURVE",
"256.67 157.67 OFFCURVE",
"238 77 CURVE",
"233 77 LINE",
"231.67 83.67 OFFCURVE",
"221 134.33 OFFCURVE",
"201 229 CURVE",
"120 543 LINE"
);
}
);
vertWidth = 1000;
width = 802;
}
);
note = w;
unicode = 0077;
},
{
glyphname = x;
layers = (
{
hints = (
{
horizontal = 1;
place = "{0, 21}";
target = up;
type = BottomGhost;
},
{
horizontal = 1;
place = "{543, -20}";
target = down;
type = TopGhost;
},
{
place = "{15, 468}";
type = Stem;
}
);
layerId = "077E5A87-ACC6-4633-A27C-E6914C382A59";
paths = (
{
closed = 1;
nodes = (
"194 283 LINE",
"15 0 LINE",
"111 0 LINE",
"184 127 LINE SMOOTH",
"220 189 OFFCURVE",
"238.67 221.33 OFFCURVE",
"240 224 CURVE",
"245 224 LINE",
"267 190 OFFCURVE",
"286.33 157.67 OFFCURVE",
"303 127 CURVE",
"383 0 LINE",
"483 0 LINE",
"304 274 LINE",
"469 543 LINE",
"374 543 LINE",
"307 423 LINE SMOOTH",
"285.67 383 OFFCURVE",
"269.33 353 OFFCURVE",
"258 333 CURVE",
"254 333 LINE",
"200 423 LINE",
"127 543 LINE",
"29 543 LINE"
);
}
);
vertWidth = 1000;
width = 498;
}
);
note = x;
unicode = 0078;
},
{
glyphname = y;
layers = (
{
hints = (
{
horizontal = 1;
place = "{-234, 75}";
type = Stem;
},
{
horizontal = 1;
place = "{543, -20}";
target = down;
type = TopGhost;
},
{
place = "{13, 495}";
type = Stem;
}
);
layerId = "077E5A87-ACC6-4633-A27C-E6914C382A59";
paths = (
{
closed = 1;
nodes = (
"151 -234 OFFCURVE",
"191.83 -217.33 OFFCURVE",
"223.5 -184 CURVE SMOOTH",
"255.17 -150.67 OFFCURVE",
"281.67 -104.33 OFFCURVE",
"303 -45 CURVE SMOOTH",
"508 543 LINE",
"419 543 LINE",
"322 241 LINE SMOOTH",
"316.67 223 OFFCURVE",
"308.67 196.33 OFFCURVE",
"298 161 CURVE SMOOTH",
"287.33 125.67 OFFCURVE",
"280 101.67 OFFCURVE",
"276 89 CURVE",
"271 89 LINE",
"261.67 115 OFFCURVE",
"244.33 165.67 OFFCURVE",
"219 241 CURVE SMOOTH",
"108 543 LINE",
"13 543 LINE",
"231 -1 LINE",
"219 -42 LINE SMOOTH",
"193.67 -120 OFFCURVE",
"152.67 -159 OFFCURVE",
"96 -159 CURVE SMOOTH",
"85.33 -159 OFFCURVE",
"71.67 -156 OFFCURVE",
"55 -150 CURVE",
"37 -223 LINE",
"55 -230.33 OFFCURVE",
"76.33 -234 OFFCURVE",
"101 -234 CURVE SMOOTH"
);
}
);
vertWidth = 1000;
width = 521;
}
);
note = y;
unicode = 0079;
},
{
glyphname = z;
layers = (
{
hints = (
{
horizontal = 1;
place = "{0, 74}";
type = Stem;
},
{
horizontal = 1;
place = "{469, 74}";
type = Stem;
},
{
place = "{35, 411}";
type = Stem;
}
);
layerId = "077E5A87-ACC6-4633-A27C-E6914C382A59";
paths = (
{
closed = 1;
nodes = (
"35 49 LINE",
"35 0 LINE",
"446 0 LINE",
"446 74 LINE",
"150 74 LINE",
"436 494 LINE",
"436 543 LINE",
"66 543 LINE",
"66 469 LINE",
"321 469 LINE"
);
}
);
vertWidth = 1000;
width = 474;
}
);
note = z;
unicode = 007A;
},
{
glyphname = uni4E00;
layers = (
{
hints = (
{
horizontal = 1;
place = "{349, 81}";
type = Stem;
},
{
place = "{48, 908}";
type = Stem;
}
);
layerId = "077E5A87-ACC6-4633-A27C-E6914C382A59";
paths = (
{
closed = 1;
nodes = (
"48 430 LINE",
"48 349 LINE",
"956 349 LINE",
"956 430 LINE"
);
}
);
vertWidth = 1000;
width = 1000;
}
);
note = uni4E00;
unicode = 4E00;
},
{
glyphname = uni4E66;
layers = (
{
hints = (
{
horizontal = 1;
place = "{24, 65}";
type = Stem;
},
{
horizontal = 1;
place = "{324, 71}";
type = Stem;
},
{
horizontal = 1;
place = "{590, 72}";
type = Stem;
},
{
place = "{420, 74}";
type = Stem;
},
{
place = "{725, 73}";
type = Stem;
},
{
place = "{863, 79}";
type = Stem;
}
);
layerId = "077E5A87-ACC6-4633-A27C-E6914C382A59";
paths = (
{
closed = 1;
nodes = (
"948 671 LINE",
"905.43 708.34 OFFCURVE",
"842.76 753.34 OFFCURVE",
"760 806 CURVE",
"716 757 LINE",
"797.92 703.14 OFFCURVE",
"859.92 655.81 OFFCURVE",
"902 615 CURVE"
);
},
{
closed = 1;
nodes = (
"494 590 LINE",
"725 590 LINE",
"725 395 LINE",
"494 395 LINE"
);
},
{
closed = 1;
nodes = (
"798 395 LINE",
"798 662 LINE",
"494 662 LINE",
"494 833 LINE",
"420 833 LINE",
"420 662 LINE",
"130 662 LINE",
"130 590 LINE",
"420 590 LINE",
"420 395 LINE",
"64 395 LINE",
"64 324 LINE",
"420 324 LINE",
"420 -76 LINE",
"494 -76 LINE",
"494 324 LINE",
"863 324 LINE",
"852.02 192.21 OFFCURVE",
"837.02 117.21 OFFCURVE",
"818 99 CURVE SMOOTH",
"810.03 92.75 OFFCURVE",
"796.03 89.42 OFFCURVE",
"776 89 CURVE SMOOTH",
"718.32 89 OFFCURVE",
"668.32 91 OFFCURVE",
"626 95 CURVE",
"640.55 72.19 OFFCURVE",
"648.55 48.52 OFFCURVE",
"650 24 CURVE",
"719.74 20.65 OFFCURVE",
"770.4 19.99 OFFCURVE",
"802 22 CURVE SMOOTH",
"835.29 24.1 OFFCURVE",
"861.29 34.1 OFFCURVE",
"880 52 CURVE SMOOTH",
"883.81 56.09 OFFCURVE",
"887.59 61.3 OFFCURVE",
"891.37 67.62 CURVE SMOOTH",
"911.07 102.63 OFFCURVE",
"926.95 200.09 OFFCURVE",
"939 360 CURVE SMOOTH",
"940.89 382.68 OFFCURVE",
"941.89 394.35 OFFCURVE",
"942 395 CURVE"
);
}
);
vertWidth = 1000;
width = 1000;
}
);
note = uni4E66;
unicode = 4E66;
},
{
glyphname = uni4F20;
layers = (
{
hints = (
{
horizontal = 1;
place = "{275, 70}";
type = Stem;
},
{
horizontal = 1;
place = "{464, 69}";
type = Stem;
},
{
horizontal = 1;
place = "{652, 69}";
type = Stem;
},
{
place = "{162, 73}";
type = Stem;
}
);
layerId = "077E5A87-ACC6-4633-A27C-E6914C382A59";
paths = (
{
closed = 1;
nodes = (
"268 833 LINE",
"259.27 809.38 OFFCURVE",
"249.49 785.4 OFFCURVE",
"238.67 761.06 CURVE SMOOTH",
"179.41 628.46 OFFCURVE",
"106.85 520.1 OFFCURVE",
"21 436 CURVE",
"35.17 418.45 OFFCURVE",
"49.51 394.45 OFFCURVE",
"64 364 CURVE",
"101 403.32 OFFCURVE",
"133.67 442.98 OFFCURVE",
"162 483 CURVE",
"162 -75 LINE",
"235 -75 LINE",
"235 596 LINE",
"274.24 665.52 OFFCURVE",
"308.57 737.19 OFFCURVE",
"338 811 CURVE"
);
},
{
closed = 1;
nodes = (
"950 464 LINE",
"950 533 LINE",
"569 533 LINE",
"587.72 599.31 OFFCURVE",
"598.72 638.98 OFFCURVE",
"602 652 CURVE",
"905 652 LINE",
"905 721 LINE",
"621 721 LINE",
"626.08 740.2 OFFCURVE",
"634.75 773.54 OFFCURVE",
"647 821 CURVE",
"573 831 LINE",
"570.13 818.5 OFFCURVE",
"565.35 798.9 OFFCURVE",
"558.64 772.21 CURVE SMOOTH",
"552.95 749.61 OFFCURVE",
"548.74 732.54 OFFCURVE",
"546 721 CURVE",
"351 721 LINE",
"351 652 LINE",
"527 652 LINE",
"523.39 639.21 OFFCURVE",
"517.89 619.37 OFFCURVE",
"510.5 592.5 CURVE SMOOTH",
"503.17 565.83 OFFCURVE",
"497.67 546 OFFCURVE",
"494 533 CURVE",
"294 533 LINE",
"294 464 LINE",
"473 464 LINE",
"450.31 387.34 OFFCURVE",
"429.97 324.34 OFFCURVE",
"412 275 CURVE",
"767 275 LINE",
"724.51 225.63 OFFCURVE",
"675.18 170.63 OFFCURVE",
"619 110 CURVE",
"591 129.22 OFFCURVE",
"559 149.89 OFFCURVE",
"523 172 CURVE",
"470 127 LINE",
"482.1 119.31 OFFCURVE",
"494.91 110.89 OFFCURVE",
"508.45 101.74 CURVE SMOOTH",
"605.73 35.8 OFFCURVE",
"679.58 -23.78 OFFCURVE",
"730 -77 CURVE",
"785 -22 LINE",
"759.24 3.76 OFFCURVE",
"722.91 34.09 OFFCURVE",
"676 69 CURVE",
"769.67 172.54 OFFCURVE",
"843 255.21 OFFCURVE",
"896 317 CURVE",
"845 350 LINE",
"832 345 LINE",
"513 345 LINE",
"533.14 410.87 OFFCURVE",
"545.14 450.54 OFFCURVE",
"549 464 CURVE"
);
}
);
vertWidth = 1000;
width = 1000;
}
);
note = uni4F20;
unicode = 4F20;
},
{
glyphname = uni4F53;
layers = (
{
hints = (
{
horizontal = 1;
place = "{108, 68}";
type = Stem;
},
{
horizontal = 1;
place = "{564, 72}";
type = Stem;
},
{
place = "{163, 71}";
type = Stem;
},
{
place = "{580, 72}";
type = Stem;
}
);
layerId = "077E5A87-ACC6-4633-A27C-E6914C382A59";
paths = (
{
closed = 1;
nodes = (
"254 833 LINE",
"248.57 816.65 OFFCURVE",
"242.66 799.96 OFFCURVE",
"236.27 782.94 CURVE SMOOTH",
"182.4 640.17 OFFCURVE",
"115.31 524.52 OFFCURVE",
"35 436 CURVE",
"50.02 416.05 OFFCURVE",
"64.35 391.71 OFFCURVE",
"78 363 CURVE",
"107.7 397.91 OFFCURVE",
"136.03 436.24 OFFCURVE",
"163 478 CURVE",
"163 -75 LINE",
"234 -75 LINE",
"234 601 LINE",
"270.16 673.42 OFFCURVE",
"299.83 743.76 OFFCURVE",
"323 812 CURVE"
);
},
{
closed = 1;
nodes = (
"950 564 LINE",
"950 636 LINE",
"652 636 LINE",
"652 833 LINE",
"580 833 LINE",
"580 636 LINE",
"300 636 LINE",
"300 564 LINE",
"535 564 LINE",
"519.56 521.36 OFFCURVE",
"501.49 478.91 OFFCURVE",
"480.79 436.65 CURVE SMOOTH",
"415.36 303.69 OFFCURVE",
"342.1 204.47 OFFCURVE",
"261 139 CURVE",
"278.86 125.06 OFFCURVE",
"296.86 106.4 OFFCURVE",
"315 83 CURVE",
"328.35 95.27 OFFCURVE",
"342 109.04 OFFCURVE",
"355.95 124.31 CURVE SMOOTH",
"445.16 222.81 OFFCURVE",
"519.84 353.37 OFFCURVE",
"580 516 CURVE",
"580 176 LINE",
"417 176 LINE",
"417 108 LINE",
"580 108 LINE",
"580 -71 LINE",
"652 -71 LINE",
"652 108 LINE",
"813 108 LINE",
"813 176 LINE",
"652 176 LINE",
"652 523 LINE",
"662.65 492.7 OFFCURVE",
"674.41 462.42 OFFCURVE",
"687.28 432.15 CURVE SMOOTH",
"752.55 279.23 OFFCURVE",
"828.13 163.52 OFFCURVE",
"914.01 85 CURVE",
"929.31 108.06 OFFCURVE",
"947.98 127.73 OFFCURVE",
"970.01 144 CURVE",
"944.54 164.64 OFFCURVE",
"918.8 190.05 OFFCURVE",
"892.77 220.25 CURVE SMOOTH",
"811.76 314.99 OFFCURVE",
"747.51 429.57 OFFCURVE",
"700.01 564 CURVE"
);
}
);
vertWidth = 1000;
width = 1000;
}
);
note = uni4F53;
unicode = 4F53;
},
{
glyphname = uni5973;
layers = (
{
hints = (
{
horizontal = 1;
place = "{520, 78}";
type = Stem;
},
{
place = "{50, 891}";
type = Stem;
}
);
layerId = "077E5A87-ACC6-4633-A27C-E6914C382A59";
paths = (
{
closed = 1;
nodes = (
"669 520 LINE",
"636.46 387.36 OFFCURVE",
"586.12 283.36 OFFCURVE",
"518 208 CURVE",
"442.48 242.68 OFFCURVE",
"367.14 274.68 OFFCURVE",
"292 304 CURVE",
"330.71 384.04 OFFCURVE",
"363.05 456.04 OFFCURVE",
"389 520 CURVE"
);
},
{
closed = 1;
nodes = (
"941 520 LINE",
"941 598 LINE",
"421 598 LINE",
"453.79 685.5 OFFCURVE",
"480.12 764.17 OFFCURVE",
"500 834 CURVE",
"421 846 LINE",
"399.1 766.91 OFFCURVE",
"370.43 684.25 OFFCURVE",
"335 598 CURVE",
"63 598 LINE",
"63 520 LINE",
"303 520 LINE",
"259.08 419.4 OFFCURVE",
"217.75 336.07 OFFCURVE",
"179 270 CURVE",
"279.04 231.66 OFFCURVE",
"371.38 192.32 OFFCURVE",
"456 152 CURVE",
"363.36 81.81 OFFCURVE",
"228.02 33.14 OFFCURVE",
"50 6 CURVE",
"66.47 -12.89 OFFCURVE",
"79.8 -37.23 OFFCURVE",
"90 -67 CURVE",
"285.6 -34.42 OFFCURVE",
"434.26 25.58 OFFCURVE",
"536 113 CURVE",
"663.88 49 OFFCURVE",
"771.55 -14 OFFCURVE",
"859 -76 CURVE",
"919 -10 LINE",
"839.06 44.81 OFFCURVE",
"731.06 105.48 OFFCURVE",
"595 172 CURVE",
"666.21 255.86 OFFCURVE",
"718.21 371.86 OFFCURVE",
"751 520 CURVE"
);
}
);
vertWidth = 1000;
width = 1000;
}
);
note = uni5973;
unicode = 5973;
},
{
glyphname = uni7EDF;
layers = (
{
hints = (
{
horizontal = 1;
place = "{-56, 64}";
type = Stem;
},
{
horizontal = 1;
place = "{625, 67}";
type = Stem;
},
{
place = "{511, 73}";
type = Stem;
},
{
place = "{697, 73}";
type = Stem;
},
{
place = "{891, 64}";
type = Stem;
}
);
layerId = "077E5A87-ACC6-4633-A27C-E6914C382A59";
paths = (
{
closed = 1;
nodes = (
"945 362 LINE",
"917.67 414.51 OFFCURVE",
"868.67 487.51 OFFCURVE",
"798 581 CURVE",
"740 552 LINE",
"761.11 524.12 OFFCURVE",
"783.11 492.79 OFFCURVE",
"806 458 CURVE",
"532 435 LINE",
"572.79 485.13 OFFCURVE",
"620.46 548.47 OFFCURVE",
"675 625 CURVE",
"944 625 LINE",
"944 692 LINE",
"659 692 LINE",
"723 713 LINE",
"708.15 751.12 OFFCURVE",
"688.15 793.12 OFFCURVE",
"663 839 CURVE",
"595 820 LINE",
"623.36 760.27 OFFCURVE",
"641.36 717.6 OFFCURVE",
"649 692 CURVE",
"408 692 LINE",
"408 625 LINE",
"588 625 LINE",
"518.2 528.9 OFFCURVE",
"472.53 470.9 OFFCURVE",
"451 451 CURVE SMOOTH",
"439.44 439.23 OFFCURVE",
"418.44 428.89 OFFCURVE",
"388 420 CURVE",
"401.38 390.99 OFFCURVE",
"409.71 366.99 OFFCURVE",
"413 348 CURVE",
"416.86 349.67 OFFCURVE",
"421.29 351.27 OFFCURVE",
"426.3 352.8 CURVE SMOOTH",
"450.31 359.7 OFFCURVE",
"588.88 375.1 OFFCURVE",
"842 399 CURVE",
"857.88 372.79 OFFCURVE",
"871.21 348.45 OFFCURVE",
"882 326 CURVE"
);
},
{
closed = 1;
nodes = (
"182 289 LINE",
"259.96 379.57 OFFCURVE",
"330.63 479.9 OFFCURVE",
"394 590 CURVE",
"328 629 LINE",
"304.77 585.03 OFFCURVE",
"283.77 548.69 OFFCURVE",
"265 520 CURVE",
"144 507 LINE",
"207.87 597.2 OFFCURVE",
"263.87 696.54 OFFCURVE",
"312 805 CURVE",
"236 840 LINE",
"225.34 810.35 OFFCURVE",
"212.17 778.41 OFFCURVE",
"196.48 744.16 CURVE SMOOTH",
"158.43 661.43 OFFCURVE",
"124.6 599.71 OFFCURVE",
"95 559 CURVE SMOOTH",
"72.23 523.47 OFFCURVE",
"52.9 503.47 OFFCURVE",
"37 499 CURVE",
"49.26 468.83 OFFCURVE",
"57.92 443.16 OFFCURVE",
"63 422 CURVE",
"75.94 428.82 OFFCURVE",
"128.28 438.82 OFFCURVE",
"220 452 CURVE",
"178.37 390.66 OFFCURVE",
"145.37 346.99 OFFCURVE",
"121 321 CURVE SMOOTH",
"88.3 282.1 OFFCURVE",
"63.3 260.1 OFFCURVE",
"46 255 CURVE",
"56.07 229.6 OFFCURVE",
"64.07 205.94 OFFCURVE",
"70 184 CURVE",
"71.46 184.88 OFFCURVE",
"73.25 185.91 OFFCURVE",
"75.35 187.08 CURVE SMOOTH",
"95.25 197.62 OFFCURVE",
"193.8 222.26 OFFCURVE",
"371 261 CURVE",
"367.38 280.06 OFFCURVE",
"366.71 301.72 OFFCURVE",
"369 326 CURVE"
);
},
{
closed = 1;
nodes = (
"368 149 LINE",
"217.95 103.99 OFFCURVE",
"110.62 72.99 OFFCURVE",
"46 56 CURVE",
"63 -18 LINE",
"93.39 -8.1 OFFCURVE",
"144.8 8.45 OFFCURVE",
"217.22 31.65 CURVE SMOOTH",
"289.64 54.84 OFFCURVE",
"343.9 72.3 OFFCURVE",
"380 84 CURVE"
);
},
{
closed = 1;
nodes = (
"511 351 LINE",
"507.14 243.51 OFFCURVE",
"494.86 166.16 OFFCURVE",
"474.16 118.96 CURVE SMOOTH",
"447.44 59.03 OFFCURVE",
"395.72 14.71 OFFCURVE",
"319 -14 CURVE",
"335.81 -26.36 OFFCURVE",
"351.14 -46.02 OFFCURVE",
"365 -73 CURVE",
"446.26 -39.75 OFFCURVE",
"503.2 9.79 OFFCURVE",
"535.83 75.61 CURVE SMOOTH",
"563.42 132.7 OFFCURVE",
"579.48 224.5 OFFCURVE",
"584 351 CURVE"
);
},
{
closed = 1;
nodes = (
"795 8 LINE SMOOTH",
"788.76 8.05 OFFCURVE",
"783.73 8.57 OFFCURVE",
"779.9 9.57 CURVE SMOOTH",
"773.3 11.77 OFFCURVE",
"770 21.25 OFFCURVE",
"770 38 CURVE SMOOTH",
"770 352 LINE",
"697 352 LINE",
"697 38 LINE SMOOTH",
"697.08 10.27 OFFCURVE",
"700.25 -10.5 OFFCURVE",
"706.5 -24.3 CURVE SMOOTH",
"716.73 -45.44 OFFCURVE",
"742.56 -56 OFFCURVE",
"784 -56 CURVE SMOOTH",
"871 -56 LINE SMOOTH",
"893.11 -55.81 OFFCURVE",
"910.09 -49.93 OFFCURVE",
"921.94 -38.37 CURVE SMOOTH",
"940.29 -19.04 OFFCURVE",
"951.31 32.41 OFFCURVE",
"955 116 CURVE",
"926.38 123.32 OFFCURVE",
"905.04 133.32 OFFCURVE",
"891 146 CURVE",
"889.46 85.49 OFFCURVE",
"886.86 46.79 OFFCURVE",
"883.22 29.9 CURVE SMOOTH",
"879.88 15.3 OFFCURVE",
"873.14 8 OFFCURVE",
"863 8 CURVE SMOOTH"
);
}
);
vertWidth = 1000;
width = 1000;
}
);
note = uni7EDF;
unicode = 7EDF;
},
{
glyphname = u16FE1;
layers = (
{
hints = (
{
horizontal = 1;
place = "{331, 113}";
type = Stem;
},
{
horizontal = 1;
place = "{654, 113}";
type = Stem;
},
{
place = "{74, 106}";
type = Stem;
},
{
place = "{362, 106}";
type = Stem;
},
{
place = "{585, 80}";
type = Stem;
},
{
place = "{570, 80}";
type = Stem;
}
);
layerId = "077E5A87-ACC6-4633-A27C-E6914C382A59";
paths = (
{
closed = 1;
nodes = (
"415 237 LINE",
"576.33 417 OFFCURVE",
"659.67 671.33 OFFCURVE",
"665 1000 CURVE",
"585 1000 LINE",
"583.67 861.33 OFFCURVE",
"564.83 731.83 OFFCURVE",
"528.5 611.5 CURVE SMOOTH",
"492.17 491.17 OFFCURVE",
"443 395.67 OFFCURVE",
"381 325 CURVE",
"414 302 LINE",
"268 704 LINE",
"192 677 LINE",
"351 251 LINE"
);
},
{
closed = 1;
nodes = (
"143 331 OFFCURVE",
"155.83 336.33 OFFCURVE",
"165.5 347 CURVE SMOOTH",
"175.17 357.67 OFFCURVE",
"180 371 OFFCURVE",
"180 387 CURVE SMOOTH",
"180 403.67 OFFCURVE",
"175.17 417.33 OFFCURVE",
"165.5 428 CURVE SMOOTH",
"155.83 438.67 OFFCURVE",
"143 444 OFFCURVE",
"127 444 CURVE SMOOTH",
"111.67 444 OFFCURVE",
"99 438.67 OFFCURVE",
"89 428 CURVE SMOOTH",
"79 417.33 OFFCURVE",
"74 403.67 OFFCURVE",
"74 387 CURVE SMOOTH",
"74 371.67 OFFCURVE",
"79.17 358.5 OFFCURVE",
"89.5 347.5 CURVE SMOOTH",
"99.83 336.5 OFFCURVE",
"112.33 331 OFFCURVE",
"127 331 CURVE SMOOTH"
);
},
{
closed = 1;
nodes = (
"402 -120 LINE",
"567.33 34.67 OFFCURVE",
"650 183.33 OFFCURVE",
"650 326 CURVE SMOOTH",
"650 413.33 OFFCURVE",
"627.67 503.33 OFFCURVE",
"583 596 CURVE",
"532 509 LINE",
"557.33 443.67 OFFCURVE",
"570 382 OFFCURVE",
"570 324 CURVE SMOOTH",
"570 268.67 OFFCURVE",
"550.33 207.5 OFFCURVE",
"511 140.5 CURVE SMOOTH",
"471.67 73.5 OFFCURVE",
"417 6.67 OFFCURVE",
"347 -60 CURVE"
);
},
{
closed = 1;
nodes = (
"362 694.67 OFFCURVE",
"367.17 681.5 OFFCURVE",
"377.5 670.5 CURVE SMOOTH",
"387.83 659.5 OFFCURVE",
"400.33 654 OFFCURVE",
"415 654 CURVE SMOOTH",
"431 654 OFFCURVE",
"443.83 659.33 OFFCURVE",
"453.5 670 CURVE SMOOTH",
"463.17 680.67 OFFCURVE",
"468 694 OFFCURVE",
"468 710 CURVE SMOOTH",
"468 726.67 OFFCURVE",
"463.17 740.33 OFFCURVE",
"453.5 751 CURVE SMOOTH",
"443.83 761.67 OFFCURVE",
"431 767 OFFCURVE",
"415 767 CURVE SMOOTH",
"399.67 767 OFFCURVE",
"387 761.67 OFFCURVE",
"377 751 CURVE SMOOTH",
"367 740.33 OFFCURVE",
"362 726.67 OFFCURVE",
"362 710 CURVE SMOOTH"
);
}
);
vertWidth = 1000;
width = 800;
}
);
note = u16FE1;
unicode = 16FE1;
},
{
glyphname = u1B170;
layers = (
{
hints = (
{
place = "{510, 83}";
type = Stem;
}
);
layerId = "077E5A87-ACC6-4633-A27C-E6914C382A59";
paths = (
{
closed = 1;
nodes = (
"165 -120 LINE",
"312.01 28.23 OFFCURVE",
"419.34 193.23 OFFCURVE",
"487 375 CURVE SMOOTH",
"553.43 554.83 OFFCURVE",
"588.76 763.16 OFFCURVE",
"593 1000 CURVE",
"510 1000 LINE",
"505.94 781.12 OFFCURVE",
"472.27 583.46 OFFCURVE",
"409 407 CURVE SMOOTH",
"345.55 234.03 OFFCURVE",
"244.89 78.36 OFFCURVE",
"107 -60 CURVE"
);
}
);
vertWidth = 1000;
width = 800;
}
);
note = u1B170;
unicode = 1B170;
},
{
glyphname = u1B171;
layers = (
{
hints = (
{
place = "{557, 84}";
type = Stem;
}
);
layerId = "077E5A87-ACC6-4633-A27C-E6914C382A59";
paths = (
{
closed = 1;
nodes = (
"217 212 LINE",
"350 308 OFFCURVE",
"451 420 OFFCURVE",
"520 548 CURVE SMOOTH",
"589.47 677.21 OFFCURVE",
"629.81 826.21 OFFCURVE",
"641 995 CURVE",
"557 1000 LINE",
"545.93 845.85 OFFCURVE",
"508.93 709.52 OFFCURVE",
"446 591 CURVE SMOOTH",
"383.51 474.41 OFFCURVE",
"290.85 371.08 OFFCURVE",
"168 281 CURVE"
);
},
{
closed = 1;
nodes = (
"186 -120 LINE",
"334 -19 OFFCURVE",
"456 89 OFFCURVE",
"552 204 CURVE",
"487 257 LINE",
"395.79 149.14 OFFCURVE",
"279.79 46.81 OFFCURVE",
"139 -50 CURVE"
);
}
);
vertWidth = 1000;
width = 800;
}
);
note = u1B171;
unicode = 1B171;
},
{
glyphname = u1B172;
layers = (
{
hints = (
{
place = "{420, 80}";
type = Stem;
},
{
place = "{592, 78}";
type = Stem;
}
);
layerId = "077E5A87-ACC6-4633-A27C-E6914C382A59";
paths = (
{
closed = 1;
nodes = (
"167 211 LINE",
"330.9 316.12 OFFCURVE",
"452.56 428.12 OFFCURVE",
"532 547 CURVE SMOOTH",
"610.62 665.79 OFFCURVE",
"656.62 815.12 OFFCURVE",
"670 995 CURVE",
"592 1000 LINE",
"582.83 887.09 OFFCURVE",
"560.5 788.43 OFFCURVE",
"525 704 CURVE SMOOTH",
"487.78 618.85 OFFCURVE",
"437.78 543.18 OFFCURVE",
"375 477 CURVE SMOOTH",
"311.6 410.8 OFFCURVE",
"227.93 344.8 OFFCURVE",
"124 279 CURVE"
);
},
{
closed = 1;
nodes = (
"333 -120 LINE",
"389.9 -58.99 OFFCURVE",
"432.24 3.01 OFFCURVE",
"460 66 CURVE SMOOTH",
"486.4 126.97 OFFCURVE",
"499.73 193.3 OFFCURVE",
"500 265 CURVE SMOOTH",
"499.82 387.17 OFFCURVE",
"452.15 563.17 OFFCURVE",
"357 793 CURVE",
"284 761 LINE",
"332.46 643.22 OFFCURVE",
"367.46 545.56 OFFCURVE",
"389 468 CURVE SMOOTH",
"409.46 392.69 OFFCURVE",
"419.79 325.02 OFFCURVE",
"420 265 CURVE SMOOTH",
"419.87 204.32 OFFCURVE",
"408.54 147.65 OFFCURVE",
"386 95 CURVE SMOOTH",
"363.51 43.57 OFFCURVE",
"326.51 -10.1 OFFCURVE",
"275 -66 CURVE"
);
}
);
vertWidth = 1000;
width = 800;
}
);
note = u1B172;
unicode = 1B172;
},
{
glyphname = u1B173;
layers = (
{
hints = (
{
place = "{416, 83}";
type = Stem;
}
);
layerId = "077E5A87-ACC6-4633-A27C-E6914C382A59";
paths = (
{
closed = 1;
nodes = (
"143 -120 LINE",
"210.86 -44.92 OFFCURVE",
"267.19 32.75 OFFCURVE",
"312 113 CURVE SMOOTH",
"356.96 194.09 OFFCURVE",
"392.96 281.42 OFFCURVE",
"420 375 CURVE SMOOTH",
"446 469 OFFCURVE",
"465 565 OFFCURVE",
"477 663 CURVE SMOOTH",
"488.53 757.51 OFFCURVE",
"495.87 869.85 OFFCURVE",
"499 1000 CURVE",
"416 1000 LINE",
"410 756 OFFCURVE",
"383 551 OFFCURVE",
"335 385 CURVE SMOOTH",
"285.65 218.42 OFFCURVE",
"200.31 68.75 OFFCURVE",
"79 -64 CURVE"
);
},
{
closed = 1;
nodes = (
"384 349 LINE",
"470.89 231.67 OFFCURVE",
"551.56 85 OFFCURVE",
"626 -91 CURVE",
"701 -58 LINE",
"612.76 147.34 OFFCURVE",
"517.43 314.34 OFFCURVE",
"415 443 CURVE"
);
}
);
vertWidth = 1000;
width = 800;
}
);
note = u1B173;
unicode = 1B173;
},
{
glyphname = u1B174;
layers = (
{
hints = (
{
place = "{237, 82}";
type = Stem;
},
{
place = "{495, 79}";
type = Stem;
}
);
layerId = "077E5A87-ACC6-4633-A27C-E6914C382A59";
paths = (
{
closed = 1;
nodes = (
"179 -120 LINE",
"272.33 53.33 OFFCURVE",
"319 222.67 OFFCURVE",
"319 388 CURVE SMOOTH",
"319 526.67 OFFCURVE",
"286.33 672 OFFCURVE",
"221 824 CURVE",
"146 791 LINE",
"206.67 649.67 OFFCURVE",
"237 515.33 OFFCURVE",
"237 388 CURVE SMOOTH",
"237 234.67 OFFCURVE",
"193.67 78.33 OFFCURVE",
"107 -81 CURVE"
);
},
{
closed = 1;
nodes = (
"495 397.33 OFFCURVE",
"540.67 228.67 OFFCURVE",
"632 58 CURVE",
"704 99 LINE",
"617.33 257 OFFCURVE",
"574 412 OFFCURVE",
"574 564 CURVE SMOOTH",
"574 692 OFFCURVE",
"605.33 826.67 OFFCURVE",
"668 968 CURVE",
"592 1000 LINE",
"527.33 850 OFFCURVE",
"495 704.67 OFFCURVE",
"495 564 CURVE SMOOTH"
);
}
);
vertWidth = 1000;
width = 800;
}
);
note = u1B174;
unicode = 1B174;
},
{
glyphname = u1B175;
layers = (
{
hints = (
{
place = "{529, 79}";
type = Stem;
}
);
layerId = "077E5A87-ACC6-4633-A27C-E6914C382A59";
paths = (
{
closed = 1;
nodes = (
"668 32 LINE",
"610.67 168.67 OFFCURVE",
"542 301 OFFCURVE",
"462 429 CURVE SMOOTH",
"391.33 542.33 OFFCURVE",
"313 646.67 OFFCURVE",
"227 742 CURVE",
"168 689 LINE",
"269.33 573 OFFCURVE",
"354.67 455.67 OFFCURVE",
"424 337 CURVE SMOOTH",
"494.67 216.33 OFFCURVE",
"551.67 104 OFFCURVE",
"595 0 CURVE"
);
},
{
closed = 1;
nodes = (
"152 -120 LINE",
"278.67 16.67 OFFCURVE",
"380.67 160.67 OFFCURVE",
"458 312 CURVE",
"407 397 LINE",
"340.33 243.67 OFFCURVE",
"236 89.67 OFFCURVE",
"94 -65 CURVE"
);
},
{
closed = 1;
nodes = (
"487 357 LINE",
"522.33 444.33 OFFCURVE",
"549.33 537.5 OFFCURVE",
"568 636.5 CURVE SMOOTH",
"586.67 735.5 OFFCURVE",
"600 855.67 OFFCURVE",
"608 997 CURVE",
"529 1000 LINE",
"515 770 OFFCURVE",
"482.67 585.33 OFFCURVE",
"432 446 CURVE"
);
}
);
vertWidth = 1000;
width = 800;
}
);
note = u1B175;
unicode = 1B175;
},
{
glyphname = u1B176;
layers = (
{
hints = (
{
horizontal = 1;
place = "{340, 125}";
type = Stem;
},
{
place = "{145, 116}";
type = Stem;
},
{
place = "{516, 85}";
type = Stem;
}
);
layerId = "077E5A87-ACC6-4633-A27C-E6914C382A59";
paths = (
{
closed = 1;
nodes = (
"391 -120 LINE",
"530.54 54.81 OFFCURVE",
"600.54 259.48 OFFCURVE",
"601 494 CURVE SMOOTH",
"600.87 648.09 OFFCURVE",
"566.87 816.75 OFFCURVE",
"499 1000 CURVE",
"417 971 LINE",
"483 783 OFFCURVE",
"516 622 OFFCURVE",
"516 488 CURVE SMOOTH",
"515.77 280.38 OFFCURVE",
"451.43 96.04 OFFCURVE",
"323 -65 CURVE"
);
},
{
closed = 1;
nodes = (
"220 340 OFFCURVE",
"234 346 OFFCURVE",
"245 358 CURVE SMOOTH",
"255.17 369.51 OFFCURVE",
"260.51 384.17 OFFCURVE",
"261 402 CURVE SMOOTH",
"260.79 420.1 OFFCURVE",
"255.79 435.43 OFFCURVE",
"246 448 CURVE",
"234.8 458.83 OFFCURVE",
"220.46 464.49 OFFCURVE",
"203 465 CURVE SMOOTH",
"187.23 464.73 OFFCURVE",
"173.57 458.73 OFFCURVE",
"162 447 CURVE SMOOTH",
"151.15 434.79 OFFCURVE",
"145.48 419.79 OFFCURVE",
"145 402 CURVE SMOOTH",
"145.27 385.5 OFFCURVE",
"150.93 370.84 OFFCURVE",
"162 358 CURVE SMOOTH",
"172.83 346.58 OFFCURVE",
"186.49 340.58 OFFCURVE",
"203 340 CURVE SMOOTH"
);
}
);
vertWidth = 1000;
width = 800;
}
);
note = u1B176;
unicode = 1B176;
},
{
glyphname = u1B177;
layers = (
{
hints = (
{
horizontal = 1;
place = "{341, 125}";
type = Stem;
},
{
place = "{212, 83}";
type = Stem;
},
{
place = "{551, 116}";
type = Stem;
}
);
layerId = "077E5A87-ACC6-4633-A27C-E6914C382A59";
paths = (
{
closed = 1;
nodes = (
"461 -73 LINE",
"350.78 73.35 OFFCURVE",
"295.44 240.35 OFFCURVE",
"295 428 CURVE SMOOTH",
"295 517 OFFCURVE",
"307 603 OFFCURVE",
"331 686 CURVE SMOOTH",
"352.7 764.03 OFFCURVE",
"389.04 855.69 OFFCURVE",
"440 961 CURVE",
"363 1000 LINE",
"314.08 898.19 OFFCURVE",
"276.41 800.52 OFFCURVE",
"250 707 CURVE SMOOTH",
"224.85 616.11 OFFCURVE",
"212.18 523.44 OFFCURVE",
"212 429 CURVE SMOOTH",
"212.22 220.35 OFFCURVE",
"272.55 35.02 OFFCURVE",
"393 -127 CURVE"
);
},
{
closed = 1;
nodes = (
"626 341 OFFCURVE",
"640 347 OFFCURVE",
"651 359 CURVE SMOOTH",
"661.17 370.51 OFFCURVE",
"666.51 385.17 OFFCURVE",
"667 403 CURVE SMOOTH",
"666.79 421.1 OFFCURVE",
"661.79 436.43 OFFCURVE",
"652 449 CURVE",
"640.8 459.83 OFFCURVE",
"626.46 465.49 OFFCURVE",
"609 466 CURVE SMOOTH",
"593.23 465.73 OFFCURVE",
"579.57 459.73 OFFCURVE",
"568 448 CURVE SMOOTH",
"557.15 435.79 OFFCURVE",
"551.48 420.79 OFFCURVE",
"551 403 CURVE SMOOTH",
"551.27 386.5 OFFCURVE",
"556.93 371.84 OFFCURVE",
"568 359 CURVE SMOOTH",
"578.83 347.58 OFFCURVE",
"592.49 341.58 OFFCURVE",
"609 341 CURVE SMOOTH"
);
}
);
vertWidth = 1000;
width = 800;
}
);
note = u1B177;
unicode = 1B177;
},
{
glyphname = u1B178;
layers = (
{
hints = (
{
place = "{189, 80}";
type = Stem;
},
{
place = "{412, 82}";
type = Stem;
},
{
place = "{563, 79}";
type = Stem;
}
);
layerId = "077E5A87-ACC6-4633-A27C-E6914C382A59";
paths = (
{
closed = 1;
nodes = (
"260 -120 LINE",
"415.59 52.99 OFFCURVE",
"493.59 306.32 OFFCURVE",
"494 640 CURVE SMOOTH",
"494 744 OFFCURVE",
"487 864 OFFCURVE",
"473 1000 CURVE",
"392 990 LINE",
"405.26 850.02 OFFCURVE",
"411.93 733.36 OFFCURVE",
"412 640 CURVE SMOOTH",
"411.92 478.41 OFFCURVE",
"394.58 340.41 OFFCURVE",
"360 226 CURVE SMOOTH",
"325.32 112.61 OFFCURVE",
"270.99 14.61 OFFCURVE",
"197 -68 CURVE"
);
},
{
closed = 1;
nodes = (
"129 51 LINE",
"221.83 150.21 OFFCURVE",
"268.49 272.21 OFFCURVE",
"269 417 CURVE SMOOTH",
"268.9 483.49 OFFCURVE",
"258.24 557.49 OFFCURVE",
"237 639 CURVE",
"160 616 LINE",
"179.14 542.16 OFFCURVE",
"188.81 475.83 OFFCURVE",
"189 417 CURVE SMOOTH",
"188.74 292.21 OFFCURVE",
"149.08 187.88 OFFCURVE",
"70 104 CURVE"
);
},
{
closed = 1;
nodes = (
"563.18 139.97 OFFCURVE",
"591.84 30.97 OFFCURVE",
"649 -78 CURVE",
"720 -41 LINE",
"668.36 54.67 OFFCURVE",
"642.36 151.01 OFFCURVE",
"642 248 CURVE SMOOTH",
"642.14 329.2 OFFCURVE",
"660.48 414.53 OFFCURVE",
"697 504 CURVE",
"624 536 LINE",
"583.62 439.15 OFFCURVE",
"563.29 343.48 OFFCURVE",
"563 249 CURVE SMOOTH"
);
}
);
vertWidth = 1000;
width = 800;
}
);
note = u1B178;
unicode = 1B178;
},
{
glyphname = u1B179;
layers = (
{
hints = (
{
place = "{378, 83}";
type = Stem;
},
{
place = "{486, 80}";
type = Stem;
}
);
layerId = "077E5A87-ACC6-4633-A27C-E6914C382A59";
paths = (
{
closed = 1;
nodes = (
"192 434 LINE",
"460.75 544.91 OFFCURVE",
"622.09 728.91 OFFCURVE",
"676 986 CURVE",
"595 1000 LINE",
"547.77 778.06 OFFCURVE",
"402.77 614.73 OFFCURVE",
"160 510 CURVE"
);
},
{
closed = 1;
nodes = (
"434 -120 LINE",
"452 -37 OFFCURVE",
"461 53 OFFCURVE",
"461 150 CURVE SMOOTH",
"460.96 222.17 OFFCURVE",
"456.62 287.83 OFFCURVE",
"448 347 CURVE",
"366 314 LINE",
"373.9 259.35 OFFCURVE",
"377.9 204.68 OFFCURVE",
"378 150 CURVE SMOOTH",
"377.93 60.94 OFFCURVE",
"369.26 -24.06 OFFCURVE",
"352 -105 CURVE"
);
},
{
closed = 1;
nodes = (
"180 162 LINE",
"311 211 OFFCURVE",
"408 268 OFFCURVE",
"471 333 CURVE SMOOTH",
"533.77 398.13 OFFCURVE",
"565.44 472.8 OFFCURVE",
"566 557 CURVE SMOOTH",
"565.87 604.45 OFFCURVE",
"554.87 658.78 OFFCURVE",
"533 720 CURVE",
"460 689 LINE",
"477.07 640.52 OFFCURVE",
"485.74 597.19 OFFCURVE",
"486 559 CURVE SMOOTH",
"486 493 OFFCURVE",
"459 434 OFFCURVE",
"405 382 CURVE SMOOTH",
"351.54 330.79 OFFCURVE",
"267.54 283.46 OFFCURVE",
"153 240 CURVE"
);
}
);
vertWidth = 1000;
width = 800;
}
);
note = u1B179;
unicode = 1B179;
},
{
glyphname = u1B17A;
layers = (
{
hints = (
{
place = "{411, 81}";
type = Stem;
},
{
place = "{541, 81}";
type = Stem;
}
);
layerId = "077E5A87-ACC6-4633-A27C-E6914C382A59";
paths = (
{
closed = 1;
nodes = (
"688 322 LINE",
"582 524 OFFCURVE",
"427.67 707 OFFCURVE",
"225 871 CURVE",
"173 811 LINE",
"263.67 735 OFFCURVE",
"348.5 650.83 OFFCURVE",
"427.5 558.5 CURVE SMOOTH",
"506.5 466.17 OFFCURVE",
"570.33 373 OFFCURVE",
"619 279 CURVE"
);
},
{
closed = 1;
nodes = (
"458 -120 LINE",
"480.67 -47.33 OFFCURVE",
"492 42 OFFCURVE",
"492 148 CURVE SMOOTH",
"492 220 OFFCURVE",
"486.67 286 OFFCURVE",
"476 346 CURVE",
"397 332 LINE",
"406.33 270.67 OFFCURVE",
"411 208 OFFCURVE",
"411 144 CURVE SMOOTH",
"411 46.67 OFFCURVE",
"401 -35.67 OFFCURVE",
"381 -103 CURVE"
);
},
{
closed = 1;
nodes = (
"164 241 LINE",
"300 341.67 OFFCURVE",
"404.67 451.67 OFFCURVE",
"478 571 CURVE",
"419 634 LINE",
"350.33 519.33 OFFCURVE",
"248 410.33 OFFCURVE",
"112 307 CURVE"
);
},
{
closed = 1;
nodes = (
"478 568 LINE",
"551.33 688.67 OFFCURVE",
"599.33 829.33 OFFCURVE",
"622 990 CURVE",
"541 1000 LINE",
"520.33 861.33 OFFCURVE",
"479.67 738.33 OFFCURVE",
"419 631 CURVE"
);
}
);
vertWidth = 1000;
width = 800;
}
);
note = u1B17A;
unicode = 1B17A;
},
{
glyphname = u1B17B;
layers = (
{
hints = (
{
place = "{582, 80}";
type = Stem;
}
);
layerId = "077E5A87-ACC6-4633-A27C-E6914C382A59";
paths = (
{
closed = 1;
nodes = (
"553 0 LINE",
"628 27 LINE",
"340 816 LINE",
"265 789 LINE"
);
},
{
closed = 1;
nodes = (
"177 -120 LINE",
"311.67 12.67 OFFCURVE",
"422.33 158 OFFCURVE",
"509 316 CURVE",
"438 353 LINE",
"356.67 203.67 OFFCURVE",
"251.67 65.67 OFFCURVE",
"123 -61 CURVE"
);
},
{
closed = 1;
nodes = (
"181 284 LINE",
"261.67 336.67 OFFCURVE",
"335.33 395.33 OFFCURVE",
"402 460 CURVE",
"371 545 LINE",
"309 478.33 OFFCURVE",
"231.67 414.33 OFFCURVE",
"139 353 CURVE"
);
},
{
closed = 1;
nodes = (
"442 490 LINE",
"569.33 630.67 OFFCURVE",
"642.67 799 OFFCURVE",
"662 995 CURVE",
"582 1000 LINE",
"566 837.33 OFFCURVE",
"509 696.33 OFFCURVE",
"411 577 CURVE"
);
}
);
vertWidth = 1000;
width = 800;
}
);
note = u1B17B;
unicode = 1B17B;
},
{
glyphname = u1B17C;
layers = (
{
hints = (
{
place = "{493, 79}";
type = Stem;
},
{
place = "{556, 78}";
type = Stem;
}
);
layerId = "077E5A87-ACC6-4633-A27C-E6914C382A59";
paths = (
{
closed = 1;
nodes = (
"686 -58 LINE",
"640.29 22.09 OFFCURVE",
"582.29 102.75 OFFCURVE",
"512 184 CURVE",
"551.67 253.79 OFFCURVE",
"571.67 333.46 OFFCURVE",
"572 423 CURVE SMOOTH",
"571.89 505.83 OFFCURVE",
"557.23 593.83 OFFCURVE",
"528 687 CURVE",
"571.31 772.82 OFFCURVE",
"606.64 871.15 OFFCURVE",
"634 982 CURVE",
"556 1000 LINE",
"493.02 755.92 OFFCURVE",
"373.69 550.25 OFFCURVE",
"198 383 CURVE",
"198 381 LINE",
"278 313 OFFCURVE",
"349 245 OFFCURVE",
"411 177 CURVE",
"352.86 99.56 OFFCURVE",
"248.86 24.22 OFFCURVE",
"99 -49 CURVE",
"136 -120 LINE",
"282.79 -52.38 OFFCURVE",
"392.13 26.62 OFFCURVE",
"464 117 CURVE",
"525.18 44.85 OFFCURVE",
"576.52 -27.48 OFFCURVE",
"618 -100 CURVE"
);
},
{
closed = 1;
nodes = (
"371.39 447.06 OFFCURVE",
"425.39 516.73 OFFCURVE",
"474 591 CURVE",
"486.51 533.9 OFFCURVE",
"492.84 478.56 OFFCURVE",
"493 425 CURVE SMOOTH",
"492.86 358.09 OFFCURVE",
"480.53 298.76 OFFCURVE",
"456 247 CURVE",
"407 298 OFFCURVE",
"359 343 OFFCURVE",
"312 382 CURVE"
);
}
);
vertWidth = 1000;
width = 800;
}
);
note = u1B17C;
unicode = 1B17C;
},
{
glyphname = u1B17D;
layers = (
{
hints = (
{
horizontal = 1;
place = "{197, 121}";
type = Stem;
},
{
place = "{459, 81}";
type = Stem;
},
{
place = "{615, 112}";
type = Stem;
},
{
place = "{393, 82}";
type = Stem;
}
);
layerId = "077E5A87-ACC6-4633-A27C-E6914C382A59";
paths = (
{
closed = 1;
nodes = (
"459 1000 LINE",
"442.09 841.85 OFFCURVE",
"405.43 700.52 OFFCURVE",
"349 576 CURVE SMOOTH",
"293.49 455.27 OFFCURVE",
"210.82 342.27 OFFCURVE",
"101 237 CURVE",
"159 175 LINE",
"250.97 262.13 OFFCURVE",
"325.97 355.47 OFFCURVE",
"384 455 CURVE",
"389.94 385.42 OFFCURVE",
"392.94 321.09 OFFCURVE",
"393 262 CURVE SMOOTH",
"392.93 146.94 OFFCURVE",
"379.93 24.27 OFFCURVE",
"354 -106 CURVE",
"434 -120 LINE",
"461.19 19.28 OFFCURVE",
"474.86 146.61 OFFCURVE",
"475 262 CURVE SMOOTH",
"474.95 361.84 OFFCURVE",
"466.62 472.18 OFFCURVE",
"450 593 CURVE",
"495 705.81 OFFCURVE",
"525 839.47 OFFCURVE",
"540 994 CURVE"
);
},
{
closed = 1;
nodes = (
"702.7 310.77 OFFCURVE",
"689.03 316.44 OFFCURVE",
"671 318 CURVE SMOOTH",
"657.13 317.72 OFFCURVE",
"643.8 312.05 OFFCURVE",
"631 301 CURVE",
"620.78 288.42 OFFCURVE",
"615.45 273.75 OFFCURVE",
"615 257 CURVE SMOOTH",
"615.27 241.24 OFFCURVE",
"620.6 227.24 OFFCURVE",
"631 215 CURVE SMOOTH",
"641.84 204.5 OFFCURVE",
"655.18 198.5 OFFCURVE",
"671 197 CURVE SMOOTH",
"686.51 197.28 OFFCURVE",
"700.18 202.95 OFFCURVE",
"712 214 CURVE SMOOTH",
"721.54 224.88 OFFCURVE",
"726.54 239.21 OFFCURVE",
"727 257 CURVE SMOOTH",
"726.79 273.78 OFFCURVE",
"721.79 288.45 OFFCURVE",
"712 301 CURVE SMOOTH"
);
}
);
vertWidth = 1000;
width = 800;
}
);
note = u1B17D;
unicode = 1B17D;
},
{
glyphname = u1B17E;
layers = (
{
hints = (
{
place = "{282, 82}";
type = Stem;
},
{
place = "{521, 84}";
type = Stem;
}
);
layerId = "077E5A87-ACC6-4633-A27C-E6914C382A59";
paths = (
{
closed = 1;
nodes = (
"294 -120 LINE",
"340.67 -20.67 OFFCURVE",
"364 76 OFFCURVE",
"364 170 CURVE SMOOTH",
"364 288.67 OFFCURVE",
"328.67 399.33 OFFCURVE",
"258 502 CURVE",
"250 459 LINE",
"335.33 518.33 OFFCURVE",
"407.5 589.67 OFFCURVE",
"466.5 673 CURVE SMOOTH",
"525.5 756.33 OFFCURVE",
"575 857.33 OFFCURVE",
"615 976 CURVE",
"538 1000 LINE",
"500.67 887.33 OFFCURVE",
"451.83 790 OFFCURVE",
"391.5 708 CURVE SMOOTH",
"331.17 626 OFFCURVE",
"255.67 554.67 OFFCURVE",
"165 494 CURVE",
"165 492 LINE",
"243 388 OFFCURVE",
"282 280.67 OFFCURVE",
"282 170 CURVE SMOOTH",
"282 88.67 OFFCURVE",
"261.33 4 OFFCURVE",
"220 -84 CURVE"
);
},
{
closed = 1;
nodes = (
"400 665 LINE",
"438 609.67 OFFCURVE",
"467.67 547 OFFCURVE",
"489 477 CURVE SMOOTH",
"510.33 407 OFFCURVE",
"521 337 OFFCURVE",
"521 267 CURVE SMOOTH",
"521 245 OFFCURVE",
"520 223.67 OFFCURVE",
"518 203 CURVE",
"600 197 LINE",
"603.33 217 OFFCURVE",
"605 242.67 OFFCURVE",
"605 274 CURVE SMOOTH",
"605 348 OFFCURVE",
"592.5 425 OFFCURVE",
"567.5 505 CURVE SMOOTH",
"542.5 585 OFFCURVE",
"509 655.33 OFFCURVE",
"467 716 CURVE"
);
}
);
vertWidth = 1000;
width = 800;
}
);
note = u1B17E;
unicode = 1B17E;
},
{
glyphname = u1B17F;
layers = (
{
hints = (
{
horizontal = 1;
place = "{271, 125}";
type = Stem;
},
{
place = "{76, 116}";
type = Stem;
},
{
place = "{409, 85}";
type = Stem;
},
{
place = "{614, 116}";
type = Stem;
}
);
layerId = "077E5A87-ACC6-4633-A27C-E6914C382A59";
paths = (
{
closed = 1;
nodes = (
"202 -120 LINE",
"303.33 -10 OFFCURVE",
"375.5 106.5 OFFCURVE",
"418.5 229.5 CURVE SMOOTH",
"461.5 352.5 OFFCURVE",
"486.67 512.33 OFFCURVE",
"494 709 CURVE SMOOTH",
"497.33 795.67 OFFCURVE",
"497 892.67 OFFCURVE",
"493 1000 CURVE",
"410 998 LINE",
"412.67 898 OFFCURVE",
"412.33 802.67 OFFCURVE",
"409 712 CURVE SMOOTH",
"402.33 525.33 OFFCURVE",
"379.5 375.33 OFFCURVE",
"340.5 262 CURVE SMOOTH",
"301.5 148.67 OFFCURVE",
"234.67 40.67 OFFCURVE",
"140 -62 CURVE"
);
},
{
closed = 1;
nodes = (
"151.33 271 OFFCURVE",
"165.33 277 OFFCURVE",
"176 289 CURVE SMOOTH",
"186.67 301 OFFCURVE",
"192 315.67 OFFCURVE",
"192 333 CURVE SMOOTH",
"192 351.67 OFFCURVE",
"186.67 366.83 OFFCURVE",
"176 378.5 CURVE SMOOTH",
"165.33 390.17 OFFCURVE",
"151.33 396 OFFCURVE",
"134 396 CURVE SMOOTH",
"117.33 396 OFFCURVE",
"103.5 390 OFFCURVE",
"92.5 378 CURVE SMOOTH",
"81.5 366 OFFCURVE",
"76 351 OFFCURVE",
"76 333 CURVE SMOOTH",
"76 315.67 OFFCURVE",
"81.5 301 OFFCURVE",
"92.5 289 CURVE SMOOTH",
"103.5 277 OFFCURVE",
"117.33 271 OFFCURVE",
"134 271 CURVE SMOOTH"
);
},
{
closed = 1;
nodes = (
"614 317.67 OFFCURVE",
"619.5 303 OFFCURVE",
"630.5 291 CURVE SMOOTH",
"641.5 279 OFFCURVE",
"655.33 273 OFFCURVE",
"672 273 CURVE SMOOTH",
"689.33 273 OFFCURVE",
"703.33 279 OFFCURVE",
"714 291 CURVE SMOOTH",
"724.67 303 OFFCURVE",
"730 317.67 OFFCURVE",
"730 335 CURVE SMOOTH",
"730 353.67 OFFCURVE",
"724.67 368.83 OFFCURVE",
"714 380.5 CURVE SMOOTH",
"703.33 392.17 OFFCURVE",
"689.33 398 OFFCURVE",
"672 398 CURVE SMOOTH",
"655.33 398 OFFCURVE",
"641.5 392 OFFCURVE",
"630.5 380 CURVE SMOOTH",
"619.5 368 OFFCURVE",
"614 353 OFFCURVE",
"614 335 CURVE SMOOTH"
);
}
);
vertWidth = 1000;
width = 800;
}
);
note = u1B17F;
unicode = 1B17F;
},
{
glyphname = u1B180;
layers = (
{
hints = (
{
place = "{563, 81}";
type = Stem;
}
);
layerId = "077E5A87-ACC6-4633-A27C-E6914C382A59";
paths = (
{
closed = 1;
nodes = (
"325 402 LINE",
"273.39 344.73 OFFCURVE",
"206.72 288.4 OFFCURVE",
"125 233 CURVE",
"171 161 LINE",
"244.58 211.86 OFFCURVE",
"306.91 263.2 OFFCURVE",
"358 315 CURVE"
);
},
{
closed = 1;
nodes = (
"262 -120 LINE",
"405.82 -21.37 OFFCURVE",
"536.16 91.3 OFFCURVE",
"653 218 CURVE",
"593 272 LINE",
"483.46 150.56 OFFCURVE",
"358.46 42.9 OFFCURVE",
"218 -51 CURVE"
);
},
{
closed = 1;
nodes = (
"250 727 LINE",
"173 699 LINE",
"406 59 LINE",
"483 87 LINE"
);
},
{
closed = 1;
nodes = (
"363 310 LINE",
"451.36 400.58 OFFCURVE",
"518.03 500.91 OFFCURVE",
"563 611 CURVE SMOOTH",
"607.81 721.86 OFFCURVE",
"634.81 850.19 OFFCURVE",
"644 996 CURVE",
"563 1000 LINE",
"556.02 874.11 OFFCURVE",
"533.68 761.44 OFFCURVE",
"496 662 CURVE SMOOTH",
"459.03 565.52 OFFCURVE",
"403.7 477.19 OFFCURVE",
"330 397 CURVE"
);
}
);
vertWidth = 1000;
width = 800;
}
);
note = u1B180;
unicode = 1B180;
},
{
glyphname = u1B181;
layers = (
{
hints = (
{
place = "{457, 81}";
type = Stem;
}
);
layerId = "077E5A87-ACC6-4633-A27C-E6914C382A59";
paths = (
{
closed = 1;
nodes = (
"157 422 LINE",
"260.33 330 OFFCURVE",
"345 242.83 OFFCURVE",
"411 160.5 CURVE SMOOTH",
"477 78.17 OFFCURVE",
"532.67 -15.33 OFFCURVE",
"578 -120 CURVE",
"651 -87 LINE",
"563 114.33 OFFCURVE",
"429 290.33 OFFCURVE",
"249 441 CURVE",
"249 408 LINE",
"316.33 462.67 OFFCURVE",
"376.67 523 OFFCURVE",
"430 589 CURVE",
"386 662 LINE",
"326.67 587.33 OFFCURVE",
"250.33 508.67 OFFCURVE",
"157 426 CURVE"
);
},
{
closed = 1;
nodes = (
"471 636 LINE",
"545 739.33 OFFCURVE",
"602.33 853.67 OFFCURVE",
"643 979 CURVE",
"566 1000 LINE",
"529.33 890 OFFCURVE",
"481.33 792.33 OFFCURVE",
"422 707 CURVE"
);
},
{
closed = 1;
nodes = (
"479 173 LINE",
"518.33 236.33 OFFCURVE",
"538 312.67 OFFCURVE",
"538 402 CURVE SMOOTH",
"538 508 OFFCURVE",
"514.17 598.17 OFFCURVE",
"466.5 672.5 CURVE SMOOTH",
"418.83 746.83 OFFCURVE",
"345.67 809.33 OFFCURVE",
"247 860 CURVE",
"207 792 LINE",
"291 743.33 OFFCURVE",
"353.67 687.67 OFFCURVE",
"395 625 CURVE SMOOTH",
"436.33 562.33 OFFCURVE",
"457 488.33 OFFCURVE",
"457 403 CURVE SMOOTH",
"457 343.67 OFFCURVE",
"445.67 291.67 OFFCURVE",
"423 247 CURVE"
);
},
{
closed = 1;
nodes = (
"395 200 LINE",
"342.33 132 OFFCURVE",
"262 74 OFFCURVE",
"154 26 CURVE",
"191 -46 LINE",
"301.67 1.33 OFFCURVE",
"387.67 61 OFFCURVE",
"449 133 CURVE"
);
}
);
vertWidth = 1000;
width = 800;
}
);
note = u1B181;
unicode = 1B181;
},
{
glyphname = u1B182;
layers = (
{
hints = (
{
place = "{586, 79}";
type = Stem;
},
{
place = "{518, 79}";
type = Stem;
}
);
layerId = "077E5A87-ACC6-4633-A27C-E6914C382A59";
paths = (
{
closed = 1;
nodes = (
"349 405 LINE",
"427.67 491 OFFCURVE",
"492.33 580.33 OFFCURVE",
"543 673 CURVE SMOOTH",
"593.67 765.67 OFFCURVE",
"634.33 869.67 OFFCURVE",
"665 985 CURVE",
"586 1000 LINE",
"529.33 795.33 OFFCURVE",
"433 617 OFFCURVE",
"297 465 CURVE"
);
},
{
closed = 1;
nodes = (
"473 -120 LINE",
"548 -93 LINE",
"247 734 LINE",
"172 707 LINE"
);
},
{
closed = 1;
nodes = (
"457 131 LINE",
"550.33 228.33 OFFCURVE",
"597 346 OFFCURVE",
"597 484 CURVE SMOOTH",
"597 568.67 OFFCURVE",
"579 663.67 OFFCURVE",
"543 769 CURVE",
"491 680 LINE",
"509 608.67 OFFCURVE",
"518 543 OFFCURVE",
"518 483 CURVE SMOOTH",
"518 385 OFFCURVE",
"487.33 297.33 OFFCURVE",
"426 220 CURVE"
);
},
{
closed = 1;
nodes = (
"380 185 LINE",
"310.67 123.67 OFFCURVE",
"225.33 68.33 OFFCURVE",
"124 19 CURVE",
"156 -54 LINE",
"248 -11.33 OFFCURVE",
"333 40.33 OFFCURVE",
"411 101 CURVE"
);
}
);
vertWidth = 1000;
width = 800;
}
);
note = u1B182;
unicode = 1B182;
},
{
glyphname = u1B183;
layers = (
{
hints = (
{
place = "{529, 81}";
type = Stem;
}
);
layerId = "077E5A87-ACC6-4633-A27C-E6914C382A59";
paths = (
{
closed = 1;
nodes = (
"148 200 LINE",
"294 300 OFFCURVE",
"403.5 413.17 OFFCURVE",
"476.5 539.5 CURVE SMOOTH",
"549.5 665.83 OFFCURVE",
"594 818 OFFCURVE",
"610 996 CURVE",
"529 1000 LINE",
"516.33 840 OFFCURVE",
"475.33 701.17 OFFCURVE",
"406 583.5 CURVE SMOOTH",
"336.67 465.83 OFFCURVE",
"234.67 360.67 OFFCURVE",
"100 268 CURVE"
);
},
{
closed = 1;
nodes = (
"243 -120 LINE",
"393.67 -13.33 OFFCURVE",
"535.33 116.33 OFFCURVE",
"668 269 CURVE",
"604 322 LINE",
"480.67 177.33 OFFCURVE",
"344.67 53 OFFCURVE",
"196 -51 CURVE"
);
},
{
closed = 1;
nodes = (
"291 381 LINE",
"402 76 LINE",
"479 103 LINE",
"356 440 LINE"
);
}
);
vertWidth = 1000;
width = 800;
}
);
note = u1B183;
unicode = 1B183;
},
{
glyphname = u1B184;
layers = (
{
hints = (
{
horizontal = 1;
place = "{97, 121}";
type = Stem;
},
{
place = "{254, 112}";
type = Stem;
},
{
place = "{504, 81}";
type = Stem;
},
{
place = "{532, 81}";
type = Stem;
}
);
layerId = "077E5A87-ACC6-4633-A27C-E6914C382A59";
paths = (
{
closed = 1;
nodes = (
"206 272 LINE",
"297.33 364.67 OFFCURVE",
"375.67 472.67 OFFCURVE",
"441 596 CURVE SMOOTH",
"506.33 719.33 OFFCURVE",
"554.33 848 OFFCURVE",
"585 982 CURVE",
"504 1000 LINE",
"440 732.67 OFFCURVE",
"320.33 509.33 OFFCURVE",
"145 330 CURVE"
);
},
{
closed = 1;
nodes = (
"326.67 97 OFFCURVE",
"340.17 102.83 OFFCURVE",
"350.5 114.5 CURVE SMOOTH",
"360.83 126.17 OFFCURVE",
"366 140.33 OFFCURVE",
"366 157 CURVE SMOOTH",
"366 174.33 OFFCURVE",
"360.83 188.83 OFFCURVE",
"350.5 200.5 CURVE SMOOTH",
"340.17 212.17 OFFCURVE",
"326.67 218 OFFCURVE",
"310 218 CURVE SMOOTH",
"294.67 218 OFFCURVE",
"281.5 212 OFFCURVE",
"270.5 200 CURVE SMOOTH",
"259.5 188 OFFCURVE",
"254 173.67 OFFCURVE",
"254 157 CURVE SMOOTH",
"254 141 OFFCURVE",
"259.5 127 OFFCURVE",
"270.5 115 CURVE SMOOTH",
"281.5 103 OFFCURVE",
"294.67 97 OFFCURVE",
"310 97 CURVE SMOOTH"
);
},
{
closed = 1;
nodes = (
"403 -120 LINE",
"471 -52.67 OFFCURVE",
"523 22.33 OFFCURVE",
"559 105 CURVE SMOOTH",
"595 187.67 OFFCURVE",
"613 273.33 OFFCURVE",
"613 362 CURVE SMOOTH",
"613 502 OFFCURVE",
"572.67 634.33 OFFCURVE",
"492 759 CURVE",
"436 695 LINE",
"500 588.33 OFFCURVE",
"532 477 OFFCURVE",
"532 361 CURVE SMOOTH",
"532 283.67 OFFCURVE",
"515.33 208.5 OFFCURVE",
"482 135.5 CURVE SMOOTH",
"448.67 62.5 OFFCURVE",
"402 -4 OFFCURVE",
"342 -64 CURVE"
);
}
);
vertWidth = 1000;
width = 800;
}
);
note = u1B184;
unicode = 1B184;
},
{
glyphname = u1B185;
layers = (
{
hints = (
{
place = "{374, 81}";
type = Stem;
}
);
layerId = "077E5A87-ACC6-4633-A27C-E6914C382A59";
paths = (
{
closed = 1;
nodes = (
"154 278 LINE",
"230 341.33 OFFCURVE",
"289.67 409.67 OFFCURVE",
"333 483 CURVE SMOOTH",
"376.33 556.33 OFFCURVE",
"406.17 632.33 OFFCURVE",
"422.5 711 CURVE SMOOTH",
"438.83 789.67 OFFCURVE",
"448 885.67 OFFCURVE",
"450 999 CURVE",
"370 1000 LINE",
"366.67 844 OFFCURVE",
"346.33 716.17 OFFCURVE",
"309 616.5 CURVE SMOOTH",
"271.67 516.83 OFFCURVE",
"202.33 423 OFFCURVE",
"101 335 CURVE"
);
},
{
closed = 1;
nodes = (
"424 -120 LINE",
"444.67 -24.67 OFFCURVE",
"455 75.33 OFFCURVE",
"455 180 CURVE SMOOTH",
"455 253.33 OFFCURVE",
"450.67 322.33 OFFCURVE",
"442 387 CURVE",
"362 374 LINE",
"370 311.33 OFFCURVE",
"374 246.67 OFFCURVE",
"374 180 CURVE SMOOTH",
"374 78.67 OFFCURVE",
"364.33 -16.33 OFFCURVE",
"345 -105 CURVE"
);
},
{
closed = 1;
nodes = (
"354 643 LINE",
"447.33 552.33 OFFCURVE",
"539 439.33 OFFCURVE",
"629 304 CURVE",
"696 349 LINE",
"614 473.67 OFFCURVE",
"514 594.33 OFFCURVE",
"396 711 CURVE"
);
}
);
vertWidth = 1000;
width = 800;
}
);
note = u1B185;
unicode = 1B185;
},
{
glyphname = u1B186;
layers = (
{
hints = (
{
place = "{566, 80}";
type = Stem;
}
);
layerId = "077E5A87-ACC6-4633-A27C-E6914C382A59";
paths = (
{
closed = 1;
nodes = (
"282 269 LINE",
"392.67 362.33 OFFCURVE",
"477.5 468.67 OFFCURVE",
"536.5 588 CURVE SMOOTH",
"595.5 707.33 OFFCURVE",
"632 843.33 OFFCURVE",
"646 996 CURVE",
"566 1000 LINE",
"542.67 744.67 OFFCURVE",
"447.33 537.33 OFFCURVE",
"280 378 CURVE"
);
},
{
closed = 1;
nodes = (
"188 -120 LINE",
"281.33 52 OFFCURVE",
"328 221.33 OFFCURVE",
"328 388 CURVE SMOOTH",
"328 520.67 OFFCURVE",
"295.67 666 OFFCURVE",
"231 824 CURVE",
"155 792 LINE",
"215 644.67 OFFCURVE",
"245 510 OFFCURVE",
"245 388 CURVE SMOOTH",
"245 236.67 OFFCURVE",
"202 80.33 OFFCURVE",
"116 -81 CURVE"
);
},
{
closed = 1;
nodes = (
"435 491 LINE",
"592 6 LINE",
"669 31 LINE",
"494 571 LINE"
);
}
);
vertWidth = 1000;
width = 800;
}
);
note = u1B186;
unicode = 1B186;
},
{
glyphname = u1B187;
layers = (
{
hints = (
{
place = "{581, 77}";
type = Stem;
}
);
layerId = "077E5A87-ACC6-4633-A27C-E6914C382A59";
paths = (
{
closed = 1;
nodes = (
"213 823 LINE",
"324.33 589.67 OFFCURVE",
"380 389 OFFCURVE",
"380 221 CURVE SMOOTH",
"380 113.67 OFFCURVE",
"359.33 9 OFFCURVE",
"318 -93 CURVE",
"395 -120 LINE",
"437.67 -2.67 OFFCURVE",
"459 113.33 OFFCURVE",
"459 228 CURVE SMOOTH",
"459 323.33 OFFCURVE",
"444.83 421.5 OFFCURVE",
"416.5 522.5 CURVE SMOOTH",
"388.17 623.5 OFFCURVE",
"345.33 735.67 OFFCURVE",
"288 859 CURVE"
);
},
{
closed = 1;
nodes = (
"405 504 LINE",
"543 631.33 OFFCURVE",
"627.33 792.33 OFFCURVE",
"658 987 CURVE",
"581 1000 LINE",
"555 837.33 OFFCURVE",
"488.33 701.33 OFFCURVE",
"381 592 CURVE"
);
},
{
closed = 1;
nodes = (
"340 563 LINE",
"280.67 513.67 OFFCURVE",
"208.33 466.33 OFFCURVE",
"123 421 CURVE",
"159 351 LINE",
"237.67 393.67 OFFCURVE",
"304.67 435.67 OFFCURVE",
"360 477 CURVE"
);
},
{
closed = 1;
nodes = (
"442 237 LINE",
"538 305 OFFCURVE",
"617.67 375.33 OFFCURVE",
"681 448 CURVE",
"622 500 LINE",
"570.67 438.67 OFFCURVE",
"510.33 382.67 OFFCURVE",
"441 332 CURVE"
);
},
{
closed = 1;
nodes = (
"403 310 LINE",
"350.33 270 OFFCURVE",
"264 220.67 OFFCURVE",
"144 162 CURVE",
"176 90 LINE",
"288.67 145.33 OFFCURVE",
"363 185.33 OFFCURVE",
"399 210 CURVE"
);
}
);
vertWidth = 1000;
width = 800;
}
);
note = u1B187;
unicode = 1B187;
},
{
glyphname = u1B188;
layers = (
{
hints = (
{
horizontal = 1;
place = "{-18, 125}";
type = Stem;
},
{
place = "{90, 116}";
type = Stem;
},
{
place = "{575, 84}";
type = Stem;
}
);
layerId = "077E5A87-ACC6-4633-A27C-E6914C382A59";
paths = (
{
closed = 1;
nodes = (
"570 995 LINE",
"573.31 931.87 OFFCURVE",
"574.97 861.2 OFFCURVE",
"575 783 CURVE SMOOTH",
"574.9 473.14 OFFCURVE",
"538.24 215.47 OFFCURVE",
"465 10 CURVE",
"282 515 LINE",
"202 489 LINE",
"421 -112 LINE",
"498 -120 LINE",
"517.59 -79.87 OFFCURVE",
"535.67 -35.5 OFFCURVE",
"552.25 13.12 CURVE SMOOTH",
"623.42 223 OFFCURVE",
"659 479.63 OFFCURVE",
"659 783 CURVE SMOOTH",
"658.98 840.8 OFFCURVE",
"657.32 913.13 OFFCURVE",
"654 1000 CURVE"
);
},
{
closed = 1;
nodes = (
"132.23 106.73 OFFCURVE",
"118.57 100.73 OFFCURVE",
"107 89 CURVE SMOOTH",
"96.15 76.79 OFFCURVE",
"90.48 61.79 OFFCURVE",
"90 44 CURVE SMOOTH",
"90.27 27.5 OFFCURVE",
"95.93 12.84 OFFCURVE",
"107 0 CURVE SMOOTH",
"117.83 -11.42 OFFCURVE",
"131.49 -17.42 OFFCURVE",
"148 -18 CURVE SMOOTH",
"165 -18 OFFCURVE",
"179 -12 OFFCURVE",
"190 0 CURVE SMOOTH",
"200.17 11.51 OFFCURVE",
"205.51 26.17 OFFCURVE",
"206 44 CURVE SMOOTH",
"205.79 62.1 OFFCURVE",
"200.79 77.43 OFFCURVE",
"191 90 CURVE",
"179.8 100.83 OFFCURVE",
"165.46 106.49 OFFCURVE",
"148 107 CURVE SMOOTH"
);
}
);
vertWidth = 1000;
width = 800;
}
);
note = u1B188;
unicode = 1B188;
},
{
glyphname = u1B189;
layers = (
{
hints = (
{
place = "{381, 82}";
type = Stem;
},
{
place = "{558, 78}";
type = Stem;
}
);
layerId = "077E5A87-ACC6-4633-A27C-E6914C382A59";
paths = (
{
closed = 1;
nodes = (
"158 363 LINE",
"295.33 442.33 OFFCURVE",
"402.5 532.5 OFFCURVE",
"479.5 633.5 CURVE SMOOTH",
"556.5 734.5 OFFCURVE",
"608.67 852.33 OFFCURVE",
"636 987 CURVE",
"558 1000 LINE",
"533.33 878.67 OFFCURVE",
"485.67 772.5 OFFCURVE",
"415 681.5 CURVE SMOOTH",
"344.33 590.5 OFFCURVE",
"245.33 507.33 OFFCURVE",
"118 432 CURVE"
);
},
{
closed = 1;
nodes = (
"189 113 LINE",
"264.33 151.67 OFFCURVE",
"333 192 OFFCURVE",
"395 234 CURVE",
"390 331 LINE",
"324 283 OFFCURVE",
"245.33 234.67 OFFCURVE",
"154 186 CURVE"
);
},
{
closed = 1;
nodes = (
"399 -120 LINE",
"441.67 -12 OFFCURVE",
"463 93.67 OFFCURVE",
"463 197 CURVE SMOOTH",
"463 310.33 OFFCURVE",
"439 441 OFFCURVE",
"391 589 CURVE",
"321 535 LINE",
"344.33 462.33 OFFCURVE",
"360.17 403.5 OFFCURVE",
"368.5 358.5 CURVE SMOOTH",
"376.83 313.5 OFFCURVE",
"381 256.33 OFFCURVE",
"381 187 CURVE SMOOTH",
"381 88.33 OFFCURVE",
"361 -4.67 OFFCURVE",
"321 -92 CURVE"
);
},
{
closed = 1;
nodes = (
"445 264 LINE",
"537 333.33 OFFCURVE",
"612 401.67 OFFCURVE",
"670 469 CURVE",
"610 520 LINE",
"551.33 455.33 OFFCURVE",
"493.67 401.67 OFFCURVE",
"437 359 CURVE"
);
}
);
vertWidth = 1000;
width = 800;
}
);
note = u1B189;
unicode = 1B189;
},
{
glyphname = u1B18A;
layers = (
{
layerId = "077E5A87-ACC6-4633-A27C-E6914C382A59";
paths = (
{
closed = 1;
nodes = (
"191 392 LINE",
"314.74 459.57 OFFCURVE",
"419.07 542.57 OFFCURVE",
"504 641 CURVE SMOOTH",
"589.24 740.53 OFFCURVE",
"649.91 852.86 OFFCURVE",
"686 978 CURVE",
"606 1000 LINE",
"573.97 886.52 OFFCURVE",
"518.3 783.85 OFFCURVE",
"439 692 CURVE SMOOTH",
"358.06 600.16 OFFCURVE",
"261.06 523.83 OFFCURVE",
"148 463 CURVE"
);
},
{
closed = 1;
nodes = (
"149 -120 LINE",
"324.62 -37.54 OFFCURVE",
"475.62 57.13 OFFCURVE",
"602 164 CURVE",
"551 225 LINE",
"422.68 121.86 OFFCURVE",
"277.01 31.2 OFFCURVE",
"114 -47 CURVE"
);
},
{
closed = 1;
nodes = (
"200 153 LINE",
"361.02 237.19 OFFCURVE",
"493.35 333.85 OFFCURVE",
"597 443 CURVE",
"538 499 LINE",
"438.49 394.67 OFFCURVE",
"313.82 303.67 OFFCURVE",
"164 226 CURVE"
);
}
);
vertWidth = 1000;
width = 780;
}
);
note = u1B18A;
unicode = 1B18A;
},
{
glyphname = u1B18B;
layers = (
{
hints = (
{
horizontal = 1;
place = "{0, 21}";
target = up;
type = BottomGhost;
},
{
place = "{296, 83}";
type = Stem;
},
{
place = "{541, 81}";
type = Stem;
},
{
place = "{304, 82}";
type = Stem;
}
);
layerId = "077E5A87-ACC6-4633-A27C-E6914C382A59";
paths = (
{
closed = 1;
nodes = (
"342 -120 LINE",
"366.44 -45.38 OFFCURVE",
"378.77 27.62 OFFCURVE",
"379 99 CURVE SMOOTH",
"378.75 239.32 OFFCURVE",
"329.41 368.99 OFFCURVE",
"231 488 CURVE",
"234 450 LINE",
"282.99 517.21 OFFCURVE",
"319.99 594.88 OFFCURVE",
"345 683 CURVE SMOOTH",
"369.22 772.16 OFFCURVE",
"382.89 877.16 OFFCURVE",
"386 998 CURVE",
"304 1000 LINE",
"298.83 765 OFFCURVE",
"243.83 586.66 OFFCURVE",
"139 465 CURVE",
"139 461 LINE",
"190 410 OFFCURVE",
"229 353 OFFCURVE",
"256 290 CURVE SMOOTH",
"282.39 228.06 OFFCURVE",
"295.73 162.73 OFFCURVE",
"296 94 CURVE SMOOTH",
"296 34 OFFCURVE",
"285 -30 OFFCURVE",
"263 -98 CURVE"
);
},
{
closed = 1;
nodes = (
"417 461 LINE",
"499.13 364.67 OFFCURVE",
"540.46 262 OFFCURVE",
"541 153 CURVE SMOOTH",
"540.96 109.9 OFFCURVE",
"537.96 62.24 OFFCURVE",
"532 10 CURVE",
"612 0 LINE",
"618.57 46.36 OFFCURVE",
"621.91 95.7 OFFCURVE",
"622 148 CURVE SMOOTH",
"621.77 266.4 OFFCURVE",
"581.43 380.07 OFFCURVE",
"501 489 CURVE",
"505 450 LINE",
"574.06 549.48 OFFCURVE",
"613.72 689.48 OFFCURVE",
"624 870 CURVE",
"543 873 LINE",
"539.04 786.58 OFFCURVE",
"527.38 710.91 OFFCURVE",
"508 646 CURVE SMOOTH",
"489.64 585.58 OFFCURVE",
"459.31 525.25 OFFCURVE",
"417 465 CURVE"
);
}
);
vertWidth = 1000;
width = 800;
}
);
note = u1B18B;
unicode = 1B18B;
},
{
glyphname = u1B18C;
layers = (
{
hints = (
{
horizontal = 1;
place = "{312, 121}";
type = Stem;
},
{
horizontal = 1;
place = "{465, 121}";
type = Stem;
},
{
place = "{79, 112}";
type = Stem;
},
{
place = "{287, 80}";
type = Stem;
},
{
place = "{457, 78}";
type = Stem;
},
{
place = "{619, 112}";
type = Stem;
}
);
layerId = "077E5A87-ACC6-4633-A27C-E6914C382A59";
paths = (
{
closed = 1;
nodes = (
"216 -120 LINE",
"316.67 44 OFFCURVE",
"367 209 OFFCURVE",
"367 375 CURVE SMOOTH",
"367 521.67 OFFCURVE",
"325 672 OFFCURVE",
"241 826 CURVE",
"171 787 LINE",
"248.33 643.67 OFFCURVE",
"287 506.33 OFFCURVE",
"287 375 CURVE SMOOTH",
"287 225 OFFCURVE",
"240.67 74.33 OFFCURVE",
"148 -77 CURVE"
);
},
{
closed = 1;
nodes = (
"152.33 312 OFFCURVE",
"166 317.67 OFFCURVE",
"176 329 CURVE SMOOTH",
"186 340.33 OFFCURVE",
"191 354.67 OFFCURVE",
"191 372 CURVE SMOOTH",
"191 390 OFFCURVE",
"186 404.67 OFFCURVE",
"176 416 CURVE SMOOTH",
"166 427.33 OFFCURVE",
"152.33 433 OFFCURVE",
"135 433 CURVE SMOOTH",
"119 433 OFFCURVE",
"105.67 427.17 OFFCURVE",
"95 415.5 CURVE SMOOTH",
"84.33 403.83 OFFCURVE",
"79 389.33 OFFCURVE",
"79 372 CURVE SMOOTH",
"79 355.33 OFFCURVE",
"84.33 341.17 OFFCURVE",
"95 329.5 CURVE SMOOTH",
"105.67 317.83 OFFCURVE",
"119 312 OFFCURVE",
"135 312 CURVE SMOOTH"
);
},
{
closed = 1;
nodes = (
"668 118 LINE",
"579.33 269.33 OFFCURVE",
"535 420.33 OFFCURVE",
"535 571 CURVE SMOOTH",
"535 700.33 OFFCURVE",
"568 832 OFFCURVE",
"634 966 CURVE",
"561 1000 LINE",
"491.67 854.67 OFFCURVE",
"457 711.67 OFFCURVE",
"457 571 CURVE SMOOTH",
"457 407.67 OFFCURVE",
"504.33 243 OFFCURVE",
"599 77 CURVE"
);
},
{
closed = 1;
nodes = (
"619 508.33 OFFCURVE",
"624.33 494.17 OFFCURVE",
"635 482.5 CURVE SMOOTH",
"645.67 470.83 OFFCURVE",
"659 465 OFFCURVE",
"675 465 CURVE SMOOTH",
"692.33 465 OFFCURVE",
"706 470.67 OFFCURVE",
"716 482 CURVE SMOOTH",
"726 493.33 OFFCURVE",
"731 507.67 OFFCURVE",
"731 525 CURVE SMOOTH",
"731 543 OFFCURVE",
"726 557.67 OFFCURVE",
"716 569 CURVE SMOOTH",
"706 580.33 OFFCURVE",
"692.33 586 OFFCURVE",
"675 586 CURVE SMOOTH",
"659 586 OFFCURVE",
"645.67 580.17 OFFCURVE",
"635 568.5 CURVE SMOOTH",
"624.33 556.83 OFFCURVE",
"619 542.33 OFFCURVE",
"619 525 CURVE SMOOTH"
);
}
);
vertWidth = 1000;
width = 800;
}
);
note = u1B18C;
unicode = 1B18C;
},
{
glyphname = u1B18D;
layers = (
{
hints = (
{
place = "{272, 81}";
type = Stem;
},
{
place = "{374, 76}";
type = Stem;
}
);
layerId = "077E5A87-ACC6-4633-A27C-E6914C382A59";
paths = (
{
closed = 1;
nodes = (
"283 -120 LINE",
"329.67 -20.67 OFFCURVE",
"353 76 OFFCURVE",
"353 170 CURVE SMOOTH",
"353 290 OFFCURVE",
"318 400.67 OFFCURVE",
"248 502 CURVE",
"241 456 LINE",
"325.67 515.33 OFFCURVE",
"397.5 587 OFFCURVE",
"456.5 671 CURVE SMOOTH",
"515.5 755 OFFCURVE",
"565.33 856.67 OFFCURVE",
"606 976 CURVE",
"528 1000 LINE",
"490.67 887.33 OFFCURVE",
"441.83 790 OFFCURVE",
"381.5 708 CURVE SMOOTH",
"321.17 626 OFFCURVE",
"245.67 554.67 OFFCURVE",
"155 494 CURVE",
"155 492 LINE",
"233 388 OFFCURVE",
"272 280.67 OFFCURVE",
"272 170 CURVE SMOOTH",
"272 90 OFFCURVE",
"250.33 4.67 OFFCURVE",
"207 -86 CURVE"
);
},
{
closed = 1;
nodes = (
"628 168 LINE",
"664 372 OFFCURVE",
"618.67 566.67 OFFCURVE",
"492 752 CURVE",
"427 705 LINE",
"543.67 536.33 OFFCURVE",
"586.33 361 OFFCURVE",
"555 179 CURVE",
"577 220 LINE",
"515.67 266 OFFCURVE",
"473.33 344.67 OFFCURVE",
"450 456 CURVE",
"374 431 LINE",
"403.33 295 OFFCURVE",
"462.67 198.33 OFFCURVE",
"552 141 CURVE"
);
}
);
vertWidth = 1000;
width = 800;
}
);
note = u1B18D;
unicode = 1B18D;
},
{
glyphname = u1B18E;
layers = (
{
hints = (
{
horizontal = 1;
place = "{-120, 121}";
type = Stem;
},
{
place = "{368, 112}";
type = Stem;
},
{
place = "{565, 78}";
type = Stem;
}
);
layerId = "077E5A87-ACC6-4633-A27C-E6914C382A59";
paths = (
{
closed = 1;
nodes = (
"440.67 -120 OFFCURVE",
"454.17 -114.17 OFFCURVE",
"464.5 -102.5 CURVE SMOOTH",
"474.83 -90.83 OFFCURVE",
"480 -76.67 OFFCURVE",
"480 -60 CURVE SMOOTH",
"480 -42 OFFCURVE",
"475 -27.33 OFFCURVE",
"465 -16 CURVE SMOOTH",
"455 -4.67 OFFCURVE",
"441.33 1 OFFCURVE",
"424 1 CURVE SMOOTH",
"408 1 OFFCURVE",
"394.67 -4.83 OFFCURVE",
"384 -16.5 CURVE SMOOTH",
"373.33 -28.17 OFFCURVE",
"368 -42.67 OFFCURVE",
"368 -60 CURVE SMOOTH",
"368 -76 OFFCURVE",
"373.33 -90 OFFCURVE",
"384 -102 CURVE SMOOTH",
"394.67 -114 OFFCURVE",
"408 -120 OFFCURVE",
"424 -120 CURVE SMOOTH"
);
},
{
closed = 1;
nodes = (
"544 60 LINE",
"619 87 LINE",
"331 876 LINE",
"256 849 LINE"
);
},
{
closed = 1;
nodes = (
"168 -50 LINE",
"292.67 73.33 OFFCURVE",
"397 208 OFFCURVE",
"481 354 CURVE",
"429 423 LINE",
"345.67 273.67 OFFCURVE",
"240.67 135.67 OFFCURVE",
"114 9 CURVE"
);
},
{
closed = 1;
nodes = (
"155 357 LINE",
"241.67 406.33 OFFCURVE",
"321.33 461 OFFCURVE",
"394 521 CURVE",
"363 606 LINE",
"297.67 544.67 OFFCURVE",
"215.67 485.67 OFFCURVE",
"117 429 CURVE"
);
},
{
closed = 1;
nodes = (
"565 1000 LINE",
"543 862.67 OFFCURVE",
"488.67 741.67 OFFCURVE",
"402 637 CURVE",
"433 550 LINE",
"546.33 676.67 OFFCURVE",
"616.33 822.67 OFFCURVE",
"643 988 CURVE"
);
}
);
vertWidth = 1000;
width = 800;
}
);
note = u1B18E;
unicode = 1B18E;
},
{
glyphname = u1B18F;
layers = (
{
hints = (
{
horizontal = 1;
place = "{278, 120}";
type = Stem;
},
{
place = "{80, 112}";
type = Stem;
},
{
place = "{517, 78}";
type = Stem;
},
{
place = "{618, 112}";
type = Stem;
},
{
horizontal = 1;
place = "{366, 120}";
type = Stem;
}
);
layerId = "077E5A87-ACC6-4633-A27C-E6914C382A59";
paths = (
{
closed = 1;
nodes = (
"153.33 278 OFFCURVE",
"167 283.67 OFFCURVE",
"177 295 CURVE SMOOTH",
"187 306.33 OFFCURVE",
"192 320.67 OFFCURVE",
"192 338 CURVE SMOOTH",
"192 355.33 OFFCURVE",
"187 369.67 OFFCURVE",
"177 381 CURVE SMOOTH",
"167 392.33 OFFCURVE",
"153.33 398 OFFCURVE",
"136 398 CURVE SMOOTH",
"120 398 OFFCURVE",
"106.67 392.33 OFFCURVE",
"96 381 CURVE SMOOTH",
"85.33 369.67 OFFCURVE",
"80 355.33 OFFCURVE",
"80 338 CURVE SMOOTH",
"80 321.33 OFFCURVE",
"85.33 307.17 OFFCURVE",
"96 295.5 CURVE SMOOTH",
"106.67 283.83 OFFCURVE",
"120 278 OFFCURVE",
"136 278 CURVE SMOOTH"
);
},
{
closed = 1;
nodes = (
"618 409.33 OFFCURVE",
"623.33 395.17 OFFCURVE",
"634 383.5 CURVE SMOOTH",
"644.67 371.83 OFFCURVE",
"658 366 OFFCURVE",
"674 366 CURVE SMOOTH",
"691.33 366 OFFCURVE",
"705 371.67 OFFCURVE",
"715 383 CURVE SMOOTH",
"725 394.33 OFFCURVE",
"730 408.67 OFFCURVE",
"730 426 CURVE SMOOTH",
"730 443.33 OFFCURVE",
"725 457.67 OFFCURVE",
"715 469 CURVE SMOOTH",
"705 480.33 OFFCURVE",
"691.33 486 OFFCURVE",
"674 486 CURVE SMOOTH",
"658 486 OFFCURVE",
"644.67 480.33 OFFCURVE",
"634 469 CURVE SMOOTH",
"623.33 457.67 OFFCURVE",
"618 443.33 OFFCURVE",
"618 426 CURVE SMOOTH"
);
},
{
closed = 1;
nodes = (
"138 687 LINE",
"310.67 491.67 OFFCURVE",
"452.33 262.67 OFFCURVE",
"563 0 CURVE",
"634 36 LINE",
"513.33 316.67 OFFCURVE",
"367 552 OFFCURVE",
"195 742 CURVE"
);
},
{
closed = 1;
nodes = (
"457 353 LINE",
"530.33 515 OFFCURVE",
"576.33 729 OFFCURVE",
"595 995 CURVE",
"517 1000 LINE",
"497.67 754 OFFCURVE",
"460 567 OFFCURVE",
"404 439 CURVE"
);
},
{
closed = 1;
nodes = (
"382 393 LINE",
"300.67 232.33 OFFCURVE",
"190 79.67 OFFCURVE",
"50 -65 CURVE",
"110 -120 LINE",
"239.33 12.67 OFFCURVE",
"347 155.33 OFFCURVE",
"433 308 CURVE"
);
}
);
vertWidth = 1000;
width = 800;
}
);
note = u1B18F;
unicode = 1B18F;
},
{
glyphname = u1B190;
layers = (
{
hints = (
{
horizontal = 1;
place = "{-120, 76}";
type = Stem;
},
{
horizontal = 1;
place = "{130, 76}";
type = Stem;
},
{
place = "{472, 80}";
type = Stem;
},
{
place = "{297, 82}";
type = Stem;
},
{
place = "{483, 81}";
type = Stem;
},
{
place = "{246, 83}";
type = Stem;
}
);
layerId = "077E5A87-ACC6-4633-A27C-E6914C382A59";
paths = (
{
closed = 1;
nodes = (
"691 247 LINE",
"598.33 380.33 OFFCURVE",
"552 509 OFFCURVE",
"552 633 CURVE SMOOTH",
"552 735 OFFCURVE",
"582 846.33 OFFCURVE",
"642 967 CURVE",
"566 1000 LINE",
"503.33 872 OFFCURVE",
"472 749.67 OFFCURVE",
"472 633 CURVE SMOOTH",
"472 492.33 OFFCURVE",
"522 348.33 OFFCURVE",
"622 201 CURVE"
);
},
{
closed = 1;
nodes = (
"468 -120 OFFCURVE",
"499 -105.33 OFFCURVE",
"525 -76 CURVE SMOOTH",
"551 -46.67 OFFCURVE",
"564 -7.33 OFFCURVE",
"564 42 CURVE SMOOTH",
"564 92 OFFCURVE",
"551.17 131.83 OFFCURVE",
"525.5 161.5 CURVE SMOOTH",
"499.83 191.17 OFFCURVE",
"468.67 206 OFFCURVE",
"432 206 CURVE SMOOTH",
"394.67 206 OFFCURVE",
"362.83 191 OFFCURVE",
"336.5 161 CURVE SMOOTH",
"310.17 131 OFFCURVE",
"297 91.33 OFFCURVE",
"297 42 CURVE SMOOTH",
"297 -7.33 OFFCURVE",
"310.17 -46.67 OFFCURVE",
"336.5 -76 CURVE SMOOTH",
"362.83 -105.33 OFFCURVE",
"394.67 -120 OFFCURVE",
"432 -120 CURVE SMOOTH"
);
},
{
closed = 1;
nodes = (
"416 -44 OFFCURVE",
"403.17 -36.17 OFFCURVE",
"393.5 -20.5 CURVE SMOOTH",
"383.83 -4.83 OFFCURVE",
"379 16 OFFCURVE",
"379 42 CURVE SMOOTH",
"379 68 OFFCURVE",
"383.83 89.17 OFFCURVE",
"393.5 105.5 CURVE SMOOTH",
"403.17 121.83 OFFCURVE",
"416 130 OFFCURVE",
"432 130 CURVE SMOOTH",
"447.33 130 OFFCURVE",
"459.67 121.83 OFFCURVE",
"469 105.5 CURVE SMOOTH",
"478.33 89.17 OFFCURVE",
"483 68 OFFCURVE",
"483 42 CURVE SMOOTH",
"483 16 OFFCURVE",
"478.33 -4.83 OFFCURVE",
"469 -20.5 CURVE SMOOTH",
"459.67 -36.17 OFFCURVE",
"447.33 -44 OFFCURVE",
"432 -44 CURVE SMOOTH"
);
},
{
closed = 1;
nodes = (
"185 120 LINE",
"281 242 OFFCURVE",
"329 369 OFFCURVE",
"329 501 CURVE SMOOTH",
"329 615 OFFCURVE",
"292.33 736 OFFCURVE",
"219 864 CURVE",
"147 823 LINE",
"213 707 OFFCURVE",
"246 599.67 OFFCURVE",
"246 501 CURVE SMOOTH",
"246 385.67 OFFCURVE",
"203.67 275.33 OFFCURVE",
"119 170 CURVE"
);
}
);
vertWidth = 1000;
width = 800;
}
);
note = u1B190;
unicode = 1B190;
},
{
glyphname = u1B191;
layers = (
{
hints = (
{
place = "{482, 79}";
type = Stem;
}
);
layerId = "077E5A87-ACC6-4633-A27C-E6914C382A59";
paths = (
{
closed = 1;
nodes = (
"183 450 LINE",
"322.33 503.33 OFFCURVE",
"431.33 573.67 OFFCURVE",
"510 661 CURVE SMOOTH",
"588.67 748.33 OFFCURVE",
"643 855.33 OFFCURVE",
"673 982 CURVE",
"595 1000 LINE",
"568.33 888.67 OFFCURVE",
"518.83 794.33 OFFCURVE",
"446.5 717 CURVE SMOOTH",
"374.17 639.67 OFFCURVE",
"275.33 575 OFFCURVE",
"150 523 CURVE"
);
},
{
closed = 1;
nodes = (
"177 214 LINE",
"315 270 OFFCURVE",
"413.5 328.5 OFFCURVE",
"472.5 389.5 CURVE SMOOTH",
"531.5 450.5 OFFCURVE",
"561 523.33 OFFCURVE",
"561 608 CURVE SMOOTH",
"561 648 OFFCURVE",
"551 693.33 OFFCURVE",
"531 744 CURVE",
"465 693 LINE",
"476.33 662.33 OFFCURVE",
"482 634.33 OFFCURVE",
"482 609 CURVE SMOOTH",
"482 543 OFFCURVE",
"456.67 485.67 OFFCURVE",
"406 437 CURVE SMOOTH",
"355.33 388.33 OFFCURVE",
"269 339 OFFCURVE",
"147 289 CURVE"
);
},
{
closed = 1;
nodes = (
"358 370 LINE",
"381.33 200 OFFCURVE",
"377 40.67 OFFCURVE",
"345 -108 CURVE",
"422 -120 LINE",
"454.67 26.67 OFFCURVE",
"459.33 199 OFFCURVE",
"436 397 CURVE"
);
},
{
closed = 1;
nodes = (
"440 114 LINE",
"514.67 161.33 OFFCURVE",
"585 211 OFFCURVE",
"651 263 CURVE",
"605 324 LINE",
"559 287.33 OFFCURVE",
"503.67 248 OFFCURVE",
"439 206 CURVE"
);
},
{
closed = 1;
nodes = (
"390 180 LINE",
"316 133.33 OFFCURVE",
"237.33 89.67 OFFCURVE",
"154 49 CURVE",
"185 -21 LINE",
"252.33 10.33 OFFCURVE",
"319.67 46.67 OFFCURVE",
"387 88 CURVE"
);
}
);
vertWidth = 1000;
width = 800;
}
);
note = u1B191;
unicode = 1B191;
},
{
glyphname = u1B192;
layers = (
{
hints = (
{
horizontal = 1;
place = "{97, 120}";
type = Stem;
},
{
place = "{90, 112}";
type = Stem;
},
{
place = "{361, 84}";
type = Stem;
},
{
place = "{580, 85}";
type = Stem;
}
);
layerId = "077E5A87-ACC6-4633-A27C-E6914C382A59";
paths = (
{
closed = 1;
nodes = (
"374 -120 LINE",
"421.01 -20.66 OFFCURVE",
"444.68 76 OFFCURVE",
"445 170 CURVE SMOOTH",
"444.79 285.79 OFFCURVE",
"410.46 396.13 OFFCURVE",
"342 501 CURVE",
"334 459 LINE",
"419.52 516.55 OFFCURVE",
"491.19 586.89 OFFCURVE",
"549 670 CURVE SMOOTH",
"606.1 751.91 OFFCURVE",
"655.43 852.91 OFFCURVE",
"697 973 CURVE",
"617 1000 LINE",
"582.11 888.73 OFFCURVE",
"536.45 794.06 OFFCURVE",
"480 716 CURVE SMOOTH",
"422.34 638.38 OFFCURVE",
"343.68 564.38 OFFCURVE",
"244 494 CURVE",
"244 492 LINE",
"321.52 388.3 OFFCURVE",
"360.52 280.97 OFFCURVE",
"361 170 CURVE SMOOTH",
"360.84 86.61 OFFCURVE",
"339.5 0.61 OFFCURVE",
"297 -88 CURVE"
);
},
{
closed = 1;
nodes = (
"162.47 97.29 OFFCURVE",
"176.14 102.95 OFFCURVE",
"187 114 CURVE SMOOTH",
"196.54 124.92 OFFCURVE",
"201.54 139.26 OFFCURVE",
"202 157 CURVE SMOOTH",
"201.76 174.14 OFFCURVE",
"196.76 188.48 OFFCURVE",
"187 200 CURVE SMOOTH",
"176.76 210.8 OFFCURVE",
"163.09 216.47 OFFCURVE",
"146 217 CURVE SMOOTH",
"131.18 216.72 OFFCURVE",
"117.84 211.05 OFFCURVE",
"106 200 CURVE SMOOTH",
"95.84 189.4 OFFCURVE",
"90.51 175.07 OFFCURVE",
"90 157 CURVE SMOOTH",
"90.24 140.23 OFFCURVE",
"95.57 126.23 OFFCURVE",
"106 115 CURVE SMOOTH",
"116.82 103.59 OFFCURVE",
"130.16 97.59 OFFCURVE",
"146 97 CURVE SMOOTH"
);
},
{
closed = 1;
nodes = (
"479 637 LINE",
"510.15 589.56 OFFCURVE",
"534.82 535.9 OFFCURVE",
"553 476 CURVE SMOOTH",
"571 415 OFFCURVE",
"580 355 OFFCURVE",
"580 296 CURVE SMOOTH",
"579.98 254.43 OFFCURVE",
"578.64 223.1 OFFCURVE",
"576 202 CURVE",
"661 197 LINE",
"663.61 216.57 OFFCURVE",
"664.94 249.57 OFFCURVE",
"665 296 CURVE SMOOTH",
"664.9 366.01 OFFCURVE",
"653.9 436.68 OFFCURVE",
"632 508 CURVE SMOOTH",
"610.67 576.46 OFFCURVE",
"580 640.13 OFFCURVE",
"540 699 CURVE"
);
}
);
vertWidth = 1000;
width = 800;
}
);
note = u1B192;
unicode = 1B192;
},
{
glyphname = u1B193;
layers = (
{
hints = (
{
horizontal = 1;
place = "{34, 118}";
type = Stem;
},
{
horizontal = 1;
place = "{497, 118}";
type = Stem;
},
{
place = "{81, 110}";
type = Stem;
},
{
place = "{351, 110}";
type = Stem;
},
{
place = "{559, 85}";
type = Stem;
}
);
layerId = "077E5A87-ACC6-4633-A27C-E6914C382A59";
paths = (
{
closed = 1;
nodes = (
"474 -120 LINE",
"587.33 74 OFFCURVE",
"644 364.67 OFFCURVE",
"644 752 CURVE SMOOTH",
"644 838.67 OFFCURVE",
"642 921.33 OFFCURVE",
"638 1000 CURVE",
"555 995 LINE",
"557.67 926.33 OFFCURVE",
"559 845.33 OFFCURVE",
"559 752 CURVE SMOOTH",
"559 394.67 OFFCURVE",
"511.67 127.33 OFFCURVE",
"417 -50 CURVE",
"462 -50 LINE",
"256 517 LINE",
"178 489 LINE",
"397 -112 LINE"
);
},
{
closed = 1;
nodes = (
"152.67 34 OFFCURVE",
"166 39.67 OFFCURVE",
"176 51 CURVE SMOOTH",
"186 62.33 OFFCURVE",
"191 76.33 OFFCURVE",
"191 93 CURVE SMOOTH",
"191 109.67 OFFCURVE",
"186 123.67 OFFCURVE",
"176 135 CURVE SMOOTH",
"166 146.33 OFFCURVE",
"152.67 152 OFFCURVE",
"136 152 CURVE SMOOTH",
"120.67 152 OFFCURVE",
"107.67 146.33 OFFCURVE",
"97 135 CURVE SMOOTH",
"86.33 123.67 OFFCURVE",
"81 109.67 OFFCURVE",
"81 93 CURVE SMOOTH",
"81 77 OFFCURVE",
"86.33 63.17 OFFCURVE",
"97 51.5 CURVE SMOOTH",
"107.67 39.83 OFFCURVE",
"120.67 34 OFFCURVE",
"136 34 CURVE SMOOTH"
);
},
{
closed = 1;
nodes = (
"351 540 OFFCURVE",
"356.33 526.17 OFFCURVE",
"367 514.5 CURVE SMOOTH",
"377.67 502.83 OFFCURVE",
"390.67 497 OFFCURVE",
"406 497 CURVE SMOOTH",
"422.67 497 OFFCURVE",
"436 502.67 OFFCURVE",
"446 514 CURVE SMOOTH",
"456 525.33 OFFCURVE",
"461 539.33 OFFCURVE",
"461 556 CURVE SMOOTH",
"461 572.67 OFFCURVE",
"456 586.67 OFFCURVE",
"446 598 CURVE SMOOTH",
"436 609.33 OFFCURVE",
"422.67 615 OFFCURVE",
"406 615 CURVE SMOOTH",
"390.67 615 OFFCURVE",
"377.67 609.33 OFFCURVE",
"367 598 CURVE SMOOTH",
"356.33 586.67 OFFCURVE",
"351 572.67 OFFCURVE",
"351 556 CURVE SMOOTH"
);
}
);
vertWidth = 1000;
width = 800;
}
);
note = u1B193;
unicode = 1B193;
},
{
glyphname = u1B194;
layers = (
{
hints = (
{
place = "{558, 76}";
type = Stem;
}
);
layerId = "077E5A87-ACC6-4633-A27C-E6914C382A59";
paths = (
{
closed = 1;
nodes = (
"559 -27 LINE",
"634 0 LINE",
"318 867 LINE",
"243 840 LINE"
);
},
{
closed = 1;
nodes = (
"181 -120 LINE",
"303 -28 OFFCURVE",
"415 81.33 OFFCURVE",
"517 208 CURVE",
"468 274 LINE",
"372 149.33 OFFCURVE",
"260.67 38.33 OFFCURVE",
"134 -59 CURVE"
);
},
{
closed = 1;
nodes = (
"214 194 LINE",
"298 246 OFFCURVE",
"372.33 299 OFFCURVE",
"437 353 CURVE",
"409 432 LINE",
"342.33 374.67 OFFCURVE",
"264 318.33 OFFCURVE",
"174 263 CURVE"
);
},
{
closed = 1;
nodes = (
"172 411 LINE",
"248.67 455.67 OFFCURVE",
"314 500.67 OFFCURVE",
"368 546 CURVE",
"340 629 LINE",
"277.33 573 OFFCURVE",
"208.33 523 OFFCURVE",
"133 479 CURVE"
);
},
{
closed = 1;
nodes = (
"478 383 LINE",
"560 455 OFFCURVE",
"627 526.33 OFFCURVE",
"679 597 CURVE",
"615 642 LINE",
"568.33 580 OFFCURVE",
"513 520 OFFCURVE",
"449 462 CURVE"
);
},
{
closed = 1;
nodes = (
"408 577 LINE",
"526 693.67 OFFCURVE",
"601.33 830 OFFCURVE",
"634 986 CURVE",
"558 1000 LINE",
"528 871.33 OFFCURVE",
"467.67 758.67 OFFCURVE",
"377 662 CURVE"
);
}
);
vertWidth = 1000;
width = 800;
}
);
note = u1B194;
unicode = 1B194;
},
{
glyphname = u1B195;
layers = (
{
hints = (
{
place = "{103, 116}";
type = Stem;
},
{
place = "{422, 80}";
type = Stem;
},
{
place = "{593, 116}";
type = Stem;
},
{
place = "{408, 82}";
type = Stem;
},
{
horizontal = 1;
place = "{493, 125}";
type = Stem;
},
{
horizontal = 1;
place = "{393, 125}";
type = Stem;
}
);
layerId = "077E5A87-ACC6-4633-A27C-E6914C382A59";
paths = (
{
closed = 1;
nodes = (
"153 -7 LINE",
"267.67 108.33 OFFCURVE",
"350.5 239.17 OFFCURVE",
"401.5 385.5 CURVE SMOOTH",
"452.5 531.83 OFFCURVE",
"486 736 OFFCURVE",
"502 998 CURVE",
"422 1000 LINE",
"407.33 756 OFFCURVE",
"376 564.83 OFFCURVE",
"328 426.5 CURVE SMOOTH",
"280 288.17 OFFCURVE",
"201.67 162.33 OFFCURVE",
"93 49 CURVE"
);
},
{
closed = 1;
nodes = (
"490 -120 LINE",
"492 83.33 OFFCURVE",
"461.33 286.33 OFFCURVE",
"398 489 CURVE",
"344 397 LINE",
"388.67 239 OFFCURVE",
"410 67.67 OFFCURVE",
"408 -117 CURVE"
);
},
{
closed = 1;
nodes = (
"179 493 OFFCURVE",
"193.17 498.83 OFFCURVE",
"203.5 510.5 CURVE SMOOTH",
"213.83 522.17 OFFCURVE",
"219 537.33 OFFCURVE",
"219 556 CURVE SMOOTH",
"219 573.33 OFFCURVE",
"213.67 588 OFFCURVE",
"203 600 CURVE SMOOTH",
"192.33 612 OFFCURVE",
"178.33 618 OFFCURVE",
"161 618 CURVE SMOOTH",
"144.33 618 OFFCURVE",
"130.5 612 OFFCURVE",
"119.5 600 CURVE SMOOTH",
"108.5 588 OFFCURVE",
"103 573.33 OFFCURVE",
"103 556 CURVE SMOOTH",
"103 538 OFFCURVE",
"108.5 523 OFFCURVE",
"119.5 511 CURVE SMOOTH",
"130.5 499 OFFCURVE",
"144.33 493 OFFCURVE",
"161 493 CURVE SMOOTH"
);
},
{
closed = 1;
nodes = (
"669 393 OFFCURVE",
"683.17 398.83 OFFCURVE",
"693.5 410.5 CURVE SMOOTH",
"703.83 422.17 OFFCURVE",
"709 437.33 OFFCURVE",
"709 456 CURVE SMOOTH",
"709 473.33 OFFCURVE",
"703.67 488 OFFCURVE",
"693 500 CURVE SMOOTH",
"682.33 512 OFFCURVE",
"668.33 518 OFFCURVE",
"651 518 CURVE SMOOTH",
"634.33 518 OFFCURVE",
"620.5 512 OFFCURVE",
"609.5 500 CURVE SMOOTH",
"598.5 488 OFFCURVE",
"593 473.33 OFFCURVE",
"593 456 CURVE SMOOTH",
"593 438 OFFCURVE",
"598.5 423 OFFCURVE",
"609.5 411 CURVE SMOOTH",
"620.5 399 OFFCURVE",
"634.33 393 OFFCURVE",
"651 393 CURVE SMOOTH"
);
}
);
vertWidth = 1000;
width = 800;
}
);
note = u1B195;
unicode = 1B195;
},
{
glyphname = u1B196;
layers = (
{
hints = (
{
horizontal = 1;
place = "{743, -20}";
target = down;
type = TopGhost;
},
{
place = "{463, 80}";
type = Stem;
},
{
place = "{645, 80}";
type = Stem;
}
);
layerId = "077E5A87-ACC6-4633-A27C-E6914C382A59";
paths = (
{
closed = 1;
nodes = (
"259 738 LINE",
"400.65 493.21 OFFCURVE",
"468.65 207.55 OFFCURVE",
"463 -119 CURVE",
"543 -120 LINE",
"543.92 61.93 OFFCURVE",
"524.92 230.6 OFFCURVE",
"486 386 CURVE SMOOTH",
"446.65 540.93 OFFCURVE",
"383.99 689.26 OFFCURVE",
"298 831 CURVE",
"231 821 LINE",
"180.72 658.23 OFFCURVE",
"123.38 506.9 OFFCURVE",
"59 367 CURVE",
"133 334 LINE",
"196.67 479.17 OFFCURVE",
"249.01 615.5 OFFCURVE",
"290 743 CURVE"
);
},
{
closed = 1;
nodes = (
"444 471 LINE",
"493.84 616.44 OFFCURVE",
"536.51 754.77 OFFCURVE",
"572 886 CURVE",
"553 887 LINE",
"602.31 706.61 OFFCURVE",
"632.98 531.28 OFFCURVE",
"645 361 CURVE",
"725 367 LINE",
"708 580 OFFCURVE",
"665 791 OFFCURVE",
"596 1000 CURVE",
"523 999 LINE",
"484 858 OFFCURVE",
"443 722 OFFCURVE",
"400 591 CURVE"
);
},
{
closed = 1;
nodes = (
"379 538 LINE",
"321.65 366.02 OFFCURVE",
"260.99 200.68 OFFCURVE",
"197 42 CURVE",
"271 16 LINE",
"330 165 OFFCURVE",
"379 295 OFFCURVE",
"418 406 CURVE"
);
}
);
vertWidth = 1000;
width = 800;
}
);
note = u1B196;
unicode = 1B196;
},
{
glyphname = u1B197;
layers = (
{
hints = (
{
place = "{576, 79}";
type = Stem;
}
);
layerId = "077E5A87-ACC6-4633-A27C-E6914C382A59";
paths = (
{
closed = 1;
nodes = (
"294 -120 LINE",
"362.46 -79.06 OFFCURVE",
"433.46 -29.73 OFFCURVE",
"507 28 CURVE SMOOTH",
"580.16 84.65 OFFCURVE",
"641.5 138.65 OFFCURVE",
"691 190 CURVE",
"633 244 LINE",
"584.31 193.34 OFFCURVE",
"526.64 142.34 OFFCURVE",
"460 91 CURVE SMOOTH",
"388.78 36.34 OFFCURVE",
"321.11 -10.66 OFFCURVE",
"257 -50 CURVE"
);
},
{
closed = 1;
nodes = (
"192 779 LINE",
"460 43 LINE",
"524 104 LINE",
"269 805 LINE"
);
},
{
closed = 1;
nodes = (
"372 455 LINE",
"519.51 600.82 OFFCURVE",
"613.84 777.48 OFFCURVE",
"655 985 CURVE",
"576 1000 LINE",
"537.82 818.07 OFFCURVE",
"460.49 665.07 OFFCURVE",
"344 541 CURVE"
);
},
{
closed = 1;
nodes = (
"312 514 LINE",
"250.01 458.19 OFFCURVE",
"187.01 409.53 OFFCURVE",
"123 368 CURVE",
"164 301 LINE",
"223.8 338.1 OFFCURVE",
"282.8 381.43 OFFCURVE",
"341 431 CURVE"
);
},
{
closed = 1;
nodes = (
"450 253 LINE",
"513.32 310.46 OFFCURVE",
"569.65 368.8 OFFCURVE",
"619 428 CURVE",
"557 479 LINE",
"520.89 435.57 OFFCURVE",
"476.89 388.91 OFFCURVE",
"425 339 CURVE"
);
},
{
closed = 1;
nodes = (
"388 312 LINE",
"337.47 267.29 OFFCURVE",
"276.81 221.96 OFFCURVE",
"206 176 CURVE",
"247 108 LINE",
"290.28 134.99 OFFCURVE",
"345.61 174.99 OFFCURVE",
"413 228 CURVE"
);
}
);
vertWidth = 1000;
width = 800;
}
);
note = u1B197;
unicode = 1B197;
},
{
glyphname = u1B198;
layers = (
{
hints = (
{
place = "{262, 82}";
type = Stem;
},
{
place = "{402, 78}";
type = Stem;
},
{
place = "{584, 76}";
type = Stem;
}
);
layerId = "077E5A87-ACC6-4633-A27C-E6914C382A59";
paths = (
{
closed = 1;
nodes = (
"274 -120 LINE",
"320.34 -22.05 OFFCURVE",
"343.68 74.61 OFFCURVE",
"344 170 CURVE SMOOTH",
"343.79 287.93 OFFCURVE",
"308.79 398.59 OFFCURVE",
"239 502 CURVE",
"230 459 LINE",
"314.98 521.16 OFFCURVE",
"386.98 593.5 OFFCURVE",
"446 676 CURVE SMOOTH",
"505.82 760.34 OFFCURVE",
"555.48 860.01 OFFCURVE",
"595 975 CURVE",
"518 1000 LINE",
"480.91 889.09 OFFCURVE",
"432.25 792.76 OFFCURVE",
"372 711 CURVE SMOOTH",
"310.95 629.19 OFFCURVE",
"235.28 556.85 OFFCURVE",
"145 494 CURVE",
"145 492 LINE",
"222.52 388.3 OFFCURVE",
"261.52 280.97 OFFCURVE",
"262 170 CURVE SMOOTH",
"262 88.36 OFFCURVE",
"240.33 2.69 OFFCURVE",
"197 -87 CURVE"
);
},
{
closed = 1;
nodes = (
"523 610 LINE",
"442.99 536.54 OFFCURVE",
"402.65 454.2 OFFCURVE",
"402 363 CURVE SMOOTH",
"402 276 OFFCURVE",
"436 202 OFFCURVE",
"504 141 CURVE",
"569 141 LINE",
"629.16 207.46 OFFCURVE",
"659.49 286.79 OFFCURVE",
"660 379 CURVE SMOOTH",
"659.83 445.67 OFFCURVE",
"643.17 513 OFFCURVE",
"610 581 CURVE SMOOTH",
"576.47 648.66 OFFCURVE",
"529.47 708 OFFCURVE",
"469 759 CURVE",
"422 698 LINE",
"469.22 656.36 OFFCURVE",
"508.55 607.02 OFFCURVE",
"540 550 CURVE SMOOTH",
"569 493.66 OFFCURVE",
"583.67 436 OFFCURVE",
"584 377 CURVE SMOOTH",
"583.79 317.59 OFFCURVE",
"567.12 263.92 OFFCURVE",
"534 216 CURVE",
"498 258 OFFCURVE",
"480 306 OFFCURVE",
"480 360 CURVE SMOOTH",
"480.3 426.87 OFFCURVE",
"507.63 486.87 OFFCURVE",
"562 540 CURVE"
);
}
);
vertWidth = 1000;
width = 800;
}
);
note = u1B198;
unicode = 1B198;
},
{
glyphname = u1B199;
layers = (
{
hints = (
{
place = "{381, 79}";
type = Stem;
}
);
layerId = "077E5A87-ACC6-4633-A27C-E6914C382A59";
paths = (
{
closed = 1;
nodes = (
"157 301 LINE",
"266.33 386.33 OFFCURVE",
"344.5 481.67 OFFCURVE",
"391.5 587 CURVE SMOOTH",
"438.5 692.33 OFFCURVE",
"463.33 829.33 OFFCURVE",
"466 998 CURVE",
"384 1000 LINE",
"381.33 844 OFFCURVE",
"359 718.83 OFFCURVE",
"317 624.5 CURVE SMOOTH",
"275 530.17 OFFCURVE",
"204.33 444 OFFCURVE",
"105 366 CURVE"
);
},
{
closed = 1;
nodes = (
"199 -120 LINE",
"362.33 12.67 OFFCURVE",
"449.33 191.67 OFFCURVE",
"460 417 CURVE",
"381 420 LINE",
"370.33 216.67 OFFCURVE",
"291.67 55.33 OFFCURVE",
"145 -64 CURVE"
);
},
{
closed = 1;
nodes = (
"657 -80 LINE",
"583 49.33 OFFCURVE",
"500 161.33 OFFCURVE",
"408 256 CURVE",
"375 175 LINE",
"454.33 92.33 OFFCURVE",
"524.67 -6 OFFCURVE",
"586 -120 CURVE"
);
},
{
closed = 1;
nodes = (
"386 637 LINE",
"486 544.33 OFFCURVE",
"568 440.67 OFFCURVE",
"632 326 CURVE",
"703 368 LINE",
"627.67 496 OFFCURVE",
"532 611.67 OFFCURVE",
"416 715 CURVE"
);
}
);
vertWidth = 1000;
width = 800;
}
);
note = u1B199;
unicode = 1B199;
},
{
glyphname = u1B19A;
layers = (
{
hints = (
{
place = "{486, 79}";
type = Stem;
},
{
place = "{642, 76}";
type = Stem;
}
);
layerId = "077E5A87-ACC6-4633-A27C-E6914C382A59";
paths = (
{
closed = 1;
nodes = (
"237 295 LINE",
"432.33 475 OFFCURVE",
"541.67 708.67 OFFCURVE",
"565 996 CURVE",
"486 1000 LINE",
"466.67 760.67 OFFCURVE",
"382.67 561.33 OFFCURVE",
"234 402 CURVE"
);
},
{
closed = 1;
nodes = (
"152 -120 LINE",
"240 49.33 OFFCURVE",
"284 214 OFFCURVE",
"284 374 CURVE SMOOTH",
"284 510.67 OFFCURVE",
"251.33 656.33 OFFCURVE",
"186 811 CURVE",
"112 778 LINE",
"172.67 634.67 OFFCURVE",
"203 500 OFFCURVE",
"203 374 CURVE SMOOTH",
"203 225.33 OFFCURVE",
"162 73 OFFCURVE",
"80 -83 CURVE"
);
},
{
closed = 1;
nodes = (
"316 438 LINE",
"475 0 LINE",
"542 -8 LINE",
"619.33 96 OFFCURVE",
"678 225.67 OFFCURVE",
"718 381 CURVE",
"642 398 LINE",
"618 290.67 OFFCURVE",
"578.33 191.67 OFFCURVE",
"523 101 CURVE",
"379 503 LINE"
);
}
);
vertWidth = 1000;
width = 800;
}
);
note = u1B19A;
unicode = 1B19A;
},
{
glyphname = u1B19B;
layers = (
{
hints = (
{
horizontal = 1;
place = "{203, 119}";
type = Stem;
},
{
horizontal = 1;
place = "{467, 119}";
type = Stem;
},
{
place = "{132, 112}";
type = Stem;
},
{
place = "{602, 78}";
type = Stem;
},
{
place = "{141, 112}";
type = Stem;
}
);
layerId = "077E5A87-ACC6-4633-A27C-E6914C382A59";
paths = (
{
closed = 1;
nodes = (
"203.14 203.29 OFFCURVE",
"216.47 209.29 OFFCURVE",
"228 221 CURVE SMOOTH",
"238.14 231.55 OFFCURVE",
"243.47 245.22 OFFCURVE",
"244 262 CURVE SMOOTH",
"243.76 279.14 OFFCURVE",
"238.76 293.48 OFFCURVE",
"229 305 CURVE SMOOTH",
"217.85 315.8 OFFCURVE",
"204.19 321.47 OFFCURVE",
"188 322 CURVE SMOOTH",
"173.18 321.72 OFFCURVE",
"159.84 316.05 OFFCURVE",
"148 305 CURVE SMOOTH",
"137.84 294.4 OFFCURVE",
"132.51 280.07 OFFCURVE",
"132 262 CURVE SMOOTH",
"132.25 245.86 OFFCURVE",
"137.58 232.19 OFFCURVE",
"148 221 CURVE SMOOTH",
"158.82 209.59 OFFCURVE",
"172.16 203.59 OFFCURVE",
"188 203 CURVE SMOOTH"
);
},
{
closed = 1;
nodes = (
"211.82 467.28 OFFCURVE",
"225.16 472.95 OFFCURVE",
"237 484 CURVE SMOOTH",
"247.15 494.56 OFFCURVE",
"252.48 508.56 OFFCURVE",
"253 526 CURVE SMOOTH",
"252.76 543.14 OFFCURVE",
"247.76 557.48 OFFCURVE",
"238 569 CURVE SMOOTH",
"226.85 579.8 OFFCURVE",
"213.19 585.47 OFFCURVE",
"197 586 CURVE SMOOTH",
"182.18 585.72 OFFCURVE",
"168.84 580.05 OFFCURVE",
"157 569 CURVE SMOOTH",
"146.84 558.4 OFFCURVE",
"141.51 544.07 OFFCURVE",
"141 526 CURVE SMOOTH",
"141.24 509.23 OFFCURVE",
"146.57 495.23 OFFCURVE",
"157 484 CURVE SMOOTH",
"168.14 473.21 OFFCURVE",
"181.48 467.54 OFFCURVE",
"197 467 CURVE SMOOTH"
);
},
{
closed = 1;
nodes = (
"279 808 LINE",
"616 -120 LINE",
"692 -92 LINE",
"354 836 LINE"
);
},
{
closed = 1;
nodes = (
"523 340 LINE",
"602.59 509.58 OFFCURVE",
"654.92 728.25 OFFCURVE",
"680 996 CURVE",
"602 1000 LINE",
"583 782.95 OFFCURVE",
"544 599.62 OFFCURVE",
"485 450 CURVE"
);
},
{
closed = 1;
nodes = (
"447 383 LINE",
"380.05 251.4 OFFCURVE",
"287.39 123.73 OFFCURVE",
"169 0 CURVE",
"226 -58 LINE",
"326.72 47.79 OFFCURVE",
"413.05 160.79 OFFCURVE",
"485 281 CURVE"
);
}
);
vertWidth = 1000;
width = 800;
}
);
note = u1B19B;
unicode = 1B19B;
},
{
glyphname = u1B19C;
layers = (
{
hints = (
{
place = "{220, 82}";
type = Stem;
},
{
place = "{507, 81}";
type = Stem;
},
{
place = "{491, 80}";
type = Stem;
}
);
layerId = "077E5A87-ACC6-4633-A27C-E6914C382A59";
paths = (
{
closed = 1;
nodes = (
"414 386 LINE",
"509.33 542.67 OFFCURVE",
"567.33 745.67 OFFCURVE",
"588 995 CURVE",
"507 1000 LINE",
"489 765.33 OFFCURVE",
"440.33 583.33 OFFCURVE",
"361 454 CURVE",
"406 454 LINE",
"260 855 LINE",
"184 828 LINE",
"342 397 LINE"
);
},
{
closed = 1;
nodes = (
"210 -120 LINE",
"271.33 -29.33 OFFCURVE",
"302 61.33 OFFCURVE",
"302 152 CURVE SMOOTH",
"302 260 OFFCURVE",
"270 359.33 OFFCURVE",
"206 450 CURVE",
"136 403 LINE",
"192 329 OFFCURVE",
"220 246.33 OFFCURVE",
"220 155 CURVE SMOOTH",
"220 78.33 OFFCURVE",
"193.67 1 OFFCURVE",
"141 -77 CURVE"
);
},
{
closed = 1;
nodes = (
"491 98.33 OFFCURVE",
"521.67 4 OFFCURVE",
"583 -86 CURVE",
"650 -42 LINE",
"597.33 34 OFFCURVE",
"571 113.67 OFFCURVE",
"571 197 CURVE SMOOTH",
"571 282.33 OFFCURVE",
"598.67 363 OFFCURVE",
"654 439 CURVE",
"586 484 LINE",
"522.67 393.33 OFFCURVE",
"491 297.67 OFFCURVE",
"491 197 CURVE SMOOTH"
);
}
);
vertWidth = 1000;
width = 800;
}
);
note = u1B19C;
unicode = 1B19C;
},
{
glyphname = u1B19D;
layers = (
{
hints = (
{
place = "{373, 81}";
type = Stem;
}
);
layerId = "077E5A87-ACC6-4633-A27C-E6914C382A59";
paths = (
{
closed = 1;
nodes = (
"134 277 LINE",
"248.12 375.46 OFFCURVE",
"329.45 479.79 OFFCURVE",
"378 590 CURVE SMOOTH",
"425.47 701.47 OFFCURVE",
"450.8 837.13 OFFCURVE",
"454 997 CURVE",
"373 1000 LINE",
"367.99 849.98 OFFCURVE",
"344.66 725.31 OFFCURVE",
"303 626 CURVE SMOOTH",
"262.54 530.83 OFFCURVE",
"188.21 434.5 OFFCURVE",
"80 337 CURVE"
);
},
{
closed = 1;
nodes = (
"365 661 LINE",
"417.76 611.71 OFFCURVE",
"469.43 555.71 OFFCURVE",
"520 493 CURVE SMOOTH",
"572.72 425.85 OFFCURVE",
"623.06 355.52 OFFCURVE",
"671 282 CURVE",
"736 328 LINE",
"683.66 409.76 OFFCURVE",
"631.32 482.76 OFFCURVE",
"579 547 CURVE SMOOTH",
"532.21 604.17 OFFCURVE",
"472.88 666.17 OFFCURVE",
"401 733 CURVE"
);
},
{
closed = 1;
nodes = (
"216 396 LINE",
"283.22 336.21 OFFCURVE",
"349.22 261.54 OFFCURVE",
"414 172 CURVE SMOOTH",
"477.4 82.92 OFFCURVE",
"529.07 -5.75 OFFCURVE",
"569 -94 CURVE",
"643 -58 LINE",
"553.4 143.17 OFFCURVE",
"426.73 317.5 OFFCURVE",
"263 465 CURVE"
);
},
{
closed = 1;
nodes = (
"464 224 LINE",
"507.58 299.18 OFFCURVE",
"542.24 382.51 OFFCURVE",
"568 474 CURVE",
"507 543 LINE",
"487.2 456.37 OFFCURVE",
"454.54 372.37 OFFCURVE",
"409 291 CURVE"
);
},
{
closed = 1;
nodes = (
"384 258 LINE",
"308 141 OFFCURVE",
"208 36 OFFCURVE",
"84 -57 CURVE",
"132 -120 LINE",
"257.85 -26.41 OFFCURVE",
"359.19 76.92 OFFCURVE",
"436 190 CURVE"
);
}
);
vertWidth = 1000;
width = 800;
}
);
note = u1B19D;
unicode = 1B19D;
},
{
glyphname = u1B19E;
layers = (
{
hints = (
{
place = "{517, 78}";
type = Stem;
}
);
layerId = "077E5A87-ACC6-4633-A27C-E6914C382A59";
paths = (
{
closed = 1;
nodes = (
"154 332 LINE",
"276.05 417.22 OFFCURVE",
"373.72 513.22 OFFCURVE",
"447 620 CURVE SMOOTH",
"519.13 726 OFFCURVE",
"568.46 848.66 OFFCURVE",
"595 988 CURVE",
"517 1000 LINE",
"491.77 872.53 OFFCURVE",
"445.77 760.2 OFFCURVE",
"379 663 CURVE SMOOTH",
"312 566 OFFCURVE",
"222 478 OFFCURVE",
"109 399 CURVE"
);
},
{
closed = 1;
nodes = (
"216 74 LINE",
"272.63 114.79 OFFCURVE",
"321.29 154.46 OFFCURVE",
"362 193 CURVE",
"365 302 LINE",
"311.21 246.38 OFFCURVE",
"247.21 192.05 OFFCURVE",
"173 139 CURVE"
);
},
{
closed = 1;
nodes = (
"376 -120 LINE",
"486 -30 OFFCURVE",
"578 63 OFFCURVE",
"652 159 CURVE",
"590 207 LINE",
"523.04 122.19 OFFCURVE",
"452.71 47.85 OFFCURVE",
"379 -16 CURVE",
"402 -32 LINE",
"419.51 96.97 OFFCURVE",
"427.84 201.64 OFFCURVE",
"427 282 CURVE SMOOTH",
"426.02 360.03 OFFCURVE",
"416.69 470.03 OFFCURVE",
"399 612 CURVE",
"330 535 LINE",
"356.05 311.6 OFFCURVE",
"352.05 105.26 OFFCURVE",
"318 -84 CURVE"
);
},
{
closed = 1;
nodes = (
"410 224 LINE",
"489.23 303.33 OFFCURVE",
"557.57 382.66 OFFCURVE",
"615 462 CURVE",
"552 506 LINE",
"506.87 445.55 OFFCURVE",
"459.54 388.55 OFFCURVE",
"410 335 CURVE"
);
}
);
vertWidth = 1000;
width = 800;
}
);
note = u1B19E;
unicode = 1B19E;
},
{
glyphname = u1B19F;
layers = (
{
hints = (
{
place = "{140, 79}";
type = Stem;
},
{
place = "{542, 79}";
type = Stem;
},
{
place = "{586, 76}";
type = Stem;
}
);
layerId = "077E5A87-ACC6-4633-A27C-E6914C382A59";
paths = (
{
closed = 1;
nodes = (
"732 -48 LINE",
"689.08 31.37 OFFCURVE",
"633.74 110.37 OFFCURVE",
"566 189 CURVE",
"602.38 262.14 OFFCURVE",
"620.71 346.14 OFFCURVE",
"621 441 CURVE SMOOTH",
"620.89 521.31 OFFCURVE",
"606.23 609.97 OFFCURVE",
"577 707 CURVE",
"611 787.82 OFFCURVE",
"639.33 880.48 OFFCURVE",
"662 985 CURVE",
"586 1000 LINE",
"527.15 751.46 OFFCURVE",
"417.82 542.46 OFFCURVE",
"258 373 CURVE",
"258 371 LINE",
"331.81 311.27 OFFCURVE",
"399.81 247.93 OFFCURVE",
"462 181 CURVE",
"426 138 OFFCURVE",
"387 99 OFFCURVE",
"345 64 CURVE SMOOTH",
"301.25 27.32 OFFCURVE",
"244.91 -10.34 OFFCURVE",
"176 -49 CURVE",
"216 -120 LINE",
"332.02 -59.83 OFFCURVE",
"432.02 20.17 OFFCURVE",
"516 120 CURVE",
"576 50 OFFCURVE",
"625 -20 OFFCURVE",
"663 -90 CURVE"
);
},
{
closed = 1;
nodes = (
"430.08 449.02 OFFCURVE",
"481.08 522.68 OFFCURVE",
"524 599 CURVE",
"535.85 542.41 OFFCURVE",
"541.85 489.74 OFFCURVE",
"542 441 CURVE SMOOTH",
"541.88 369.36 OFFCURVE",
"530.55 306.69 OFFCURVE",
"508 253 CURVE",
"458.83 303.17 OFFCURVE",
"413.17 344.84 OFFCURVE",
"371 378 CURVE"
);
},
{
closed = 1;
nodes = (
"79 451 LINE",
"119.26 391.27 OFFCURVE",
"139.59 326.6 OFFCURVE",
"140 257 CURVE SMOOTH",
"139.82 198.59 OFFCURVE",
"123.15 137.93 OFFCURVE",
"90 75 CURVE",
"161 42 LINE",
"199.31 106.89 OFFCURVE",
"218.65 178.22 OFFCURVE",
"219 256 CURVE SMOOTH",
"218.79 342.42 OFFCURVE",
"194.12 421.09 OFFCURVE",
"145 492 CURVE"
);
}
);
vertWidth = 1000;
width = 800;
}
);
note = u1B19F;
unicode = 1B19F;
},
{
glyphname = u1B1A0;
layers = (
{
hints = (
{
place = "{368, 81}";
type = Stem;
},
{
place = "{638, 80}";
type = Stem;
}
);
layerId = "077E5A87-ACC6-4633-A27C-E6914C382A59";
paths = (
{
closed = 1;
nodes = (
"443 -120 LINE",
"446.96 -52.34 OFFCURVE",
"448.96 15.32 OFFCURVE",
"449 83 CURVE SMOOTH",
"448.87 380.57 OFFCURVE",
"400.54 636.23 OFFCURVE",
"304 850 CURVE",
"229 839 LINE",
"178.02 674.21 OFFCURVE",
"120.69 521.54 OFFCURVE",
"57 381 CURVE",
"133 346 LINE",
"195 491 OFFCURVE",
"247 633 OFFCURVE",
"289 772 CURVE",
"252 774 LINE",
"329.11 574.33 OFFCURVE",
"367.78 341.66 OFFCURVE",
"368 76 CURVE SMOOTH",
"367.98 0.77 OFFCURVE",
"365.64 -63.23 OFFCURVE",
"361 -116 CURVE"
);
},
{
closed = 1;
nodes = (
"421 327 LINE",
"478 517 OFFCURVE",
"526 696 OFFCURVE",
"565 864 CURVE",
"553 864 LINE",
"596.8 693.65 OFFCURVE",
"625.14 525.65 OFFCURVE",
"638 360 CURVE",
"718 367 LINE",
"701 580 OFFCURVE",
"658 791 OFFCURVE",
"589 1000 CURVE",
"516 999 LINE",
"478 828 OFFCURVE",
"434 652 OFFCURVE",
"384 471 CURVE"
);
}
);
vertWidth = 1000;
width = 800;
}
);
note = u1B1A0;
unicode = 1B1A0;
},
{
glyphname = u1B1A1;
layers = (
{
hints = (
{
horizontal = 1;
place = "{560, 125}";
type = Stem;
},
{
place = "{222, 116}";
type = Stem;
},
{
place = "{520, 82}";
type = Stem;
}
);
layerId = "077E5A87-ACC6-4633-A27C-E6914C382A59";
paths = (
{
closed = 1;
nodes = (
"165 25 LINE",
"301.61 160.8 OFFCURVE",
"402.28 302.47 OFFCURVE",
"467 450 CURVE SMOOTH",
"532 598 OFFCURVE",
"577 779 OFFCURVE",
"602 993 CURVE",
"520 1000 LINE",
"497.02 797.97 OFFCURVE",
"455.02 626.63 OFFCURVE",
"394 486 CURVE SMOOTH",
"332.72 345.79 OFFCURVE",
"236.72 211.12 OFFCURVE",
"106 82 CURVE"
);
},
{
closed = 1;
nodes = (
"417 -113 LINE",
"479 -120 LINE",
"518 -79 OFFCURVE",
"557 -28 OFFCURVE",
"596 33 CURVE SMOOTH",
"633.43 91.64 OFFCURVE",
"665.77 149.64 OFFCURVE",
"693 207 CURVE",
"621 242 LINE",
"572.51 137.34 OFFCURVE",
"512.84 42.34 OFFCURVE",
"442 -43 CURVE",
"484 -55 LINE",
"352 308 LINE",
"294 218 LINE"
);
},
{
closed = 1;
nodes = (
"222.27 605.5 OFFCURVE",
"227.93 590.84 OFFCURVE",
"239 578 CURVE SMOOTH",
"249.83 566.58 OFFCURVE",
"263.49 560.58 OFFCURVE",
"280 560 CURVE SMOOTH",
"297 560 OFFCURVE",
"311 566 OFFCURVE",
"322 578 CURVE SMOOTH",
"332.17 589.51 OFFCURVE",
"337.51 604.17 OFFCURVE",
"338 622 CURVE SMOOTH",
"337.79 640.45 OFFCURVE",
"332.45 655.78 OFFCURVE",
"322 668 CURVE SMOOTH",
"310.8 678.82 OFFCURVE",
"296.8 684.48 OFFCURVE",
"280 685 CURVE SMOOTH",
"264.23 684.73 OFFCURVE",
"250.57 678.73 OFFCURVE",
"239 667 CURVE SMOOTH",
"228.15 654.79 OFFCURVE",
"222.48 639.79 OFFCURVE",
"222 622 CURVE SMOOTH"
);
}
);
vertWidth = 1000;
width = 800;
}
);
note = u1B1A1;
unicode = 1B1A1;
},
{
glyphname = u1B1A2;
layers = (
{
hints = (
{
place = "{492, 82}";
type = Stem;
},
{
place = "{649, 78}";
type = Stem;
}
);
layerId = "077E5A87-ACC6-4633-A27C-E6914C382A59";
paths = (
{
closed = 1;
nodes = (
"442 -120 LINE",
"568 64 OFFCURVE",
"663 267 OFFCURVE",
"727 489 CURVE",
"649 509 LINE",
"588.33 308.33 OFFCURVE",
"508 131.67 OFFCURVE",
"408 -21 CURVE",
"439 -31 LINE",
"143 388 LINE",
"77 342 LINE",
"399 -117 LINE"
);
},
{
closed = 1;
nodes = (
"533 126 LINE",
"583 198 LINE",
"222 712 LINE",
"154 666 LINE"
);
},
{
closed = 1;
nodes = (
"440 381 LINE",
"514.67 575 OFFCURVE",
"559.33 779.33 OFFCURVE",
"574 994 CURVE",
"492 1000 LINE",
"476.67 806 OFFCURVE",
"440.33 625.67 OFFCURVE",
"383 459 CURVE"
);
},
{
closed = 1;
nodes = (
"358 410 LINE",
"326.67 332.67 OFFCURVE",
"289 257.33 OFFCURVE",
"245 184 CURVE",
"298 112 LINE",
"342.67 182 OFFCURVE",
"382 255.33 OFFCURVE",
"416 332 CURVE"
);
}
);
vertWidth = 1000;
width = 800;
}
);
note = u1B1A2;
unicode = 1B1A2;
},
{
glyphname = u1B1A3;
layers = (
{
hints = (
{
horizontal = 1;
place = "{209, 74}";
type = Stem;
},
{
place = "{436, 81}";
type = Stem;
},
{
place = "{565, 73}";
type = Stem;
}
);
layerId = "077E5A87-ACC6-4633-A27C-E6914C382A59";
paths = (
{
closed = 1;
nodes = (
"234 324 LINE",
"421.33 430.67 OFFCURVE",
"569.67 547.33 OFFCURVE",
"679 674 CURVE",
"621 728 LINE",
"513.67 604 OFFCURVE",
"371.67 492.33 OFFCURVE",
"195 393 CURVE"
);
},
{
closed = 1;
nodes = (
"160 489 LINE",
"269.33 555.67 OFFCURVE",
"357.67 628.5 OFFCURVE",
"425 707.5 CURVE SMOOTH",
"492.33 786.5 OFFCURVE",
"543 876.67 OFFCURVE",
"577 978 CURVE",
"501 1000 LINE",
"469.67 909.33 OFFCURVE",
"423 828 OFFCURVE",
"361 756 CURVE SMOOTH",
"299 684 OFFCURVE",
"218 617.33 OFFCURVE",
"118 556 CURVE"
);
},
{
closed = 1;
nodes = (
"217 209 LINE",
"415.67 171.67 OFFCURVE",
"531.67 62 OFFCURVE",
"565 -120 CURVE",
"638 -100 LINE",
"616.67 8.67 OFFCURVE",
"573.5 95.17 OFFCURVE",
"508.5 159.5 CURVE SMOOTH",
"443.5 223.83 OFFCURVE",
"351.67 265 OFFCURVE",
"233 283 CURVE"
);
},
{
closed = 1;
nodes = (
"470 158 LINE",
"501.33 216 OFFCURVE",
"517 281 OFFCURVE",
"517 353 CURVE SMOOTH",
"517 485.67 OFFCURVE",
"466.33 603.67 OFFCURVE",
"365 707 CURVE",
"310 643 LINE",
"394 551.67 OFFCURVE",
"436 453.33 OFFCURVE",
"436 348 CURVE SMOOTH",
"436 298.67 OFFCURVE",
"424.67 252.33 OFFCURVE",
"402 209 CURVE"
);
},
{
closed = 1;
nodes = (
"378 176 LINE",
"324 107.33 OFFCURVE",
"239.33 43.67 OFFCURVE",
"124 -15 CURVE",
"163 -89 LINE",
"287 -26.33 OFFCURVE",
"383.67 47 OFFCURVE",
"453 131 CURVE"
);
}
);
vertWidth = 1000;
width = 800;
}
);
note = u1B1A3;
unicode = 1B1A3;
},
{
glyphname = u1B1A4;
layers = (
{
layerId = "077E5A87-ACC6-4633-A27C-E6914C382A59";
paths = (
{
closed = 1;
nodes = (
"167 -120 LINE",
"307.67 -29.33 OFFCURVE",
"432.33 58.67 OFFCURVE",
"541 144 CURVE",
"481 209 LINE",
"373 118.33 OFFCURVE",
"254.33 32.67 OFFCURVE",
"125 -48 CURVE"
);
},
{
closed = 1;
nodes = (
"300 606 LINE",
"468 718.67 OFFCURVE",
"592.33 834 OFFCURVE",
"673 952 CURVE",
"605 1000 LINE",
"529 888.67 OFFCURVE",
"413.67 780 OFFCURVE",
"259 674 CURVE"
);
},
{
closed = 1;
nodes = (
"462 114 LINE",
"541 144 LINE",
"339 701 LINE",
"259 674 LINE"
);
},
{
closed = 1;
nodes = (
"437 371 LINE",
"541.67 452.33 OFFCURVE",
"627.33 523.33 OFFCURVE",
"694 584 CURVE",
"638 648 LINE",
"584 596.67 OFFCURVE",
"507 532 OFFCURVE",
"407 454 CURVE"
);
},
{
closed = 1;
nodes = (
"365 428 LINE",
"275 360 OFFCURVE",
"182 297.67 OFFCURVE",
"86 241 CURVE",
"127 166 LINE",
"205 211.33 OFFCURVE",
"293.33 270.67 OFFCURVE",
"392 344 CURVE"
);
}
);
vertWidth = 1000;
width = 800;
}
);
note = u1B1A4;
unicode = 1B1A4;
},
{
glyphname = u1B1A5;
layers = (
{
hints = (
{
place = "{232, 81}";
type = Stem;
},
{
place = "{486, 80}";
type = Stem;
}
);
layerId = "077E5A87-ACC6-4633-A27C-E6914C382A59";
paths = (
{
closed = 1;
nodes = (
"243 -120 LINE",
"289.67 -20.67 OFFCURVE",
"313 76 OFFCURVE",
"313 170 CURVE SMOOTH",
"313 294.67 OFFCURVE",
"278 405.33 OFFCURVE",
"208 502 CURVE",
"198 459 LINE",
"286.67 527 OFFCURVE",
"360.17 602.5 OFFCURVE",
"418.5 685.5 CURVE SMOOTH",
"476.83 768.5 OFFCURVE",
"525.67 866 OFFCURVE",
"565 978 CURVE",
"488 1000 LINE",
"451.33 895.33 OFFCURVE",
"403.33 802.17 OFFCURVE",
"344 720.5 CURVE SMOOTH",
"284.67 638.83 OFFCURVE",
"208.33 563.33 OFFCURVE",
"115 494 CURVE",
"115 492 LINE",
"193 388 OFFCURVE",
"232 280.67 OFFCURVE",
"232 170 CURVE SMOOTH",
"232 88.67 OFFCURVE",
"211.33 4 OFFCURVE",
"170 -84 CURVE"
);
},
{
closed = 1;
nodes = (
"342 625 LINE",
"438 477.67 OFFCURVE",
"486 333.67 OFFCURVE",
"486 193 CURVE SMOOTH",
"486 130.33 OFFCURVE",
"477 66 OFFCURVE",
"459 0 CURVE",
"537 -18 LINE",
"556.33 57.33 OFFCURVE",
"566 128.67 OFFCURVE",
"566 196 CURVE SMOOTH",
"566 355.33 OFFCURVE",
"510 520 OFFCURVE",
"398 690 CURVE"
);
},
{
closed = 1;
nodes = (
"519 385 LINE",
"595.67 463 OFFCURVE",
"656.33 540.67 OFFCURVE",
"701 618 CURVE",
"633 656 LINE",
"601 601.33 OFFCURVE",
"554.33 540 OFFCURVE",
"493 472 CURVE"
);
},
{
closed = 1;
nodes = (
"460 443 LINE",
"406.67 389.67 OFFCURVE",
"343 338 OFFCURVE",
"269 288 CURVE",
"284 201 LINE",
"359.33 251 OFFCURVE",
"425.67 302.33 OFFCURVE",
"483 355 CURVE"
);
}
);
vertWidth = 1000;
width = 800;
}
);
note = u1B1A5;
unicode = 1B1A5;
},
{
glyphname = u1B1A6;
layers = (
{
hints = (
{
place = "{270, 78}";
type = Stem;
},
{
place = "{472, 80}";
type = Stem;
},
{
place = "{587, 77}";
type = Stem;
}
);
layerId = "077E5A87-ACC6-4633-A27C-E6914C382A59";
paths = (
{
closed = 1;
nodes = (
"543 0 LINE",
"549 69.33 OFFCURVE",
"552 136 OFFCURVE",
"552 200 CURVE SMOOTH",
"552 422.67 OFFCURVE",
"510.33 659 OFFCURVE",
"427 909 CURVE",
"351 880 LINE",
"431.67 644.67 OFFCURVE",
"472 420 OFFCURVE",
"472 206 CURVE SMOOTH",
"472 142 OFFCURVE",
"469 75.67 OFFCURVE",
"463 7 CURVE"
);
},
{
closed = 1;
nodes = (
"328 125 LINE",
"399.33 172.33 OFFCURVE",
"457.67 217.33 OFFCURVE",
"503 260 CURVE",
"527 278 LINE",
"593 343.33 OFFCURVE",
"654.67 420 OFFCURVE",
"712 508 CURVE",
"648 551 LINE",
"602.67 483 OFFCURVE",
"559.33 427.67 OFFCURVE",
"518 385 CURVE SMOOTH",
"496 365 LINE",
"444.67 309.67 OFFCURVE",
"388 261.67 OFFCURVE",
"326 221 CURVE",
"299 206 LINE",
"251 172.67 OFFCURVE",
"194 138.33 OFFCURVE",
"128 103 CURVE",
"162 32 LINE",
"207.33 55.33 OFFCURVE",
"253.33 82.33 OFFCURVE",
"300 113 CURVE"
);
},
{
closed = 1;
nodes = (
"312 387 LINE",
"370.67 430.33 OFFCURVE",
"421.33 477 OFFCURVE",
"464 527 CURVE SMOOTH",
"494 558 LINE",
"583.33 678 OFFCURVE",
"640 821.33 OFFCURVE",
"664 988 CURVE",
"587 1000 LINE",
"570.33 870.67 OFFCURVE",
"531.67 758 OFFCURVE",
"471 662 CURVE",
"443 628 LINE",
"408.33 578 OFFCURVE",
"359.67 527.67 OFFCURVE",
"297 477 CURVE",
"271 462 LINE",
"219.67 422.67 OFFCURVE",
"164.67 385.67 OFFCURVE",
"106 351 CURVE",
"143 281 LINE",
"194.33 310.33 OFFCURVE",
"242.33 341.33 OFFCURVE",
"287 374 CURVE"
);
},
{
closed = 1;
nodes = (
"336 -120 LINE",
"344 -18 OFFCURVE",
"348 75.33 OFFCURVE",
"348 160 CURVE SMOOTH",
"348 354.67 OFFCURVE",
"317.33 546.33 OFFCURVE",
"256 735 CURVE",
"179 709 LINE",
"239.67 510.33 OFFCURVE",
"270 323 OFFCURVE",
"270 147 CURVE SMOOTH",
"270 67.67 OFFCURVE",
"265 -18.67 OFFCURVE",
"255 -112 CURVE"
);
}
);
vertWidth = 1000;
width = 800;
}
);
note = u1B1A6;
unicode = 1B1A6;
},
{
glyphname = u1B1A7;
layers = (
{
hints = (
{
place = "{531, 80}";
type = Stem;
}
);
layerId = "077E5A87-ACC6-4633-A27C-E6914C382A59";
paths = (
{
closed = 1;
nodes = (
"154 313 LINE",
"409.07 485.73 OFFCURVE",
"561.4 710.4 OFFCURVE",
"611 987 CURVE",
"531 1000 LINE",
"506.07 867.14 OFFCURVE",
"459.4 751.14 OFFCURVE",
"391 652 CURVE SMOOTH",
"321.64 551.79 OFFCURVE",
"227.64 461.13 OFFCURVE",
"109 380 CURVE"
);
},
{
closed = 1;
nodes = (
"228 104 LINE",
"288.41 144.67 OFFCURVE",
"348.08 190.33 OFFCURVE",
"407 241 CURVE",
"378 322 LINE",
"313.23 263.11 OFFCURVE",
"248.9 212.11 OFFCURVE",
"185 169 CURVE"
);
},
{
closed = 1;
nodes = (
"273 -120 LINE",
"342.91 -75.19 OFFCURVE",
"414.57 -22.53 OFFCURVE",
"488 38 CURVE SMOOTH",
"556.98 95.39 OFFCURVE",
"619.31 153.39 OFFCURVE",
"675 212 CURVE",
"617 264 LINE",
"509 149 OFFCURVE",
"381 43 OFFCURVE",
"233 -54 CURVE"
);
},
{
closed = 1;
nodes = (
"346 530 LINE",
"280 475 LINE",
"435 50 LINE",
"498 111 LINE"
);
},
{
closed = 1;
nodes = (
"406 241 LINE",
"485 310 OFFCURVE",
"552 381 OFFCURVE",
"607 454 CURVE",
"546 501 LINE",
"502.78 444.49 OFFCURVE",
"446.78 384.82 OFFCURVE",
"378 322 CURVE"
);
}
);
vertWidth = 1000;
width = 800;
}
);
note = u1B1A7;
unicode = 1B1A7;
},
{
glyphname = u1B1A8;
layers = (
{
hints = (
{
horizontal = 1;
place = "{-23, 113}";
type = Stem;
},
{
horizontal = 1;
place = "{98, 113}";
type = Stem;
},
{
place = "{159, 106}";
type = Stem;
},
{
place = "{386, 79}";
type = Stem;
},
{
place = "{556, 78}";
type = Stem;
},
{
place = "{565, 106}";
type = Stem;
}
);
layerId = "077E5A87-ACC6-4633-A27C-E6914C382A59";
paths = (
{
closed = 1;
nodes = (
"159 390 LINE",
"292.33 468.67 OFFCURVE",
"397.33 556 OFFCURVE",
"474 652 CURVE SMOOTH",
"550.67 748 OFFCURVE",
"604 859 OFFCURVE",
"634 985 CURVE",
"556 1000 LINE",
"528.67 886.67 OFFCURVE",
"479.83 786.5 OFFCURVE",
"409.5 699.5 CURVE SMOOTH",
"339.17 612.5 OFFCURVE",
"242.33 532.67 OFFCURVE",
"119 460 CURVE"
);
},
{
closed = 1;
nodes = (
"228 -23 OFFCURVE",
"240.83 -17.67 OFFCURVE",
"250.5 -7 CURVE SMOOTH",
"260.17 3.67 OFFCURVE",
"265 17 OFFCURVE",
"265 33 CURVE SMOOTH",
"265 49.67 OFFCURVE",
"260.17 63.33 OFFCURVE",
"250.5 74 CURVE SMOOTH",
"240.83 84.67 OFFCURVE",
"228 90 OFFCURVE",
"212 90 CURVE SMOOTH",
"196.67 90 OFFCURVE",
"184 84.67 OFFCURVE",
"174 74 CURVE SMOOTH",
"164 63.33 OFFCURVE",
"159 49.67 OFFCURVE",
"159 33 CURVE SMOOTH",
"159 17.67 OFFCURVE",
"164.17 4.5 OFFCURVE",
"174.5 -6.5 CURVE SMOOTH",
"184.83 -17.5 OFFCURVE",
"197.33 -23 OFFCURVE",
"212 -23 CURVE SMOOTH"
);
},
{
closed = 1;
nodes = (
"634 98 OFFCURVE",
"646.83 103.33 OFFCURVE",
"656.5 114 CURVE SMOOTH",
"666.17 124.67 OFFCURVE",
"671 138 OFFCURVE",
"671 154 CURVE SMOOTH",
"671 170.67 OFFCURVE",
"666.17 184.33 OFFCURVE",
"656.5 195 CURVE SMOOTH",
"646.83 205.67 OFFCURVE",
"634 211 OFFCURVE",
"618 211 CURVE SMOOTH",
"602.67 211 OFFCURVE",
"590 205.67 OFFCURVE",
"580 195 CURVE SMOOTH",
"570 184.33 OFFCURVE",
"565 170.67 OFFCURVE",
"565 154 CURVE SMOOTH",
"565 138.67 OFFCURVE",
"570.17 125.5 OFFCURVE",
"580.5 114.5 CURVE SMOOTH",
"590.83 103.5 OFFCURVE",
"603.33 98 OFFCURVE",
"618 98 CURVE SMOOTH"
);
},
{
closed = 1;
nodes = (
"324 533 LINE",
"365.33 409 OFFCURVE",
"386 296.33 OFFCURVE",
"386 195 CURVE SMOOTH",
"386 97.67 OFFCURVE",
"366 2.33 OFFCURVE",
"326 -91 CURVE",
"400 -120 LINE",
"443.33 -13.33 OFFCURVE",
"465 92.33 OFFCURVE",
"465 197 CURVE SMOOTH",
"465 309.67 OFFCURVE",
"441 440.33 OFFCURVE",
"393 589 CURVE"
);
},
{
closed = 1;
nodes = (
"441 323 LINE",
"523 384.33 OFFCURVE",
"592.33 445.67 OFFCURVE",
"649 507 CURVE",
"591 561 LINE",
"542.33 508.33 OFFCURVE",
"487.67 459 OFFCURVE",
"427 413 CURVE"
);
},
{
closed = 1;
nodes = (
"380 379 LINE",
"329.33 342.33 OFFCURVE",
"262.33 300 OFFCURVE",
"179 252 CURVE",
"217 184 LINE",
"286.33 222.67 OFFCURVE",
"344.33 258.33 OFFCURVE",
"391 291 CURVE"
);
}
);
vertWidth = 1000;
width = 800;
}
);
note = u1B1A8;
unicode = 1B1A8;
},
{
glyphname = u1B1A9;
layers = (
{
hints = (
{
place = "{476, 77}";
type = Stem;
}
);
layerId = "077E5A87-ACC6-4633-A27C-E6914C382A59";
paths = (
{
closed = 1;
nodes = (
"189 -120 LINE",
"313 -74.67 OFFCURVE",
"408 -21.67 OFFCURVE",
"474 39 CURVE SMOOTH",
"540 99.67 OFFCURVE",
"573 175.33 OFFCURVE",
"573 266 CURVE SMOOTH",
"573 304.67 OFFCURVE",
"566.67 345 OFFCURVE",
"554 387 CURVE",
"489 321 LINE",
"493.67 297.67 OFFCURVE",
"496 278.67 OFFCURVE",
"496 264 CURVE SMOOTH",
"496 136 OFFCURVE",
"384.33 33.33 OFFCURVE",
"161 -44 CURVE"
);
},
{
closed = 1;
nodes = (
"382 218 LINE",
"449 259 LINE",
"381 445 LINE",
"310 414 LINE"
);
},
{
closed = 1;
nodes = (
"203 85 LINE",
"424.33 164.33 OFFCURVE",
"578.33 295.67 OFFCURVE",
"665 479 CURVE",
"593 513 LINE",
"517 352.33 OFFCURVE",
"377.67 235.33 OFFCURVE",
"175 162 CURVE"
);
},
{
closed = 1;
nodes = (
"171 289 LINE",
"293.67 339 OFFCURVE",
"388 398.17 OFFCURVE",
"454 466.5 CURVE SMOOTH",
"520 534.83 OFFCURVE",
"553 618.67 OFFCURVE",
"553 718 CURVE SMOOTH",
"553 762 OFFCURVE",
"546.33 807.33 OFFCURVE",
"533 854 CURVE",
"468 788 LINE",
"473.33 761.33 OFFCURVE",
"476 736.67 OFFCURVE",
"476 714 CURVE SMOOTH",
"476 569.33 OFFCURVE",
"364.33 452.67 OFFCURVE",
"141 364 CURVE"
);
},
{
closed = 1;
nodes = (
"184 498 LINE",
"397.33 597.33 OFFCURVE",
"545 755 OFFCURVE",
"627 971 CURVE",
"552 1000 LINE",
"478 808 OFFCURVE",
"343.33 665.67 OFFCURVE",
"148 573 CURVE"
);
}
);
vertWidth = 1000;
width = 800;
}
);
note = u1B1A9;
unicode = 1B1A9;
},
{
glyphname = u1B1AA;
layers = (
{
hints = (
{
horizontal = 1;
place = "{10, 76}";
type = Stem;
},
{
horizontal = 1;
place = "{244, 76}";
type = Stem;
},
{
place = "{49, 84}";
type = Stem;
},
{
place = "{215, 83}";
type = Stem;
},
{
place = "{491, 82}";
type = Stem;
},
{
place = "{576, 77}";
type = Stem;
},
{
place = "{655, 78}";
type = Stem;
}
);
layerId = "077E5A87-ACC6-4633-A27C-E6914C382A59";
paths = (
{
closed = 1;
nodes = (
"330 472 LINE",
"549.86 583.82 OFFCURVE",
"684.19 754.82 OFFCURVE",
"733 985 CURVE",
"655 1000 LINE",
"611.67 800.26 OFFCURVE",
"490 648.26 OFFCURVE",
"290 544 CURVE"
);
},
{
closed = 1;
nodes = (
"209 10 OFFCURVE",
"238 24 OFFCURVE",
"262 52 CURVE SMOOTH",
"285.57 79.91 OFFCURVE",
"297.57 117.24 OFFCURVE",
"298 164 CURVE SMOOTH",
"297.79 210.02 OFFCURVE",
"286.13 248.02 OFFCURVE",
"263 278 CURVE SMOOTH",
"239.16 305.37 OFFCURVE",
"209.83 319.37 OFFCURVE",
"175 320 CURVE SMOOTH",
"141.18 319.69 OFFCURVE",
"111.51 305.69 OFFCURVE",
"86 278 CURVE SMOOTH",
"61.77 249.48 OFFCURVE",
"49.44 211.48 OFFCURVE",
"49 164 CURVE SMOOTH",
"49.21 117.56 OFFCURVE",
"61.55 80.22 OFFCURVE",
"86 52 CURVE SMOOTH",
"109.86 24.63 OFFCURVE",
"139.53 10.63 OFFCURVE",
"175 10 CURVE SMOOTH"
);
},
{
closed = 1;
nodes = (
"147 86 OFFCURVE",
"133 112 OFFCURVE",
"133 164 CURVE SMOOTH",
"133.35 216.02 OFFCURVE",
"147.35 242.68 OFFCURVE",
"175 244 CURVE SMOOTH",
"201 243.34 OFFCURVE",
"214.33 216.68 OFFCURVE",
"215 164 CURVE SMOOTH",
"214.67 113.32 OFFCURVE",
"201.34 87.32 OFFCURVE",
"175 86 CURVE SMOOTH"
);
},
{
closed = 1;
nodes = (
"546 -120 LINE",
"564 -27 OFFCURVE",
"573 63 OFFCURVE",
"573 150 CURVE SMOOTH",
"572.96 233.5 OFFCURVE",
"568.63 309.16 OFFCURVE",
"560 377 CURVE",
"482 334 LINE",
"487.93 275.3 OFFCURVE",
"490.93 213.97 OFFCURVE",
"491 150 CURVE SMOOTH",
"490.93 71.69 OFFCURVE",
"482.26 -12.98 OFFCURVE",
"465 -104 CURVE"
);
},
{
closed = 1;
nodes = (
"358 205 LINE",
"457.77 252.58 OFFCURVE",
"532.11 306.58 OFFCURVE",
"581 367 CURVE SMOOTH",
"628.55 426.81 OFFCURVE",
"652.55 497.14 OFFCURVE",
"653 578 CURVE SMOOTH",
"652.89 627.46 OFFCURVE",
"643.89 683.8 OFFCURVE",
"626 747 CURVE",
"558 695 LINE",
"569.8 651.43 OFFCURVE",
"575.8 611.1 OFFCURVE",
"576 574 CURVE SMOOTH",
"575.75 515.03 OFFCURVE",
"555.42 461.03 OFFCURVE",
"515 412 CURVE SMOOTH",
"474.89 364.4 OFFCURVE",
"410.89 319.73 OFFCURVE",
"323 278 CURVE"
);
}
);
vertWidth = 1000;
width = 800;
}
);
note = u1B1AA;
unicode = 1B1AA;
},
{
glyphname = u1B1AB;
layers = (
{
hints = (
{
place = "{180, 80}";
type = Stem;
},
{
place = "{379, 77}";
type = Stem;
},
{
place = "{575, 77}";
type = Stem;
}
);
layerId = "077E5A87-ACC6-4633-A27C-E6914C382A59";
paths = (
{
closed = 1;
nodes = (
"195 -120 LINE",
"238.1 6.61 OFFCURVE",
"259.77 128.94 OFFCURVE",
"260 247 CURVE SMOOTH",
"259.91 349.03 OFFCURVE",
"245.91 454.7 OFFCURVE",
"218 564 CURVE",
"140 547 LINE",
"166.49 449.55 OFFCURVE",
"179.82 350.55 OFFCURVE",
"180 250 CURVE SMOOTH",
"179.89 146.65 OFFCURVE",
"160.22 31.32 OFFCURVE",
"121 -96 CURVE"
);
},
{
closed = 1;
nodes = (
"627 90 LINE",
"578.46 239.26 OFFCURVE",
"514.46 372.92 OFFCURVE",
"435 491 CURVE",
"409 396 LINE",
"466 299 OFFCURVE",
"514 189 OFFCURVE",
"553 66 CURVE"
);
},
{
closed = 1;
nodes = (
"348 986 LINE",
"368.56 840.78 OFFCURVE",
"378.89 707.78 OFFCURVE",
"379 587 CURVE SMOOTH",
"378.89 395.08 OFFCURVE",
"348.89 216.41 OFFCURVE",
"289 51 CURVE",
"365 27 LINE",
"425.45 202.77 OFFCURVE",
"455.79 393.11 OFFCURVE",
"456 598 CURVE SMOOTH",
"455.95 722.06 OFFCURVE",
"445.62 856.06 OFFCURVE",
"425 1000 CURVE"
);
},
{
closed = 1;
nodes = (
"440 668 LINE",
"484.12 705.02 OFFCURVE",
"525.46 744.69 OFFCURVE",
"564 787 CURVE",
"546 798 LINE",
"565.2 697.62 OFFCURVE",
"574.87 599.62 OFFCURVE",
"575 504 CURVE SMOOTH",
"574.97 446.88 OFFCURVE",
"571.97 382.21 OFFCURVE",
"566 310 CURVE",
"643 302 LINE",
"648.93 365.62 OFFCURVE",
"651.93 426.95 OFFCURVE",
"652 486 CURVE SMOOTH",
"651.92 611.57 OFFCURVE",
"636.59 744.23 OFFCURVE",
"606 884 CURVE",
"555 894 LINE",
"519.67 853.02 OFFCURVE",
"479.67 811.69 OFFCURVE",
"435 770 CURVE"
);
},
{
closed = 1;
nodes = (
"387 732 LINE",
"312.19 664.87 OFFCURVE",
"229.86 603.21 OFFCURVE",
"140 547 CURVE",
"176 476 LINE",
"238.04 513.88 OFFCURVE",
"310.04 565.55 OFFCURVE",
"392 631 CURVE"
);
}
);
vertWidth = 1000;
width = 800;
}
);
note = u1B1AB;
unicode = 1B1AB;
},
{
glyphname = u1B1AC;
layers = (
{
hints = (
{
place = "{537, 78}";
type = Stem;
},
{
place = "{568, 77}";
type = Stem;
}
);
layerId = "077E5A87-ACC6-4633-A27C-E6914C382A59";
paths = (
{
closed = 1;
nodes = (
"586.72 137.55 OFFCURVE",
"629.39 68.88 OFFCURVE",
"664 -2 CURVE",
"733 34 LINE",
"691.07 120.73 OFFCURVE",
"639.41 202.73 OFFCURVE",
"578 280 CURVE",
"602.44 343.49 OFFCURVE",
"614.77 413.15 OFFCURVE",
"615 489 CURVE SMOOTH",
"614.88 578.21 OFFCURVE",
"599.55 664.54 OFFCURVE",
"569 748 CURVE",
"600.99 820.89 OFFCURVE",
"626.32 899.55 OFFCURVE",
"645 984 CURVE",
"568 1000 LINE",
"519.14 789.46 OFFCURVE",
"425.81 610.46 OFFCURVE",
"288 463 CURVE",
"288 461 LINE",
"355.67 405.97 OFFCURVE",
"420.67 342.3 OFFCURVE",
"483 270 CURVE",
"447.77 211.25 OFFCURVE",
"396.1 150.25 OFFCURVE",
"328 87 CURVE",
"319.13 98.77 OFFCURVE",
"309.8 110.1 OFFCURVE",
"300 121 CURVE",
"331.23 178.83 OFFCURVE",
"358.56 238.5 OFFCURVE",
"382 300 CURVE",
"312 325 LINE",
"293.09 276.9 OFFCURVE",
"271.09 229.23 OFFCURVE",
"246 182 CURVE",
"210.53 219.19 OFFCURVE",
"169.19 256.52 OFFCURVE",
"122 294 CURVE",
"73 237 LINE",
"114.97 202.39 OFFCURVE",
"158.64 160.39 OFFCURVE",
"204 111 CURVE",
"158.72 38.43 OFFCURVE",
"114.72 -22.57 OFFCURVE",
"72 -72 CURVE",
"129 -120 LINE",
"173.95 -72.06 OFFCURVE",
"216.95 -15.39 OFFCURVE",
"258 50 CURVE",
"301.84 -4.12 OFFCURVE",
"338.51 -56.12 OFFCURVE",
"368 -106 CURVE",
"431 -64 LINE",
"414.2 -35.14 OFFCURVE",
"395.2 -5.81 OFFCURVE",
"374 24 CURVE",
"441 82 OFFCURVE",
"495 142 OFFCURVE",
"536 204 CURVE"
);
},
{
closed = 1;
nodes = (
"440.33 519.6 OFFCURVE",
"480.67 576.6 OFFCURVE",
"516 641 CURVE",
"530 584 OFFCURVE",
"537 532 OFFCURVE",
"537 485 CURVE SMOOTH",
"536.9 440.35 OFFCURVE",
"530.57 395.68 OFFCURVE",
"518 351 CURVE",
"476.8 395.22 OFFCURVE",
"435.8 434.88 OFFCURVE",
"395 470 CURVE"
);
}
);
vertWidth = 1000;
width = 800;
}
);
note = u1B1AC;
unicode = 1B1AC;
},
{
glyphname = u1B1AD;
layers = (
{
hints = (
{
place = "{374, 78}";
type = Stem;
}
);
layerId = "077E5A87-ACC6-4633-A27C-E6914C382A59";
paths = (
{
closed = 1;
nodes = (
"115 420 LINE",
"222.37 504.46 OFFCURVE",
"302.03 589.79 OFFCURVE",
"354 676 CURVE SMOOTH",
"405.56 763.25 OFFCURVE",
"438.89 869.25 OFFCURVE",
"454 994 CURVE",
"374 1000 LINE",
"360.97 889.92 OFFCURVE",
"330.97 795.59 OFFCURVE",
"284 717 CURVE SMOOTH",
"238.06 641.1 OFFCURVE",
"165.72 561.76 OFFCURVE",
"67 479 CURVE"
);
},
{
closed = 1;
nodes = (
"209 -120 LINE",
"281.6 -74.78 OFFCURVE",
"354.93 -18.78 OFFCURVE",
"429 48 CURVE SMOOTH",
"499.46 111.72 OFFCURVE",
"562.8 179.72 OFFCURVE",
"619 252 CURVE",
"557 299 LINE",
"511.95 240.09 OFFCURVE",
"453.62 177.75 OFFCURVE",
"382 112 CURVE SMOOTH",
"309.2 45.36 OFFCURVE",
"237.2 -10.31 OFFCURVE",
"166 -55 CURVE"
);
},
{
closed = 1;
nodes = (
"271 126 LINE",
"381.17 208.04 OFFCURVE",
"471.84 298.7 OFFCURVE",
"543 398 CURVE",
"481 445 LINE",
"411.78 348.56 OFFCURVE",
"326.45 263.23 OFFCURVE",
"225 189 CURVE"
);
},
{
closed = 1;
nodes = (
"234 300 LINE",
"340.82 386.03 OFFCURVE",
"422.82 474.36 OFFCURVE",
"480 565 CURVE",
"416 609 LINE",
"363.75 527.48 OFFCURVE",
"286.41 444.48 OFFCURVE",
"184 360 CURVE"
);
},
{
closed = 1;
nodes = (
"362 792 LINE",
"422.1 738.05 OFFCURVE",
"473.76 685.71 OFFCURVE",
"517 635 CURVE SMOOTH",
"558.37 586.2 OFFCURVE",
"609.03 518.2 OFFCURVE",
"669 431 CURVE",
"735 476 LINE",
"681.07 554.29 OFFCURVE",
"630.73 620.29 OFFCURVE",
"584 674 CURVE SMOOTH",
"537.44 727.26 OFFCURVE",
"479.77 785.26 OFFCURVE",
"411 848 CURVE"
);
}
);
vertWidth = 1000;
width = 800;
}
);
note = u1B1AD;
unicode = 1B1AD;
},
{
glyphname = u1B1AE;
layers = (
{
hints = (
{
place = "{416, 80}";
type = Stem;
}
);
layerId = "077E5A87-ACC6-4633-A27C-E6914C382A59";
paths = (
{
closed = 1;
nodes = (
"188 407 LINE",
"255 393 LINE",
"388.21 557.36 OFFCURVE",
"468.54 757.36 OFFCURVE",
"496 993 CURVE",
"416 1000 LINE",
"393.87 791.41 OFFCURVE",
"328.53 616.08 OFFCURVE",
"220 474 CURVE",
"250 458 LINE",
"150 734 LINE",
"75 707 LINE"
);
},
{
closed = 1;
nodes = (
"286 -120 LINE",
"343.26 -67.48 OFFCURVE",
"400.93 -4.15 OFFCURVE",
"459 70 CURVE SMOOTH",
"515.28 142.46 OFFCURVE",
"563.28 214.79 OFFCURVE",
"603 287 CURVE",
"531 319 LINE",
"495.45 255.14 OFFCURVE",
"451.45 189.47 OFFCURVE",
"399 122 CURVE SMOOTH",
"349.01 57.04 OFFCURVE",
"293.34 -4.63 OFFCURVE",
"232 -63 CURVE"
);
},
{
closed = 1;
nodes = (
"278 135 LINE",
"378 238 OFFCURVE",
"458 349 OFFCURVE",
"518 468 CURVE",
"448 503 LINE",
"392.05 390.4 OFFCURVE",
"315.71 285.07 OFFCURVE",
"219 187 CURVE"
);
},
{
closed = 1;
nodes = (
"390 727 LINE",
"476.7 644.24 OFFCURVE",
"566.03 536.24 OFFCURVE",
"658 403 CURVE",
"725 447 LINE",
"632.99 581.31 OFFCURVE",
"530.99 699.64 OFFCURVE",
"419 802 CURVE"
);
}
);
vertWidth = 1000;
width = 800;
}
);
note = u1B1AE;
unicode = 1B1AE;
},
{
glyphname = u1B1AF;
layers = (
{
hints = (
{
horizontal = 1;
place = "{241, 119}";
type = Stem;
},
{
horizontal = 1;
place = "{728, 119}";
type = Stem;
},
{
place = "{105, 112}";
type = Stem;
},
{
place = "{375, 112}";
type = Stem;
},
{
place = "{597, 80}";
type = Stem;
}
);
layerId = "077E5A87-ACC6-4633-A27C-E6914C382A59";
paths = (
{
closed = 1;
nodes = (
"350 272 LINE",
"458.64 365.06 OFFCURVE",
"537.97 465.72 OFFCURVE",
"588 574 CURVE SMOOTH",
"636.19 681.77 OFFCURVE",
"665.85 822.77 OFFCURVE",
"677 997 CURVE",
"597 1000 LINE",
"587.89 849.61 OFFCURVE",
"565.56 729.61 OFFCURVE",
"530 640 CURVE SMOOTH",
"493.19 549.95 OFFCURVE",
"433.19 464.61 OFFCURVE",
"350 384 CURVE"
);
},
{
closed = 1;
nodes = (
"176.14 241.29 OFFCURVE",
"189.47 247.29 OFFCURVE",
"201 259 CURVE SMOOTH",
"211.14 269.55 OFFCURVE",
"216.47 283.22 OFFCURVE",
"217 300 CURVE SMOOTH",
"216.76 317.14 OFFCURVE",
"211.76 331.48 OFFCURVE",
"202 343 CURVE SMOOTH",
"190.85 353.8 OFFCURVE",
"177.19 359.47 OFFCURVE",
"161 360 CURVE SMOOTH",
"146.18 359.72 OFFCURVE",
"132.84 354.05 OFFCURVE",
"121 343 CURVE SMOOTH",
"110.84 332.4 OFFCURVE",
"105.51 318.07 OFFCURVE",
"105 300 CURVE SMOOTH",
"105.25 283.86 OFFCURVE",
"110.58 270.19 OFFCURVE",
"121 259 CURVE SMOOTH",
"131.82 247.59 OFFCURVE",
"145.16 241.59 OFFCURVE",
"161 241 CURVE SMOOTH"
);
},
{
closed = 1;
nodes = (
"269 -120 LINE",
"342.01 39.34 OFFCURVE",
"378.68 191.68 OFFCURVE",
"379 337 CURVE SMOOTH",
"378.83 494.03 OFFCURVE",
"336.83 656.7 OFFCURVE",
"253 825 CURVE",
"180 789 LINE",
"256.99 632.7 OFFCURVE",
"295.66 482.03 OFFCURVE",
"296 337 CURVE SMOOTH",
"296 203 OFFCURVE",
"262 62 OFFCURVE",
"194 -86 CURVE"
);
},
{
closed = 1;
nodes = (
"476 481 LINE",
"633 -4 LINE",
"710 21 LINE",
"535 561 LINE"
);
},
{
closed = 1;
nodes = (
"375.25 770.86 OFFCURVE",
"380.58 757.19 OFFCURVE",
"391 746 CURVE SMOOTH",
"401.82 734.59 OFFCURVE",
"415.16 728.59 OFFCURVE",
"431 728 CURVE SMOOTH",
"446.14 728.29 OFFCURVE",
"459.47 734.29 OFFCURVE",
"471 746 CURVE SMOOTH",
"481.14 756.55 OFFCURVE",
"486.47 770.22 OFFCURVE",
"487 787 CURVE SMOOTH",
"486.76 804.14 OFFCURVE",
"481.76 818.48 OFFCURVE",
"472 830 CURVE SMOOTH",
"460.85 840.8 OFFCURVE",
"447.19 846.47 OFFCURVE",
"431 847 CURVE SMOOTH",
"416.18 846.72 OFFCURVE",
"402.84 841.05 OFFCURVE",
"391 830 CURVE SMOOTH",
"380.84 819.4 OFFCURVE",
"375.51 805.07 OFFCURVE",
"375 787 CURVE SMOOTH"
);
}
);
vertWidth = 1000;
width = 800;
}
);
note = u1B1AF;
unicode = 1B1AF;
},
{
glyphname = u1B1B0;
layers = (
{
hints = (
{
horizontal = 1;
place = "{504, 119}";
type = Stem;
},
{
place = "{116, 112}";
type = Stem;
},
{
place = "{391, 83}";
type = Stem;
},
{
horizontal = 1;
place = "{595, 119}";
type = Stem;
},
{
place = "{597, 112}";
type = Stem;
},
{
place = "{521, 79}";
type = Stem;
}
);
layerId = "077E5A87-ACC6-4633-A27C-E6914C382A59";
paths = (
{
closed = 1;
nodes = (
"187.14 504.29 OFFCURVE",
"200.47 510.29 OFFCURVE",
"212 522 CURVE SMOOTH",
"222.14 532.55 OFFCURVE",
"227.47 546.22 OFFCURVE",
"228 563 CURVE SMOOTH",
"227.76 580.14 OFFCURVE",
"222.76 594.48 OFFCURVE",
"213 606 CURVE SMOOTH",
"201.85 616.8 OFFCURVE",
"188.19 622.47 OFFCURVE",
"172 623 CURVE SMOOTH",
"157.18 622.72 OFFCURVE",
"143.84 617.05 OFFCURVE",
"132 606 CURVE SMOOTH",
"121.84 595.4 OFFCURVE",
"116.51 581.07 OFFCURVE",
"116 563 CURVE SMOOTH",
"116.25 546.86 OFFCURVE",
"121.58 533.19 OFFCURVE",
"132 522 CURVE SMOOTH",
"142.82 510.59 OFFCURVE",
"156.16 504.59 OFFCURVE",
"172 504 CURVE SMOOTH"
);
},
{
closed = 1;
nodes = (
"597.25 637.86 OFFCURVE",
"602.58 624.19 OFFCURVE",
"613 613 CURVE SMOOTH",
"623.82 601.59 OFFCURVE",
"637.16 595.59 OFFCURVE",
"653 595 CURVE SMOOTH",
"668.14 595.29 OFFCURVE",
"681.47 601.29 OFFCURVE",
"693 613 CURVE SMOOTH",
"703.14 623.55 OFFCURVE",
"708.47 637.22 OFFCURVE",
"709 654 CURVE SMOOTH",
"708.76 671.14 OFFCURVE",
"703.76 685.48 OFFCURVE",
"694 697 CURVE SMOOTH",
"682.85 707.8 OFFCURVE",
"669.19 713.47 OFFCURVE",
"653 714 CURVE SMOOTH",
"638.18 713.72 OFFCURVE",
"624.84 708.05 OFFCURVE",
"613 697 CURVE SMOOTH",
"602.84 686.4 OFFCURVE",
"597.51 672.07 OFFCURVE",
"597 654 CURVE SMOOTH"
);
},
{
closed = 1;
nodes = (
"668 321 LINE",
"635.41 390.85 OFFCURVE",
"587.73 466.47 OFFCURVE",
"524.98 547.86 CURVE SMOOTH",
"426.14 675.64 OFFCURVE",
"319.48 783.02 OFFCURVE",
"205 870 CURVE",
"155 809 LINE",
"244 738 OFFCURVE",
"328 656 OFFCURVE",
"407 563 CURVE SMOOTH",
"486.06 469.81 OFFCURVE",
"550.06 376.47 OFFCURVE",
"599 283 CURVE"
);
},
{
closed = 1;
nodes = (
"434 -120 LINE",
"460.48 -28.43 OFFCURVE",
"473.81 67.9 OFFCURVE",
"474 169 CURVE SMOOTH",
"473.94 229.81 OFFCURVE",
"468.61 289.47 OFFCURVE",
"458 348 CURVE",
"377 332 LINE",
"386.22 271.26 OFFCURVE",
"390.89 216.92 OFFCURVE",
"391 169 CURVE SMOOTH",
"390.92 73.52 OFFCURVE",
"379.58 -15.81 OFFCURVE",
"357 -99 CURVE"
);
},
{
closed = 1;
nodes = (
"143 240 LINE",
"269 326.52 OFFCURVE",
"370 426.18 OFFCURVE",
"446 539 CURVE",
"389 604 LINE",
"315.53 491.61 OFFCURVE",
"217.86 392.61 OFFCURVE",
"96 307 CURVE"
);
},
{
closed = 1;
nodes = (
"474 579 LINE",
"541 698 OFFCURVE",
"583 836 OFFCURVE",
"600 993 CURVE",
"521 1000 LINE",
"506.07 865.69 OFFCURVE",
"471.4 746.36 OFFCURVE",
"417 642 CURVE"
);
}
);
vertWidth = 1000;
width = 800;
}
);
note = u1B1B0;
unicode = 1B1B0;
},
{
glyphname = u1B1B1;
layers = (
{
hints = (
{
place = "{244, 77}";
type = Stem;
},
{
place = "{457, 78}";
type = Stem;
}
);
layerId = "077E5A87-ACC6-4633-A27C-E6914C382A59";
paths = (
{
closed = 1;
nodes = (
"432 53 LINE",
"471.41 97.28 OFFCURVE",
"510.41 145.95 OFFCURVE",
"549 199 CURVE",
"518 286 LINE",
"482.64 234.47 OFFCURVE",
"446.98 187.47 OFFCURVE",
"411 145 CURVE",
"430 141 LINE",
"401.21 340.69 OFFCURVE",
"328.88 565.69 OFFCURVE",
"213 816 CURVE",
"141 780 LINE",
"260.65 522.4 OFFCURVE",
"334.98 289.4 OFFCURVE",
"364 81 CURVE"
);
},
{
closed = 1;
nodes = (
"321 -117 LINE",
"318.84 21.99 OFFCURVE",
"284.17 147.99 OFFCURVE",
"217 261 CURVE",
"151 221 LINE",
"212.64 110.31 OFFCURVE",
"243.64 -3.02 OFFCURVE",
"244 -119 CURVE"
);
},
{
closed = 1;
nodes = (
"172 315 LINE",
"216.4 358.4 OFFCURVE",
"256.06 401.74 OFFCURVE",
"291 445 CURVE",
"260 531 LINE",
"223.73 481.52 OFFCURVE",
"177.06 429.18 OFFCURVE",
"120 374 CURVE"
);
},
{
closed = 1;
nodes = (
"427 498 LINE",
"604 10 LINE",
"675 38 LINE",
"498 526 LINE"
);
},
{
closed = 1;
nodes = (
"585 248 LINE",
"637.98 326.56 OFFCURVE",
"678.31 393.9 OFFCURVE",
"706 450 CURVE",
"636 485 LINE",
"610.67 435.38 OFFCURVE",
"583 386.72 OFFCURVE",
"553 339 CURVE"
);
},
{
closed = 1;
nodes = (
"327 493 LINE",
"432.45 639.91 OFFCURVE",
"501.78 805.57 OFFCURVE",
"535 990 CURVE",
"457 1000 LINE",
"427.52 841.12 OFFCURVE",
"373.85 701.78 OFFCURVE",
"296 582 CURVE"
);
}
);
vertWidth = 1000;
width = 800;
}
);
note = u1B1B1;
unicode = 1B1B1;
},
{
glyphname = u1B1B2;
layers = (
{
hints = (
{
horizontal = 1;
place = "{416, 73}";
type = Stem;
},
{
horizontal = 1;
place = "{647, 73}";
type = Stem;
},
{
place = "{70, 83}";
type = Stem;
},
{
place = "{235, 82}";
type = Stem;
},
{
place = "{448, 79}";
type = Stem;
},
{
place = "{567, 78}";
type = Stem;
},
{
place = "{467, 82}";
type = Stem;
}
);
layerId = "077E5A87-ACC6-4633-A27C-E6914C382A59";
paths = (
{
closed = 1;
nodes = (
"527 -120 LINE",
"541.67 -38 OFFCURVE",
"549 45 OFFCURVE",
"549 129 CURVE SMOOTH",
"549 199.67 OFFCURVE",
"543.67 272.67 OFFCURVE",
"533 348 CURVE",
"453 335 LINE",
"462.33 251 OFFCURVE",
"467 182.33 OFFCURVE",
"467 129 CURVE SMOOTH",
"467 47 OFFCURVE",
"460.67 -31.67 OFFCURVE",
"448 -107 CURVE"
);
},
{
closed = 1;
nodes = (
"228.33 416 OFFCURVE",
"257 429.67 OFFCURVE",
"281 457 CURVE SMOOTH",
"305 484.33 OFFCURVE",
"317 521 OFFCURVE",
"317 567 CURVE SMOOTH",
"317 613.67 OFFCURVE",
"305.17 650.83 OFFCURVE",
"281.5 678.5 CURVE SMOOTH",
"257.83 706.17 OFFCURVE",
"229 720 OFFCURVE",
"195 720 CURVE SMOOTH",
"160.33 720 OFFCURVE",
"130.83 706.17 OFFCURVE",
"106.5 678.5 CURVE SMOOTH",
"82.17 650.83 OFFCURVE",
"70 613.67 OFFCURVE",
"70 567 CURVE SMOOTH",
"70 521 OFFCURVE",
"82.17 484.33 OFFCURVE",
"106.5 457 CURVE SMOOTH",
"130.83 429.67 OFFCURVE",
"160.33 416 OFFCURVE",
"195 416 CURVE SMOOTH"
);
},
{
closed = 1;
nodes = (
"167 489 OFFCURVE",
"153 515 OFFCURVE",
"153 567 CURVE SMOOTH",
"153 620.33 OFFCURVE",
"167 647 OFFCURVE",
"195 647 CURVE SMOOTH",
"221.67 647 OFFCURVE",
"235 620.33 OFFCURVE",
"235 567 CURVE SMOOTH",
"235 515 OFFCURVE",
"221.67 489 OFFCURVE",
"195 489 CURVE SMOOTH"
);
},
{
closed = 1;
nodes = (
"250 856 LINE",
"326 788 OFFCURVE",
"402 701 OFFCURVE",
"478 595 CURVE SMOOTH",
"554 489 OFFCURVE",
"613.67 389 OFFCURVE",
"657 295 CURVE",
"730 331 LINE",
"682 435.67 OFFCURVE",
"620.5 539.83 OFFCURVE",
"545.5 643.5 CURVE SMOOTH",
"470.5 747.17 OFFCURVE",
"391 836.67 OFFCURVE",
"307 912 CURVE"
);
},
{
closed = 1;
nodes = (
"551 585 LINE SMOOTH",
"603.67 692.33 OFFCURVE",
"635 829.33 OFFCURVE",
"645 996 CURVE",
"567 1000 LINE",
"558.33 865.33 OFFCURVE",
"535.33 752.33 OFFCURVE",
"498 661 CURVE",
"483 634 LINE SMOOTH",
"418.33 501.33 OFFCURVE",
"324.33 380.67 OFFCURVE",
"201 272 CURVE",
"257 211 LINE",
"373 312.33 OFFCURVE",
"466.33 427.67 OFFCURVE",
"537 557 CURVE SMOOTH"
);
}
);
vertWidth = 1000;
width = 800;
}
);
note = u1B1B2;
unicode = 1B1B2;
},
{
glyphname = u1B1B3;
layers = (
{
hints = (
{
horizontal = 1;
place = "{-33, 113}";
type = Stem;
},
{
horizontal = 1;
place = "{108, 113}";
type = Stem;
},
{
place = "{132, 106}";
type = Stem;
},
{
place = "{359, 84}";
type = Stem;
},
{
place = "{471, 81}";
type = Stem;
},
{
place = "{582, 80}";
type = Stem;
},
{
place = "{563, 106}";
type = Stem;
}
);
layerId = "077E5A87-ACC6-4633-A27C-E6914C382A59";
paths = (
{
closed = 1;
nodes = (
"181 432 LINE",
"449.89 538.99 OFFCURVE",
"610.23 722.66 OFFCURVE",
"662 983 CURVE",
"582 1000 LINE",
"534.62 779.33 OFFCURVE",
"389.62 616.66 OFFCURVE",
"147 512 CURVE"
);
},
{
closed = 1;
nodes = (
"200.72 -32.74 OFFCURVE",
"213.72 -27.41 OFFCURVE",
"224 -17 CURVE SMOOTH",
"232.89 -5.79 OFFCURVE",
"237.56 7.55 OFFCURVE",
"238 23 CURVE SMOOTH",
"237.78 38.38 OFFCURVE",
"233.11 52.05 OFFCURVE",
"224 64 CURVE SMOOTH",
"214.4 74.11 OFFCURVE",
"201.4 79.44 OFFCURVE",
"185 80 CURVE SMOOTH",
"169.9 79.73 OFFCURVE",
"157.23 74.4 OFFCURVE",
"147 64 CURVE SMOOTH",
"137.48 53.17 OFFCURVE",
"132.48 39.51 OFFCURVE",
"132 23 CURVE SMOOTH",
"132.26 7.48 OFFCURVE",
"137.59 -5.85 OFFCURVE",
"148 -17 CURVE SMOOTH",
"157.54 -27.08 OFFCURVE",
"169.88 -32.41 OFFCURVE",
"185 -33 CURVE SMOOTH"
);
},
{
closed = 1;
nodes = (
"423 -120 LINE",
"436.24 -33.11 OFFCURVE",
"442.9 56.89 OFFCURVE",
"443 150 CURVE SMOOTH",
"442.96 229.72 OFFCURVE",
"438.63 302.06 OFFCURVE",
"430 367 CURVE",
"347 322 LINE",
"355 271 OFFCURVE",
"359 213 OFFCURVE",
"359 148 CURVE SMOOTH",
"358.95 57.32 OFFCURVE",
"352.62 -27.68 OFFCURVE",
"340 -107 CURVE"
);
},
{
closed = 1;
nodes = (
"631.72 108.26 OFFCURVE",
"644.72 113.59 OFFCURVE",
"655 124 CURVE SMOOTH",
"663.89 135.21 OFFCURVE",
"668.56 148.55 OFFCURVE",
"669 164 CURVE SMOOTH",
"668.78 179.38 OFFCURVE",
"664.11 193.05 OFFCURVE",
"655 205 CURVE SMOOTH",
"645.4 215.11 OFFCURVE",
"632.4 220.44 OFFCURVE",
"616 221 CURVE SMOOTH",
"600.9 220.73 OFFCURVE",
"588.23 215.4 OFFCURVE",
"578 205 CURVE SMOOTH",
"568.48 194.17 OFFCURVE",
"563.48 180.51 OFFCURVE",
"563 164 CURVE SMOOTH",
"563.26 149.17 OFFCURVE",
"568.59 136.17 OFFCURVE",
"579 125 CURVE SMOOTH",
"589.12 114.25 OFFCURVE",
"601.46 108.59 OFFCURVE",
"616 108 CURVE SMOOTH"
);
},
{
closed = 1;
nodes = (
"171 182 LINE",
"423.75 274.98 OFFCURVE",
"550.75 410.32 OFFCURVE",
"552 588 CURVE SMOOTH",
"551.89 630.31 OFFCURVE",
"544.22 677.64 OFFCURVE",
"529 730 CURVE",
"459 688 LINE",
"466.85 650.41 OFFCURVE",
"470.85 615.08 OFFCURVE",
"471 582 CURVE SMOOTH",
"470.33 453.65 OFFCURVE",
"360.67 346.65 OFFCURVE",
"142 261 CURVE"
);
}
);
vertWidth = 1000;
width = 800;
}
);
note = u1B1B3;
unicode = 1B1B3;
},
{
glyphname = u1B1B4;
layers = (
{
hints = (
{
place = "{556, 82}";
type = Stem;
}
);
layerId = "077E5A87-ACC6-4633-A27C-E6914C382A59";
paths = (
{
closed = 1;
nodes = (
"157 287 LINE",
"253.67 357.67 OFFCURVE",
"332.5 424.33 OFFCURVE",
"393.5 487 CURVE SMOOTH",
"454.5 549.67 OFFCURVE",
"506.33 622.33 OFFCURVE",
"549 705 CURVE SMOOTH",
"591.67 787.67 OFFCURVE",
"621.33 881 OFFCURVE",
"638 985 CURVE",
"556 1000 LINE",
"542 908 OFFCURVE",
"515.17 823.83 OFFCURVE",
"475.5 747.5 CURVE SMOOTH",
"435.83 671.17 OFFCURVE",
"387.5 603.5 OFFCURVE",
"330.5 544.5 CURVE SMOOTH",
"273.5 485.5 OFFCURVE",
"201 424 OFFCURVE",
"113 360 CURVE"
);
},
{
closed = 1;
nodes = (
"328 -120 LINE",
"380.67 -80 OFFCURVE",
"439.33 -31.33 OFFCURVE",
"504 26 CURVE SMOOTH",
"568.67 83.33 OFFCURVE",
"623 135.33 OFFCURVE",
"667 182 CURVE",
"605 239 LINE",
"525 149.67 OFFCURVE",
"423 57.33 OFFCURVE",
"299 -38 CURVE",
"351 -40 LINE",
"193 393 LINE",
"113 360 LINE",
"282 -105 LINE"
);
},
{
closed = 1;
nodes = (
"252 83 LINE",
"350.67 159.67 OFFCURVE",
"448.67 246.67 OFFCURVE",
"546 344 CURVE",
"514 360 LINE",
"594 139 LINE",
"667 182 LINE",
"579 428 LINE",
"519 434 LINE",
"424.33 336 OFFCURVE",
"325 246 OFFCURVE",
"221 164 CURVE"
);
}
);
vertWidth = 1000;
width = 800;
}
);
note = u1B1B4;
unicode = 1B1B4;
},
{
glyphname = u1B1B5;
layers = (
{
hints = (
{
horizontal = 1;
place = "{517, 119}";
type = Stem;
},
{
place = "{389, 81}";
type = Stem;
},
{
place = "{471, 74}";
type = Stem;
},
{
place = "{561, 112}";
type = Stem;
},
{
horizontal = 1;
place = "{233, 119}";
type = Stem;
},
{
horizontal = 1;
place = "{309, 71}";
type = Stem;
}
);
layerId = "077E5A87-ACC6-4633-A27C-E6914C382A59";
paths = (
{
closed = 1;
nodes = (
"419 207 LINE",
"453 263 OFFCURVE",
"470 335 OFFCURVE",
"470 423 CURVE SMOOTH",
"469.57 625.66 OFFCURVE",
"370.57 777.33 OFFCURVE",
"173 878 CURVE",
"134 812 LINE",
"213.44 768.53 OFFCURVE",
"275.78 713.53 OFFCURVE",
"321 647 CURVE SMOOTH",
"365.93 579.74 OFFCURVE",
"388.6 505.4 OFFCURVE",
"389 424 CURVE SMOOTH",
"388.86 366.12 OFFCURVE",
"377.86 313.45 OFFCURVE",
"356 266 CURVE"
);
},
{
closed = 1;
nodes = (
"155 -8 LINE",
"253.21 45.18 OFFCURVE",
"331.55 104.85 OFFCURVE",
"390 171 CURVE",
"335 233 LINE",
"277.04 166.14 OFFCURVE",
"204.38 109.47 OFFCURVE",
"117 63 CURVE"
);
},
{
closed = 1;
nodes = (
"545 -114 LINE",
"534.91 15.92 OFFCURVE",
"500.25 121.92 OFFCURVE",
"441 204 CURVE SMOOTH",
"381.67 283.98 OFFCURVE",
"290.67 342.64 OFFCURVE",
"168 380 CURVE",
"142 309 LINE",
"245.39 271.38 OFFCURVE",
"323.06 219.38 OFFCURVE",
"375 153 CURVE SMOOTH",
"426 86 OFFCURVE",
"458 -5 OFFCURVE",
"471 -120 CURVE"
);
},
{
closed = 1;
nodes = (
"170 501 LINE",
"244.12 524.16 OFFCURVE",
"309.79 556.16 OFFCURVE",
"367 597 CURVE",
"320 667 LINE",
"271.93 629.14 OFFCURVE",
"212.6 599.14 OFFCURVE",
"142 577 CURVE"
);
},
{
closed = 1;
nodes = (
"632.45 233.27 OFFCURVE",
"646.12 238.94 OFFCURVE",
"658 250 CURVE SMOOTH",
"668 261 OFFCURVE",
"673 275 OFFCURVE",
"673 292 CURVE SMOOTH",
"672.77 309.77 OFFCURVE",
"667.77 324.44 OFFCURVE",
"658 336 CURVE SMOOTH",
"647.49 346.14 OFFCURVE",
"633.83 351.47 OFFCURVE",
"617 352 CURVE SMOOTH",
"601.22 351.72 OFFCURVE",
"587.89 346.05 OFFCURVE",
"577 335 CURVE SMOOTH",
"566.84 324.4 OFFCURVE",
"561.51 310.07 OFFCURVE",
"561 292 CURVE SMOOTH",
"561.24 275.23 OFFCURVE",
"566.57 261.23 OFFCURVE",
"577 250 CURVE SMOOTH",
"588.14 239.21 OFFCURVE",
"601.48 233.54 OFFCURVE",
"617 233 CURVE SMOOTH"
);
},
{
closed = 1;
nodes = (
"630.45 517.27 OFFCURVE",
"644.12 522.94 OFFCURVE",
"656 534 CURVE SMOOTH",
"666 545 OFFCURVE",
"671 559 OFFCURVE",
"671 576 CURVE SMOOTH",
"670.77 593.77 OFFCURVE",
"665.77 608.44 OFFCURVE",
"656 620 CURVE SMOOTH",
"645.49 630.14 OFFCURVE",
"631.83 635.47 OFFCURVE",
"615 636 CURVE SMOOTH",
"599.22 635.72 OFFCURVE",
"585.89 630.05 OFFCURVE",
"575 619 CURVE SMOOTH",
"564.84 608.4 OFFCURVE",
"559.51 594.07 OFFCURVE",
"559 576 CURVE SMOOTH",
"559.24 559.23 OFFCURVE",
"564.57 545.23 OFFCURVE",
"575 534 CURVE SMOOTH",
"586.14 523.21 OFFCURVE",
"599.48 517.54 OFFCURVE",
"615 517 CURVE SMOOTH"
);
},
{
closed = 1;
nodes = (
"410 631 LINE",
"487 714 OFFCURVE",
"532 834 OFFCURVE",
"545 991 CURVE",
"469 1000 LINE",
"455.74 868.06 OFFCURVE",
"420.07 768.72 OFFCURVE",
"362 702 CURVE"
);
}
);
vertWidth = 1000;
width = 800;
}
);
note = u1B1B5;
unicode = 1B1B5;
},
